<svg id="Filled_Expend" height="512" viewBox="0 0 64 64" width="512" xmlns="http://www.w3.org/2000/svg" data-name="Filled Expend"><path d="m4 21h56v6h-56z" fill="#efefff"/><path d="m4 38h24v11h-24z" fill="#ddddf0"/><path d="m4 27h24v11h-24z" fill="#c3c3dc"/><path d="m4 49h24v11h-24z" fill="#c3c3dc"/><path d="m16 4h6v13h-6z" fill="#ffe300"/><path d="m56 27h4v33h-4z" fill="#c3c3dc"/><path d="m25 21h-9v-9l9 5z" fill="#ff3d46"/><path d="m12 7h4v14h-4z" fill="#3caaff"/><path d="m8 7h4v14h-4z" fill="#74c0ff"/><path d="m50 42v1h-16v-1l-.84-21.846a4 4 0 0 1 4-4.154h9.686a4 4 0 0 1 4 4.154z" fill="#ff3d46"/><rect fill="#ff6e81" height="4" rx="2" width="20" x="32" y="42"/><path d="m12 34h8a2 2 0 0 0 2-2v-1a1 1 0 0 0 -2 0v1h-8v-1a1 1 0 0 0 -2 0v1a2 2 0 0 0 2 2z"/><path d="m12 45h8a2 2 0 0 0 2-2v-1a1 1 0 0 0 -2 0v1h-8v-1a1 1 0 0 0 -2 0v1a2 2 0 0 0 2 2z"/><path d="m21 52a1 1 0 0 0 -1 1v1h-8v-1a1 1 0 0 0 -2 0v1a2 2 0 0 0 2 2h8a2 2 0 0 0 2-2v-1a1 1 0 0 0 -1-1z"/><path d="m60 20h-8.173a4.974 4.974 0 0 0 -4.984-5h-9.686a4.974 4.974 0 0 0 -4.984 5h-6.173v-3a1 1 0 0 0 -.515-.874l-2.485-1.381v-10.745a1 1 0 0 0 -1-1h-6a1 1 0 0 0 -1 1v2h-7a1 1 0 0 0 -1 1v13h-3a1 1 0 0 0 -1 1v39a1 1 0 0 0 1 1h24a1 1 0 0 0 1-1v-32h3.461l.508 13.194a2.983 2.983 0 0 0 .031 5.622v13.184a1 1 0 0 0 2 0v-13h14v13a1 1 0 0 0 2 0v-13.184a2.983 2.983 0 0 0 .031-5.622l.508-13.194h3.461v32a1 1 0 0 0 1 1h4a1 1 0 0 0 1-1v-39a1 1 0 0 0 -1-1zm-25.006-2.08a2.979 2.979 0 0 1 2.163-.92h9.686a3 3 0 0 1 3 3.115l-.805 20.885h-14.076l-.8-20.886a2.98 2.98 0 0 1 .832-2.194zm-10.994 2.08h-7v-6.3l7 3.89zm-7-15h4v8.634l-4-2.222zm-2 15h-2v-12h2zm-6-12h2v12h-2zm18 31v9h-22v-9zm-22 20v-9h22v9zm22-22h-22v-9h22zm-22-11v-4h27.231l.153 4zm45 19h-16a1 1 0 0 1 0-2h16a1 1 0 0 1 0 2zm1.769-23h7.231v4h-7.384zm5.231 37v-31h2v31z"/></svg>