<svg height="511pt" viewBox="0 0 511.9995 511" width="511pt" xmlns="http://www.w3.org/2000/svg"><path d="m183.019531 274.929688h-47.863281l-11.878906-29.210938c-1.371094-3.367188 1.109375-7.050781 4.742187-7.050781h62.136719c3.632812 0 6.113281 3.683593 4.742188 7.050781zm0 0" fill="#a8d3d8"/><path d="m381.257812 274.929688h-47.867187l-11.878906-29.210938c-1.371094-3.367188 1.109375-7.050781 4.746093-7.050781h62.132813c3.636719 0 6.113281 3.683593 4.746094 7.050781zm0 0" fill="#a8d3d8"/><path d="m388.390625 238.667969h-36.828125c3.636719 0 9.085938 1.695312 9.085938 9.046875l-.003907 27.214844h20.613281l11.878907-29.210938c1.371093-3.367188-1.109375-7.050781-4.746094-7.050781zm0 0" fill="#8ebac5"/><path d="m190.480469 238.667969h-36.832031c3.636718 0 9.085937 1.695312 9.085937 9.046875l-.003906 27.214844h20.613281l11.878906-29.210938c1.371094-3.367188-1.109375-7.050781-4.742187-7.050781zm0 0" fill="#8ebac5"/><path d="m7.515625 166.699219v203.804687c0 4.625 4.714844 7.75 8.976563 5.953125 12.273437-5.1875 20.65625-16.75 21.773437-30.023437l12.601563-149.769532c1.539062-18.324218-9.40625-35.402343-26.695313-41.65625-8.105469-2.925781-16.65625 3.074219-16.65625 11.691407zm0 0" fill="#fc2b3a"/><path d="m504.5 166.699219v203.804687c0 4.625-4.71875 7.75-8.976562 5.953125-12.273438-5.1875-20.660157-16.75-21.777344-30.023437l-12.597656-149.769532c-1.539063-18.324218 9.40625-35.402343 26.699218-41.65625 8.101563-2.925781 16.652344 3.074219 16.652344 11.691407zm0 0" fill="#fc2b3a"/><path d="m27.1875 504.820312h-7.855469c-3.929687 0-6.992187-3.40625-6.574219-7.3125l13.179688-132.761718h35.886719l-28.183594 134.90625c-.675781 3.019531-3.355469 5.167968-6.453125 5.167968zm0 0" fill="#fbc56d"/><path d="m180.699219 504.820312h7.855469c3.929687 0 6.996093-3.40625 6.578124-7.3125l-13.183593-132.761718h-35.886719l28.183594 134.90625c.675781 3.019531 3.359375 5.167968 6.453125 5.167968zm0 0" fill="#eab765"/><path d="m190.496094 376.972656h-175.214844c-4.296875 0-7.78125-3.484375-7.78125-7.78125 0-16.195312 13.128906-29.324218 29.324219-29.324218h132.132812c16.195313 0 29.324219 13.128906 29.324219 29.324218 0 4.296875-3.484375 7.78125-7.785156 7.78125zm0 0" fill="#ff4755"/><path d="m484.785156 504.820312h7.859375c3.929688 0 6.992188-3.40625 6.574219-7.3125l-13.183594-132.761718h-35.882812l28.179687 134.90625c.679688 3.019531 3.359375 5.167968 6.453125 5.167968zm0 0" fill="#eab765"/><path d="m331.277344 504.820312h-7.855469c-3.933594 0-6.996094-3.40625-6.578125-7.3125l13.183594-132.761718h35.882812l-28.179687 134.90625c-.675781 3.019531-3.359375 5.167968-6.453125 5.167968zm0 0" fill="#fbc56d"/><path d="m321.476562 376.972656h175.214844c4.300782 0 7.785156-3.484375 7.785156-7.78125 0-16.195312-13.128906-29.324218-29.324218-29.324218h-132.132813c-16.195312 0-29.324219 13.128906-29.324219 29.324218 0 4.296875 3.484376 7.78125 7.78125 7.78125zm0 0" fill="#ff4755"/><path d="m432.226562 498.242188-25.417968-222.300782h-42.289063l44.285157 224.183594c.5625 2.734375 2.96875 4.695312 5.757812 4.695312h11.824219c3.523437 0 6.253906-3.078124 5.839843-6.578124zm0 0" fill="#fbc56d"/><path d="m79.75 498.242188 25.417969-222.300782 43.742187.253906-45.714844 223.96875c-.578124 2.714844-2.972656 4.65625-5.75 4.65625h-11.855468c-3.523438 0-6.253906-3.078124-5.839844-6.578124zm0 0" fill="#fbc56d"/><path d="m420.347656 312.125h-328.71875c-4.789062 0-8.667968-3.878906-8.667968-8.664062v-23.066407c0-4.785156 3.878906-8.667969 8.667968-8.667969h328.71875c4.789063 0 8.667969 3.882813 8.667969 8.667969v23.066407c0 4.785156-3.882813 8.664062-8.667969 8.664062zm0 0" fill="#ad5e2e"/><path d="m420.347656 271.730469h-33c4.785156 0 8.667969 3.878906 8.667969 8.664062v31.734375h24.332031c4.785156 0 8.667969-3.882812 8.667969-8.667968v-23.066407c0-4.785156-3.882813-8.664062-8.667969-8.664062zm0 0" fill="#914d24"/><path d="m377.226562 167.226562h-242.453124c-5.039063 0-9.121094-4.085937-9.121094-9.121093v-141.019531c0-5.035157 4.082031-9.121094 9.121094-9.121094h242.453124c5.039063 0 9.121094 4.085937 9.121094 9.121094v141.019531c0 5.039062-4.082031 9.121093-9.121094 9.121093zm0 0" fill="#838383"/><path d="m153.648438 133.851562v-92.511718c0-2.96875 2.40625-5.375 5.375-5.375h193.953124c2.96875 0 5.375 2.40625 5.375 5.375v92.511718c0 2.96875-2.40625 5.375-5.375 5.375h-193.953124c-2.96875 0-5.375-2.40625-5.375-5.375zm0 0" fill="#9ae7fd"/><path d="m352.976562 35.964844h-36.652343c5.167969 0 9.359375 4.191406 9.359375 9.359375v93.902343h27.292968c2.96875 0 5.375-2.40625 5.375-5.375v-92.511718c0-2.96875-2.40625-5.375-5.375-5.375zm0 0" fill="#64dcfc"/><path d="m284.382812 85.078125-37.324218 54.148437h85.335937l-37.324219-54.148437c-2.578124-3.746094-8.109374-3.746094-10.6875 0zm0 0" fill="#3e5959"/><path d="m225.554688 61.628906-53.484376 77.597656h117.65625l-53.484374-77.597656c-2.582032-3.746094-8.109376-3.746094-10.6875 0zm0 0" fill="#537983"/><path d="m134.734375 174.707031h242.382813c9.164062 0 16.617187-7.453125 16.617187-16.613281v-140.976562c0-9.164063-7.453125-16.617188-16.617187-16.617188h-242.382813c-9.164063 0-16.617187 7.453125-16.617187 16.617188v140.976562c0 9.160156 7.453124 16.613281 16.617187 16.613281zm0-159.210937c255.78125.761718 244.003906-1.539063 244.003906 1.621094-.746093 146.546874 1.542969 142.59375-1.621093 142.59375-255.78125-.761719-244.003907 1.539062-244.003907-1.621094.746094-146.457032-1.558593-142.59375 1.621094-142.59375zm0 0"/><path d="m158.976562 146.714844h193.894532c7.097656 0 12.871094-5.769532 12.871094-12.867188v-92.488281c0-7.09375-5.773438-12.867187-12.871094-12.867187h-193.894532c-7.09375 0-12.867187 5.773437-12.867187 12.867187v17.476563c0 9.914062 14.996094 9.925781 14.996094 0v-15.351563h189.640625v88.234375h-14.511719c-34.015625-46.121094-33.894531-56.9375-46.59375-56.9375-11.199219 0-13.699219 11.03125-21.324219 20.28125-23.746094-31.574219-25.070312-43.726562-37.484375-43.726562 0 0 0 0-.003906 0-12.894531 0-10.917969 8.738281-62.75 80.382812h-6.976563v-42.71875c0-9.910156-14.996093-9.925781-14.996093 0v44.847656c.003906 7.097656 5.777343 12.867188 12.871093 12.867188zm130.664063-56.171875 28.382813 41.179687h-24.441407l-16.160156-23.445312zm-58.8125-23.441407c7.492187 10.871094 31.980469 46.394532 44.539063 64.621094h-89.074219zm0 0"/><path d="m511.851562 198.597656c-1.714843-24.0625 4.851563-38.867187-8.480468-48.222656-17.625-12.371094-52.75 12.125-49.828125 46.894531l11.359375 135.035157h-44.214844l-1.457031-12.738282h.996093c8.910157 0 16.160157-7.25 16.160157-16.160156v-23.058594c0-8.910156-7.25-16.160156-16.160157-16.160156h-26.636718l6.375-15.683594c1.585937-3.894531 1.132812-8.304687-1.21875-11.796875-6.53125-9.710937-14.324219-3.84375-72.585938-5.574219-8.9375 0-15.066406 9.066407-11.6875 17.371094l6.378906 15.683594h-125.441406c3.578125-11.429688 10.925782-18.910156 5.15625-27.480469-6.535156-9.710937-14.480468-3.847656-72.582031-5.574219-8.9375 0-15.066406 9.066407-11.691406 17.371094l6.378906 15.683594h-31.070313c-8.910156 0-16.164062 7.25-16.164062 16.160156v23.058594c0 8.910156 7.25 16.160156 16.164062 16.160156h.996094l-1.457031 12.738282h-44.175781l11.355468-135.035157c2.941407-34.9375-32.320312-59.183593-49.828124-46.894531-5.308594 3.726562-8.476563 9.820312-8.476563 16.308594 0 .101562-.015625 202.269531-.015625 202.433594 0 8.421874 6.851562 15.277343 15.277344 15.277343h1.160156c-9.769531 114.253907-15.003906 114.902344-7.605469 123.136719 2.671875 2.96875 6.496094 4.675781 10.492188 4.675781 2.25-.53125 18.648437 3.261719 21.648437-11.132812l24.375-116.679688h19.835938c-11.710938 116.042969-16.671875 115.371094-9.621094 123.316407 5.960938 6.710937 13.617188 3.796874 21.851562 4.492187 6.277344 0 11.78125-4.453125 13.097657-10.652344l23.914062-117.15625h8.054688c24.371093 116.660157 24.371093 116.671875 24.398437 116.785157 3.183594 14.222656 19.269532 10.496093 21.625 11.027343 8.480469 0 14.902344-7.394531 14.03125-15.550781l-11.148437-112.289062c26.296875-1.613282 14.664062-52.0625-22.480469-52.0625h-23.847656l2.597656-12.734376h217.738281l2.515625 12.734376h-24.988281c-20.300781 0-36.816406 16.511718-36.816406 36.8125 0 8.109374 6.347656 14.761718 14.335937 15.25-9.84375 115.109374-14.988281 114.957031-7.605468 123.164062 2.667968 2.972656 6.492187 4.675781 10.488281 4.675781 2.449219-.550781 18.453125 3.246094 21.648437-11.132812l24.375-116.679688h8.855469l23.136719 117.132813c1.277344 6.1875 6.789062 10.679687 13.105468 10.679687 8.164063-.695312 15.871094 2.203125 21.820313-4.496093 7.050781-7.941407 2.09375-7.257813-9.621094-123.316407h19.835938c22.84375 109.339844 24.359375 116.597657 24.398437 116.789063 3.1875 14.222656 19.269532 10.492187 21.625 11.023437 8.480469 0 14.902344-7.390625 14.035156-15.550781l-11.152343-112.261719c.105469-.035156 12.199219.921875 15.777343-10.832031 1.304688-2.828125.429688 4.902344.6875-144.972656 0-9.914063-14.996093-9.929688-14.996093 0v110.910156c-4.855469-3.589844-10.617188-6.015625-16.875-6.863281l-11.496094-136.625c-1.894531-22.570313 20.070313-37.710938 26.273437-33.363281 4.144532 2.910156.933594 7.75 2.097657 35.949218 0 9.914063 14.996093 9.925782 14.996093 0zm-182.15625 47.53125h55.046876l-7.339844 18.054688h-40.363282zm-198.179687 0h55.050781l-7.34375 18.054688h-40.363281zm-41.082031 34.21875c0-1.886718 330.957031-1.886718 330.957031 0-.46875 21.714844 1.046875 24.222656-1.164063 24.222656-48.570312 0-286.46875 0-328.625 0-2.234374 0-.703124-2.679687-1.167968-24.222656zm-47.054688-84.335937-11.492187 136.621093c-6.257813.839844-12.019531 3.257813-16.875 6.839844v-172.789062c0-13.375 30.605469 2.71875 28.367187 29.328125zm-16.917968 301.199219h-6.15625l11.203124-112.816407h18.519532zm-11.449219-128.894532c.417969-11.660156 10.039062-21.019531 21.800781-21.019531h52.613281l-2.527343 22.101563c-7.183594 0-81.96875.75-71.886719-1.082032zm166.355469 128.894532-23.566407-112.816407h18.519531l11.203126 112.816407zm-12.460938-149.914063c19.652344 0 23.441406 22.101563 21.535156 22.101563-16.058594 0-36.085937 0-52.957031 0l4.511719-22.101563zm-72.8125 149.914063h-8.714844c1.171875-10.230469 19.128906-167.316407 20.3125-177.644532h24.660156c-4.273437 20.941406-32.371093 158.59375-36.257812 177.644532zm234.367188 0h-6.15625l11.203124-112.816407h18.519532zm-9.359376-128.09375c0-12.03125 9.789063-21.820313 21.820313-21.820313h27.953125l4.363281 22.101563c-58.238281.070312-54.136719.023437-54.136719-.28125zm94.671876 128.09375c-3.757813-19.023438-30.898438-156.417969-35.089844-177.644532h23.453125c.921875 8.035156 19.546875 170.960938 20.308593 177.644532zm75.75 0h-6.15625l-23.566407-112.816407h18.519531zm5.027343-127.8125c-27.449219 0-53.914062-.003907-71.625 0l-2.527343-22.101563h52.613281c19.652343 0 23.4375 22.101563 21.539062 22.101563zm0 0"/></svg>