<svg id="Capa_1" enable-background="new 0 0 512 512" height="512" viewBox="0 0 512 512" width="512" xmlns="http://www.w3.org/2000/svg"><g clip-rule="evenodd" fill-rule="evenodd"><path d="m472.752 504.5v-298.006c0-3.68-3.024-6.703-6.704-6.703h-21.822-39.251-33.318l-25.816 155.464 25.816 149.245z" fill="#b8acac"/><path d="m443.855 206.494v298.006h28.896v-298.006c0-3.68-3.024-6.703-6.704-6.703h-21.822-7.074c3.681-.001 6.704 3.023 6.704 6.703z" fill="#9d9696"/><path d="m371.657 504.5v-84.264-53.742-53.714-53.714-59.276-118.38l-149.988-19.854-131.16 19.854v227.063 115.157l-23.79 43.016 23.79 37.853c73.824.001 217.365.001 281.148.001z" fill="#f3eae6"/><path d="m231.083 504.5v-115.015l-31.492-15.489-26.101 15.489v115.015z" fill="#6bd9e7"/><path d="m288.648 504.5v-115.015l-27.299-15.489-30.266 15.489v115.015z" fill="#6bd9e7"/><path d="m90.509 81.41h281.148 8.329c2.339 0 4.25-1.911 4.25-4.25v-31.208c0-2.339-1.911-4.25-4.25-4.25h-223.184-39.251-35.4c-2.311 0-4.222 1.911-4.222 4.25v31.207c0 2.339 1.911 4.25 4.222 4.25h8.358z" fill="#b8acac"/><path d="m144.28 186.811h32.034c1.626 0 2.967-1.341 2.967-2.967v-52.287c0-1.626-1.341-2.967-2.967-2.967h-32.034c-1.654 0-2.967 1.341-2.967 2.967v52.287c0 1.627 1.312 2.967 2.967 2.967z" fill="#6bd9e7"/><path d="m249.254 186.811c1.626 0 2.967-1.341 2.967-2.967v-52.287c0-1.626-1.341-2.967-2.967-2.967h-32.034c-1.626 0-2.967 1.341-2.967 2.967v52.287c0 1.626 1.341 2.967 2.967 2.967z" fill="#6bd9e7"/><path d="m290.159 186.811h32.034c1.626 0 2.967-1.341 2.967-2.967v-52.287c0-1.626-1.341-2.967-2.967-2.967h-32.034c-1.626 0-2.967 1.341-2.967 2.967v52.287c.001 1.627 1.341 2.967 2.967 2.967z" fill="#6bd9e7"/><path d="m290.159 290.045h32.034c1.626 0 2.967-1.341 2.967-2.967v-52.287c0-1.626-1.341-2.967-2.967-2.967h-32.034c-1.626 0-2.967 1.341-2.967 2.967v52.287c.001 1.626 1.341 2.967 2.967 2.967z" fill="#6bd9e7"/><path d="m217.219 290.045h32.034c1.626 0 2.967-1.341 2.967-2.967v-52.287c0-1.626-1.341-2.967-2.967-2.967h-32.034c-1.626 0-2.967 1.341-2.967 2.967v52.287c.001 1.626 1.342 2.967 2.967 2.967z" fill="#6bd9e7"/><path d="m179.28 287.079v-52.287c0-1.626-1.341-2.967-2.967-2.967h-32.033c-1.654 0-2.967 1.341-2.967 2.967v52.287c0 1.626 1.312 2.967 2.967 2.967h32.034c1.626-.001 2.966-1.342 2.966-2.967z" fill="#6bd9e7"/><path d="m90.509 108.566h253.45v338.826 57.108h27.698c0-141.03 0-282.06 0-423.09h-281.148z" fill="#e0d2ce"/><path d="m347.239 45.952v24.018 7.188c0 2.339-1.911 4.25-4.222 4.25h28.64 8.329c2.339 0 4.25-1.911 4.25-4.25v-31.206c0-2.339-1.911-4.25-4.25-4.25h-36.969c2.311 0 4.222 1.911 4.222 4.25z" fill="#9d9696"/><path d="m324.19 129.361-36.17 56.538c.542.57 1.312.913 2.139.913h32.034c1.626 0 2.967-1.341 2.967-2.967v-52.287c0-.856-.371-1.655-.97-2.197z" fill="#00c7dd"/><path d="m251.25 129.361-36.17 56.538c.542.57 1.284.913 2.139.913h32.034c1.626 0 2.967-1.341 2.967-2.967v-52.287c0-.856-.37-1.655-.97-2.197z" fill="#00c7dd"/><path d="m178.311 129.361-36.199 56.538c.542.57 1.312.913 2.168.913h32.034c1.626 0 2.967-1.341 2.967-2.967v-52.287c-.001-.856-.4-1.655-.97-2.197z" fill="#00c7dd"/><path d="m178.311 232.595-36.199 56.509c.542.571 1.312.941 2.168.941h32.034c1.626 0 2.967-1.341 2.967-2.967v-52.287c-.001-.884-.4-1.654-.97-2.196z" fill="#00c7dd"/><path d="m251.25 232.595-36.17 56.509c.542.571 1.284.941 2.139.941h32.034c1.626 0 2.967-1.341 2.967-2.967v-52.287c0-.884-.37-1.654-.97-2.196z" fill="#00c7dd"/><path d="m324.19 232.595-36.17 56.509c.542.571 1.312.941 2.139.941h32.034c1.626 0 2.967-1.341 2.967-2.967v-52.287c0-.884-.371-1.654-.97-2.196z" fill="#00c7dd"/><path d="m231.083 389.485-57.593 115.015h57.593z" fill="#00c7dd"/><path d="m288.648 389.485-57.565 115.015h57.565z" fill="#00c7dd"/><path d="m90.509 504.5v-80.87l-18.114-11.353-18.114 11.353v80.87z" fill="#d87e49"/><path d="m90.509 423.63c20.082-8.615 34.402-31.15 34.402-57.593 0-26.415-14.32-48.95-34.402-57.565-5.648-2.425-11.753-3.765-18.114-3.765-29.011 0-52.516 27.47-52.516 61.33 0 26.443 14.32 48.978 34.402 57.593 5.648 2.425 11.753 3.737 18.114 3.737s12.466-1.312 18.114-3.737z" fill="#80d261"/><path d="m72.395 427.367v29.039 19.255 28.839h18.114v-80.87c-5.648 2.425-11.753 3.737-18.114 3.737z" fill="#c86d35"/><path d="m90.509 326.358c7.787 10.697 12.466 24.561 12.466 39.679 0 15.147-4.678 29.01-12.466 39.708-3.109 4.279-6.732 8.044-10.726 11.182-3.452 2.738-7.217 4.992-11.211 6.703-2.311.998-4.707 1.797-7.16 2.425 3.537.856 7.217 1.312 10.982 1.312 6.361 0 12.466-1.312 18.114-3.737 20.082-8.615 34.402-31.15 34.402-57.593 0-26.415-14.32-48.95-34.402-57.565-5.648-2.425-11.753-3.765-18.114-3.765-3.765 0-7.445.485-10.954 1.341 2.425.628 4.821 1.426 7.131 2.425 8.588 3.679 16.119 9.898 21.938 17.885z" fill="#4fc122"/><path d="m173.49 389.485h57.593 57.565 7.559c2.168 0 3.965-1.797 3.965-3.994v-29.353c0-2.196-1.797-3.994-3.965-3.994h-130.248c-2.196 0-3.994 1.797-3.994 3.994v29.353c0 2.196 1.797 3.994 3.994 3.994z" fill="#b8acac"/><path d="m273.101 356.139v29.353c0 2.196-1.797 3.994-3.994 3.994h19.54 7.559c2.168 0 3.965-1.797 3.965-3.994v-29.353c0-2.196-1.797-3.994-3.965-3.994h-27.099c2.197 0 3.994 1.797 3.994 3.994z" fill="#9d9696"/></g><path d="m496 497h-15.749v-123.774c0-4.142-3.358-7.5-7.5-7.5s-7.5 3.358-7.5 7.5v123.774h-86.095v-69.264h43.047c4.142 0 7.5-3.358 7.5-7.5s-3.358-7.5-7.5-7.5h-43.047v-38.742h43.047c4.142 0 7.5-3.358 7.5-7.5s-3.358-7.5-7.5-7.5h-43.047v-38.714h43.047c4.142 0 7.5-3.358 7.5-7.5s-3.358-7.5-7.5-7.5h-43.047v-38.714h43.047c4.142 0 7.5-3.358 7.5-7.5s-3.358-7.5-7.5-7.5h-43.047v-44.276h86.095v133.501c0 4.142 3.358 7.5 7.5 7.5s7.5-3.358 7.5-7.5v-134.297c0-7.832-6.372-14.204-14.203-14.204h-14.322v-18.829c0-4.142-3.358-7.5-7.5-7.5s-7.5 3.358-7.5 7.5v18.829h-24.251v-31.238c0-4.142-3.358-7.5-7.5-7.5s-7.5 3.358-7.5 7.5v31.238h-18.318v-103.38h.83c6.479 0 11.75-5.271 11.75-11.75v-31.207c0-6.479-5.271-11.75-11.75-11.75h-215.685v-15.749c0-4.142-3.358-7.5-7.5-7.5s-7.5 3.358-7.5 7.5v15.749h-24.251v-26.703c0-4.142-3.358-7.5-7.5-7.5s-7.5 3.358-7.5 7.5v26.702h-27.9c-6.463 0-11.722 5.271-11.722 11.75v31.207c0 6.479 5.258 11.75 11.722 11.75h.858v209.398c-3.448-.709-6.991-1.1-10.614-1.1-33.093 0-60.016 30.877-60.016 68.83 0 27.449 14.087 51.189 34.402 62.231v68.732h-30.781c-4.142 0-7.5 3.358-7.5 7.5s3.358 7.5 7.5 7.5h38.281 36.228 82.981 115.158 83.009 124.343c4.142 0 7.5-3.358 7.5-7.5s-3.358-7.5-7.5-7.5zm-468.621-130.963c0-29.682 20.194-53.83 45.016-53.83 5.27 0 10.327 1.098 15.031 3.097.147.066.297.126.449.183 17.219 7.564 29.536 27.369 29.536 50.549 0 29.682-20.194 53.83-45.016 53.83s-45.016-24.147-45.016-53.829zm34.402 130.963v-63.233c3.448.709 6.991 1.1 10.614 1.1s7.166-.391 10.614-1.1v63.233zm230.891-115.015h-123.207v-22.34h123.207zm-111.682 115.015v-100.015h42.593v100.015zm57.593 0v-100.015h42.564v100.015zm57.564 0v-100.015h.06c6.322 0 11.465-5.156 11.465-11.494v-29.353c0-6.337-5.143-11.494-11.465-11.494h-130.248c-6.337 0-11.494 5.156-11.494 11.494v29.353c0 6.337 5.156 11.494 11.494 11.494h.031v100.015h-67.981v-68.732c20.315-11.042 34.402-34.781 34.402-62.231 0-27.449-14.087-51.188-34.402-62.23v-214.897h120.979c4.142 0 7.5-3.358 7.5-7.5s-3.358-7.5-7.5-7.5h-133.559v-24.708h291.308v24.708h-124.545c-4.142 0-7.5 3.358-7.5 7.5s3.358 7.5 7.5 7.5h111.965v408.09z"/><path d="m176.314 121.091h-32.034c-5.771 0-10.467 4.695-10.467 10.467v52.287c0 5.771 4.695 10.467 10.467 10.467h32.034c5.771 0 10.466-4.695 10.466-10.467v-52.287c0-5.772-4.695-10.467-10.466-10.467zm-4.534 58.221h-22.967v-43.221h22.967z"/><path d="m249.254 121.091h-32.035c-5.771 0-10.466 4.695-10.466 10.467v52.287c0 5.771 4.695 10.467 10.466 10.467h32.035c5.771 0 10.466-4.695 10.466-10.467v-52.287c0-5.772-4.695-10.467-10.466-10.467zm-4.534 58.221h-22.967v-43.221h22.967z"/><path d="m176.314 224.325h-32.034c-5.771 0-10.467 4.695-10.467 10.467v52.287c0 5.771 4.695 10.467 10.467 10.467h32.034c5.771 0 10.466-4.695 10.466-10.467v-52.287c0-5.772-4.695-10.467-10.466-10.467zm-4.534 58.22h-22.967v-43.221h22.967z"/><path d="m249.254 224.325h-32.035c-5.771 0-10.466 4.695-10.466 10.467v52.287c0 5.771 4.695 10.467 10.466 10.467h32.035c5.771 0 10.466-4.695 10.466-10.467v-52.287c0-5.772-4.695-10.467-10.466-10.467zm-4.534 58.22h-22.967v-43.221h22.967z"/><path d="m322.194 121.091h-32.035c-5.771 0-10.466 4.695-10.466 10.467v52.287c0 5.771 4.695 10.467 10.466 10.467h32.035c5.771 0 10.466-4.695 10.466-10.467v-52.287c0-5.772-4.695-10.467-10.466-10.467zm-4.534 58.221h-22.967v-43.221h22.967z"/><path d="m322.194 224.325h-32.035c-5.771 0-10.466 4.695-10.466 10.467v52.287c0 5.771 4.695 10.467 10.466 10.467h32.035c5.771 0 10.466-4.695 10.466-10.467v-52.287c0-5.772-4.695-10.467-10.466-10.467zm-4.534 58.22h-22.967v-43.221h22.967z"/></svg>