<?xml version="1.0" encoding="iso-8859-1"?>
<!-- Generator: Adobe Illustrator 19.0.0, SVG Export Plug-In . SVG Version: 6.00 Build 0)  -->
<svg version="1.1" id="Capa_1" xmlns="http://www.w3.org/2000/svg" xmlns:xlink="http://www.w3.org/1999/xlink" x="0px" y="0px"
	 viewBox="0 0 488.928 488.928" style="enable-background:new 0 0 488.928 488.928;" xml:space="preserve">
<path style="fill:#EAEAEA;" d="M474.528,360.816l-64-26.48v-45.52v-80v-32v-98.48l-168-69.52l64,26.48v141.52v32v80v2.48l-64-26.48
	v-256l-240,80l7.92,245.624l-7.92,2.376v144h480v-120l-8-3.2V360.816z M26.528,120.816l144-48v96l-144,48V120.816z M10.528,256.816
	l184-56v80l-61.336,18.664l-10.664,3.248l-32,9.736l-27.432,8.352l-52.568,16V256.816z M362.528,353.56v47.256l-168,72
	l-83.424-39.896l83.424,39.896v-48l-52.56-25.136l163.192-71.448l57.368,24.584l-0.832,0.36L362.528,353.56z"/>
<g>
	<polygon style="fill:#A9CB73;" points="42.528,327.08 42.528,288.816 90.528,272.816 90.528,312.472 122.528,302.728 
		122.528,264.816 170.528,248.816 170.528,288.12 133.192,299.48 194.528,280.816 194.528,200.816 10.528,256.816 10.528,336.816 
		63.096,320.816 	"/>
	<polygon style="fill:#A9CB73;" points="305.16,328.232 141.968,399.68 194.528,424.816 194.528,472.816 362.528,400.816 
		362.528,353.56 361.696,353.176 362.528,352.816 	"/>
</g>
<polygon style="fill:#F4CD57;" points="170.528,72.816 26.528,120.816 26.528,216.816 170.528,168.816 "/>
<g>
	<polygon style="fill:#A9CB73;" points="306.528,291.296 306.528,288.816 306.528,208.816 306.528,176.816 306.528,35.296 
		242.528,8.816 242.528,264.816 	"/>
	<polygon style="fill:#A9CB73;" points="410.528,208.816 410.528,288.816 410.528,334.336 474.528,360.816 474.528,357.616 
		474.528,240.816 474.528,104.816 410.528,78.336 410.528,176.816 	"/>
</g>
<g>
	<polygon style="fill:#F4CD57;" points="90.528,272.816 42.528,288.816 42.528,327.08 63.096,320.816 90.528,312.472 	"/>
	<polygon style="fill:#F4CD57;" points="170.528,248.816 122.528,264.816 122.528,302.728 133.192,299.48 170.528,288.12 	"/>
</g>
<g>
	<path style="fill:#2D2D2D;" d="M484.312,401.568l-115.8-54.04c-0.16-0.184-0.36-0.336-0.544-0.504c-0.2-0.184-0.4-0.36-0.616-0.528
		c-0.144-0.112-0.264-0.256-0.416-0.36c-0.264-0.176-0.552-0.272-0.832-0.408c-0.152-0.08-0.272-0.192-0.424-0.264l-57.368-24.584
		l-91.288-39.128l25.208-8.4l61.24,25.344h0.008l167.992,69.512c0.976,0.408,2.016,0.608,3.056,0.608
		c1.56,0,3.112-0.456,4.448-1.344c2.216-1.488,3.552-3.984,3.552-6.656v-256c0-3.24-1.952-6.16-4.936-7.392l-64-26.488h-0.008
		L245.592,1.424C245,1.176,244.384,1.016,243.76,0.92c-0.016,0-0.024-0.008-0.04-0.008c-1.2-0.176-2.416-0.056-3.568,0.304
		c-0.048,0.016-0.104,0-0.152,0.016l-240,80l5.064,15.176l229.464-76.496v239.136l-32,10.664v-68.896c0-2.536-1.2-4.92-3.232-6.432
		c-2.04-1.504-4.672-1.968-7.096-1.224l-184,56c-3.368,1.024-5.672,4.136-5.672,7.656v80v48c0,3.08,1.768,5.888,4.544,7.216
		l85.104,40.704l-36.96,16.8c-2.84,1.28-4.664,4.104-4.688,7.216s1.76,5.96,4.576,7.296l48.04,22.76l6.84-14.464L77.52,456.968
		l33.488-15.216l80.056,38.288c0.232,0.112,0.48,0.152,0.712,0.232c0.264,0.096,0.52,0.192,0.792,0.264
		c0.464,0.12,0.936,0.176,1.408,0.208c0.192,0.008,0.368,0.072,0.552,0.072c0.072,0,0.136-0.024,0.2-0.032
		c0.496-0.016,0.976-0.104,1.456-0.208c0.208-0.048,0.424-0.056,0.632-0.12c0.208-0.064,0.408-0.168,0.616-0.248
		c0.08-0.032,0.16-0.016,0.24-0.048l168-72c2.952-1.248,4.856-4.144,4.856-7.344v-34.688l91.272,42.6l-142.584,64.808l6.624,14.56
		l158.4-72c2.84-1.288,4.672-4.12,4.688-7.24S487.136,402.888,484.312,401.568z M82.528,306.544l-32,9.736v-21.696l32-10.664
		V306.544z M162.528,282.192l-13.336,4.056l-18.664,5.688v-21.352l32-10.664V282.192z M44.848,334.728
		C44.856,334.728,44.856,334.728,44.848,334.728l48.008-14.608l0,0l20.448-6.224l11.552-3.512h0.008l48-14.608l0,0l21.2-6.456
		l90.976,38.992l-142.912,62.576L32.544,338.472L44.848,334.728z M194.712,416.032L161.184,400l144.008-63.048l37.024,15.864
		L194.712,416.032z M466.528,110.16v238.68l-48-19.864v-40.16v-80v-32V90.304L466.528,110.16z M362.528,266.568l-16,4v-63.504l16-4
		V266.568z M314.528,215.064l16-4v63.504l-16,4V215.064z M378.528,204.632l12,4.8l12,4.8V277l-24-9.6V204.632z M402.528,197l-12-4.8
		l-12-4.8v-14.768l24,9.6V197z M362.528,186.568l-48,12v-15.504l48-12V186.568z M369.96,281.208l32.568,13.024v28.128
		l-74.272-30.736L369.96,281.208z M402.528,165l-24-9.6v-26.584h-16v25.752l-48,12V47.264l88,36.416V165z M298.528,40.648v136.168
		v32v70.512l-48-19.864V20.784L298.528,40.648z M18.528,262.744l168-51.128v63.28l-8,2.432v-28.512c0-2.568-1.232-4.992-3.32-6.488
		c-2.104-1.512-4.784-1.912-7.208-1.104l-48,16c-3.272,1.096-5.472,4.144-5.472,7.592V296.8l-16,4.872v-28.856
		c0-2.568-1.232-4.984-3.32-6.488c-2.096-1.504-4.776-1.912-7.208-1.104l-48,16c-3.272,1.096-5.472,4.144-5.472,7.592v32.336
		l-16,4.864V262.744z M18.528,349.512l168,80.344v30.264l-71.968-34.424h-0.008l-96.024-45.92V349.512z M354.528,395.544
		l-152,65.144v-30.592l152-65.144V395.544z"/>
	<path style="fill:#2D2D2D;" d="M26.528,224.816c0.848,0,1.704-0.136,2.528-0.408l144-48c3.272-1.096,5.472-4.144,5.472-7.592v-96
		c0-2.568-1.232-4.984-3.32-6.488c-2.104-1.504-4.784-1.92-7.208-1.104l-144,48c-3.272,1.096-5.472,4.144-5.472,7.592v96
		c0,2.568,1.232,4.984,3.32,6.488C23.232,224.304,24.872,224.816,26.528,224.816z M34.528,126.584l128-42.664v79.136l-128,42.664
		V126.584z"/>
	<path style="fill:#2D2D2D;" d="M104.36,143.664l-19.304-6.44c-2.344-0.768-4.912-0.432-6.968,0.936l-24,16l8.872,13.312
		l20.744-13.832l20.288,6.76c2.872,0.96,6.048,0.2,8.184-1.936l32-32l-11.312-11.312L104.36,143.664z"/>
</g>
<g>
</g>
<g>
</g>
<g>
</g>
<g>
</g>
<g>
</g>
<g>
</g>
<g>
</g>
<g>
</g>
<g>
</g>
<g>
</g>
<g>
</g>
<g>
</g>
<g>
</g>
<g>
</g>
<g>
</g>
</svg>
