<svg id="Capa_1" enable-background="new 0 0 512 512" height="512" viewBox="0 0 512 512" width="512" xmlns="http://www.w3.org/2000/svg"><path d="m283.274 68.11h-141.422v-40.61c0-11.046 8.954-20 20-20h101.423c11.046 0 20 8.954 20 20v40.61z" fill="#fcee56"/><path d="m263.071 7.5h-22.224c11.158 0 20.203 9.045 20.203 20.203v40.407h22.224v-40.407c0-11.158-9.045-20.203-20.203-20.203z" fill="#f3d802"/><path d="m-5.632 110.537h436.39v351.537h-436.39z" fill="#8f818f" transform="matrix(0 1 -1 0 498.868 73.742)"/><path d="m358.026 68.11h30.305v436.39h-30.305z" fill="#786e79"/><path d="m67.1 98.415h290.927v406.085h-290.927z" fill="#daf3f8"/><path d="m67.1 98.415h290.927v34.346h-290.927z" fill="#97e4f9"/><path d="m475.205 233.776-30.305-50.508-30.304 50.508z" fill="#fb636f"/><path d="m475.205 278.224-30.305 50.508-30.304-50.508z" fill="#fb636f"/><path d="m388.331 60.61h-97.557v-32.907c0-15.275-12.427-27.703-27.703-27.703h-101.016c-15.275 0-27.703 12.428-27.703 27.703v32.907h-97.557c-4.143 0-7.5 3.358-7.5 7.5v436.39c0 4.142 3.357 7.5 7.5 7.5h351.536c4.143 0 7.5-3.358 7.5-7.5v-332.937c0-4.142-3.357-7.5-7.5-7.5s-7.5 3.358-7.5 7.5v325.437h-15.305v-398.585c0-4.142-3.357-7.5-7.5-7.5h-290.926c-4.143 0-7.5 3.358-7.5 7.5v148.169c0 4.142 3.357 7.5 7.5 7.5s7.5-3.358 7.5-7.5v-106.324h130.464v356.74h-130.464v-215.375c0-4.142-3.357-7.5-7.5-7.5s-7.5 3.358-7.5 7.5v215.375h-15.305v-421.39h336.536v60.974c0 4.142 3.357 7.5 7.5 7.5s7.5-3.358 7.5-7.5v-68.474c0-4.142-3.357-7.5-7.5-7.5zm-313.731 45.305h275.927v19.346h-275.927zm145.464 34.345h130.463v356.74h-130.463zm-70.712-112.557c0-7.004 5.698-12.703 12.703-12.703h101.017c7.005 0 12.703 5.699 12.703 12.703v32.907h-126.423z"/><path d="m248.929 30.305h-18.183c-4.143 0-7.5 3.358-7.5 7.5s3.357 7.5 7.5 7.5h18.183c4.143 0 7.5-3.358 7.5-7.5s-3.358-7.5-7.5-7.5z"/><path d="m194.38 30.305h-18.183c-4.143 0-7.5 3.358-7.5 7.5s3.357 7.5 7.5 7.5h18.183c4.143 0 7.5-3.358 7.5-7.5s-3.357-7.5-7.5-7.5z"/><path d="m414.596 241.276h60.609c2.702 0 5.195-1.454 6.526-3.805 1.331-2.352 1.295-5.237-.095-7.554l-30.305-50.508c-1.355-2.259-3.797-3.641-6.432-3.641s-5.076 1.382-6.432 3.641l-30.305 50.508c-1.39 2.317-1.426 5.203-.095 7.554 1.333 2.352 3.827 3.805 6.529 3.805zm30.304-43.43 17.059 28.431h-34.117z"/><path d="m475.205 270.724h-60.609c-2.702 0-5.195 1.454-6.526 3.805-1.331 2.352-1.295 5.237.095 7.554l30.305 50.508c1.355 2.259 3.797 3.641 6.432 3.641s5.076-1.382 6.432-3.641l30.305-50.508c1.39-2.317 1.426-5.203.095-7.554-1.334-2.352-3.827-3.805-6.529-3.805zm-30.305 43.43-17.059-28.431h34.117z"/></svg>