<svg height="512" viewBox="0 0 96 96" width="512" xmlns="http://www.w3.org/2000/svg"><g id="Sauce_Kechap_Mayonaise" data-name="Sauce/Kechap/Mayonaise"><path d="m19.99 1h24.56v35.42h-24.56z" fill="#e7e8e8"/><path d="m19.99 30.87h24.56v5.55h-24.56z" fill="#3078dd"/><path d="m78.69 85.18h15.49v4.8h-15.49z" fill="#ba603d"/><path d="m35.62 85.18h19.64v4.8h-19.64z" fill="#ba603d"/><path d="m1.82 85.18h10.37v4.8h-10.37z" fill="#ba603d"/><path d="m77.13 36.42h17.05v4.8h-17.05z" fill="#ba603d"/><path d="m43.47 36.42h10.23v4.8h-10.23z" fill="#ba603d"/><path d="m1.82 36.42h18.22v4.8h-18.22z" fill="#ba603d"/><path d="m12.2 85.18h23.42v9.82h-23.42z" fill="#30affb"/><path d="m55.26 85.18h23.42v9.82h-23.42z" fill="#30affb"/><path d="m4.28 1h24.56v35.42h-24.56z" fill="#e7e8e8"/><path d="m4.28 1h24.56v3.98h-24.56z" fill="#fff"/><path d="m4.28 30.87h24.56v5.55h-24.56z" fill="#3078dd"/><path d="m20.05 36.42h23.42v9.82h-23.42z" fill="#30affb"/><path d="m53.7 36.42h23.42v9.82h-23.42z" fill="#30affb"/><path d="m13.56 55.25h-7v1.27a2.91 2.91 0 0 1 -1.17 2.34l-2.39 1.82a2.91 2.91 0 0 0 -1.18 2.32v19.8a2.38 2.38 0 0 0 2.39 2.38h11.7a2.38 2.38 0 0 0 2.38-2.38v-19.8a2.93 2.93 0 0 0 -1.16-2.34l-2.41-1.82c-1.35-1-1.16-2.38-1.16-3.59z" fill="#f9a959"/><path d="m14.49 61.61-9.77 10.82a11.18 11.18 0 0 0 -2.9 7.57v2.8a2.38 2.38 0 0 0 2.39 2.38h11.7a2.38 2.38 0 0 0 2.38-2.38c0-27.06 0-17.88 0-19.83a2.18 2.18 0 0 0 -3.8-1.36z" fill="#f98b45"/><path d="m5.4 58.86-2.4 1.82a3 3 0 0 0 -1.18 2.32v2.84a.92.92 0 0 0 1.83 0v-2.84a1.09 1.09 0 0 1 .44-.88c2.47-1.85 2.91-2.05 3.45-2.89a.92.92 0 0 0 -.35-1.34.89.89 0 0 0 -1.14.29 3.48 3.48 0 0 1 -.65.68z" fill="#f9d677"/><path d="m16.46 77.25a6.11 6.11 0 0 1 -6.1 6.1h-3.94a2.77 2.77 0 0 1 -2.77-2.76v-.32a.92.92 0 0 0 -.88-.92.92.92 0 0 0 -.95.92v2.53a2.39 2.39 0 0 0 2.39 2.38h11.7a2.39 2.39 0 0 0 2.38-2.38v-6.55a.91.91 0 0 0 -.87-.92.92.92 0 0 0 -1 .92z" fill="#f95936"/><rect fill="#d87956" height="4.33" rx="1.08" width="8.77" x="5.67" y="50.92"/><rect fill="#fb9c56" height="4.33" rx="1.08" width="5.27" x="5.67" y="50.92"/><path d="m9 52.42h-1.34a.67.67 0 1 0 0 1.33h1.34a.67.67 0 0 0 0-1.33z" fill="#fff"/><rect fill="#d87956" height="14.16" rx="1.46" width="10.47" x="4.82" y="63.48"/><rect fill="#ec9c74" height="7.08" rx="1.46" width="5.93" x="7.09" y="65.44"/><rect fill="#ec9c74" height="1.93" rx=".96" width="5.93" x="7.09" y="73.4"/><path d="m30 55.25h-7v1.27a2.91 2.91 0 0 1 -1.17 2.34l-2.41 1.82a2.93 2.93 0 0 0 -1.13 2.32v19.8a2.38 2.38 0 0 0 2.39 2.38h11.7a2.38 2.38 0 0 0 2.38-2.38v-19.8a2.93 2.93 0 0 0 -1.16-2.34l-2.41-1.82c-1.35-1-1.19-2.38-1.19-3.59z" fill="#f9a959"/><path d="m31 61.61-9.82 10.82a11.22 11.22 0 0 0 -2.89 7.57v2.8a2.38 2.38 0 0 0 2.39 2.38h11.7a2.38 2.38 0 0 0 2.38-2.38c0-27.06 0-17.88 0-19.83a2.18 2.18 0 0 0 -3.76-1.36z" fill="#f98b45"/><path d="m21.87 58.86-2.42 1.82a3 3 0 0 0 -1.16 2.32v2.84a.92.92 0 0 0 1.83 0v-2.84a1.09 1.09 0 0 1 .44-.88c2.44-1.85 2.87-2.05 3.44-2.89a.92.92 0 0 0 -.35-1.34.89.89 0 0 0 -1.14.29 3.48 3.48 0 0 1 -.64.68z" fill="#f9d677"/><path d="m32.93 77.25a6.11 6.11 0 0 1 -6.1 6.1h-3.95a2.77 2.77 0 0 1 -2.76-2.76v-.32a.92.92 0 0 0 -.88-.92.92.92 0 0 0 -.95.92v2.53a2.39 2.39 0 0 0 2.39 2.38h11.7a2.39 2.39 0 0 0 2.38-2.38v-6.55a.91.91 0 0 0 -.87-.92.92.92 0 0 0 -1 .92z" fill="#f95936"/><rect fill="#d87956" height="4.33" rx="1.08" width="8.77" x="22.14" y="50.92"/><rect fill="#fb9c56" height="4.33" rx="1.08" width="5.27" x="22.14" y="50.92"/><path d="m25.42 52.42h-1.3a.67.67 0 0 0 0 1.33h1.3a.67.67 0 1 0 0-1.33z" fill="#fff"/><rect fill="#d87956" height="14.16" rx="1.46" width="10.47" x="21.29" y="63.48"/><rect fill="#ec9c74" height="7.08" rx="1.46" width="5.93" x="23.56" y="65.44"/><rect fill="#ec9c74" height="1.93" rx=".96" width="5.93" x="23.56" y="73.4"/><path d="m46.53 55.25h-7v1.27a2.91 2.91 0 0 1 -1.17 2.34l-2.36 1.82a2.93 2.93 0 0 0 -1.21 2.32v19.8a2.38 2.38 0 0 0 2.39 2.38h11.7a2.38 2.38 0 0 0 2.38-2.38v-19.8a2.93 2.93 0 0 0 -1.16-2.34l-2.41-1.82c-1.35-1-1.16-2.38-1.16-3.59z" fill="#f9a959"/><path d="m47.45 61.61-9.77 10.82a11.22 11.22 0 0 0 -2.89 7.57v2.8a2.38 2.38 0 0 0 2.39 2.38h11.7a2.38 2.38 0 0 0 2.38-2.38c0-27.06 0-17.88 0-19.83a2.18 2.18 0 0 0 -3.81-1.36z" fill="#f98b45"/><path d="m38.37 58.86-2.37 1.82a3 3 0 0 0 -1.21 2.32v2.84a.92.92 0 0 0 1.83 0v-2.84a1.09 1.09 0 0 1 .44-.88c2.47-1.87 2.87-2.07 3.45-2.91a.92.92 0 0 0 -.35-1.34.91.91 0 0 0 -1.15.29 3.16 3.16 0 0 1 -.64.7z" fill="#f9d677"/><path d="m49.43 77.25a6.11 6.11 0 0 1 -6.1 6.1h-3.95a2.77 2.77 0 0 1 -2.76-2.76v-.32a.92.92 0 0 0 -.88-.92.92.92 0 0 0 -1 .92v2.53a2.39 2.39 0 0 0 2.39 2.38h11.7a2.39 2.39 0 0 0 2.38-2.38v-6.55a.91.91 0 0 0 -.87-.92.92.92 0 0 0 -1 .92z" fill="#f95936"/><rect fill="#d87956" height="4.33" rx="1.08" width="8.77" x="38.64" y="50.92"/><rect fill="#fb9c56" height="4.33" rx="1.08" width="5.27" x="38.64" y="50.92"/><path d="m41.92 52.42h-1.3a.67.67 0 0 0 0 1.33h1.3a.67.67 0 1 0 0-1.33z" fill="#fff"/><rect fill="#d87956" height="14.16" rx="1.46" width="10.47" x="37.79" y="63.48"/><rect fill="#ec9c74" height="7.08" rx="1.46" width="5.93" x="40.06" y="65.44"/><rect fill="#ec9c74" height="1.93" rx=".96" width="5.93" x="40.06" y="73.4"/><path d="m64.82 36.42h-5.64a3.23 3.23 0 0 1 -3.18-3.42l1.12-15.09h9.84l1.04 15.09a3.23 3.23 0 0 1 -3.18 3.42z" fill="#43be9a"/><path d="m64.88 22.23v-.67a1.45 1.45 0 0 0 -1.45-1.34h-2.81a1.46 1.46 0 0 0 -1.45 1.34l-.05.67a1.67 1.67 0 0 0 1.67 1.77h2.42a1.67 1.67 0 0 0 1.67-1.77z" fill="#43e6b3"/><path d="m60.47 26.33a1.79 1.79 0 0 0 -1.78 1.67l-.38 5.14a.87.87 0 0 0 .87.94h5.64a.87.87 0 0 0 .87-.93l-.38-5.15a1.79 1.79 0 0 0 -1.78-1.65z" fill="#43e6b3"/><path d="m61.43 30.85v-3.56a1 1 0 0 0 -1-1 1.79 1.79 0 0 0 -1.74 1.71l-.21 2.79a1 1 0 0 0 1 1.08h.93a1 1 0 0 0 1.02-1.02z" fill="#fff"/><path d="m70.71 36.42h-5.89a3.23 3.23 0 0 0 3.18-3.42l-1.08-15.14h5.89l1.12 15.14a3.23 3.23 0 0 1 -3.22 3.42z" fill="#438786"/><rect fill="#b9baba" height="4.65" rx="1.44" width="17.99" x="55.95" y="13.21"/><rect fill="#e7e8e8" height="4.65" rx="1.44" width="12.38" x="55.95" y="13.21"/><path d="m73.71 9.64-1.38 3.57h-14.77l-1.38-3.57z" fill="#b9baba"/><path d="m67.88 9.64-1.38 3.57h-8.94l-1.38-3.57z" fill="#e7e8e8"/><path d="m73.71 8.08v1.56h-17.53v-1.56a3.1 3.1 0 0 1 3.11-3.08h11.31a3.1 3.1 0 0 1 3.11 3.08z" fill="#d87956"/><path d="m67.6 8.08v1.56h-11.42v-1.56a3.1 3.1 0 0 1 3.11-3.08h5.2a3.1 3.1 0 0 1 3.11 3.08z" fill="#fb9c56"/><path d="m63.24 8.07h-2.7c-.86 0-.58-1.52.5-1.52h1.7c1.09 0 1.35 1.52.5 1.52z" fill="#fff"/><path d="m78.63 36.42h-5.63a3.23 3.23 0 0 1 -3.22-3.42l1.12-15.14h9.84l1.11 15.14a3.22 3.22 0 0 1 -3.22 3.42z" fill="#43be9a"/><path d="m78.7 22.23v-.67a1.46 1.46 0 0 0 -1.45-1.34h-2.81a1.44 1.44 0 0 0 -1.44 1.34v.67a1.66 1.66 0 0 0 1.61 1.77h2.39a1.67 1.67 0 0 0 1.7-1.77z" fill="#43e6b3"/><path d="m74.28 26.33a1.78 1.78 0 0 0 -1.77 1.67l-.39 5.14a.88.88 0 0 0 .88.94h5.63a.86.86 0 0 0 .87-.93l-.38-5.15a1.78 1.78 0 0 0 -1.77-1.65z" fill="#43e6b3"/><path d="m75.25 30.85v-3.56a1 1 0 0 0 -1-1 1.77 1.77 0 0 0 -1.74 1.71l-.21 2.79a1 1 0 0 0 1 1.08h.94a1 1 0 0 0 1.01-1.02z" fill="#fff"/><path d="m84.52 36.42h-5.89a3.22 3.22 0 0 0 3.22-3.42l-1.11-15.14h5.88l1.12 15.14a3.23 3.23 0 0 1 -3.22 3.42z" fill="#438786"/><rect fill="#b9baba" height="4.65" rx="1.44" width="17.99" x="69.77" y="13.21"/><rect fill="#e7e8e8" height="4.65" rx="1.44" width="12.38" x="69.77" y="13.21"/><path d="m87.53 9.64-1.38 3.57h-14.77l-1.38-3.57z" fill="#b9baba"/><path d="m81.69 9.64-1.37 3.57h-8.94l-1.38-3.57z" fill="#e7e8e8"/><path d="m87.53 8.08v1.56h-17.53v-1.56a3.1 3.1 0 0 1 3.1-3.08h11.32a3.1 3.1 0 0 1 3.11 3.08z" fill="#d87956"/><path d="m81.41 8.08v1.56h-11.41v-1.56a3.1 3.1 0 0 1 3.1-3.08h5.21a3.1 3.1 0 0 1 3.1 3.08z" fill="#fb9c56"/><path d="m77.06 8.07h-2.71c-.85 0-.57-1.52.51-1.52h1.69c1.1 0 1.35 1.52.51 1.52z" fill="#fff"/><path d="m86 81.3a3.87 3.87 0 0 1 -3.88 3.88h-7.37a3.88 3.88 0 0 1 -3.88-3.88v-3.37a17.86 17.86 0 0 1 3.29-10.32l1.07-1.5 3.55 3.54a3.06 3.06 0 0 0 4.32 0l.53-.53c2.63 4.62 2.37 8.32 2.37 12.18z" fill="#ff3d57"/><path d="m74.75 82.92a1.62 1.62 0 0 1 -1.62-1.62c0-3.69-.22-6.23 1.37-9.75a1.56 1.56 0 0 1 2.5-.46 5.4 5.4 0 0 0 4.91 1.63 1 1 0 0 1 1.09.65 15.59 15.59 0 0 1 .68 4.56v3.37a1.61 1.61 0 0 1 -1.62 1.62z" fill="#ff747f"/><path d="m73.13 78.63v.71a1 1 0 0 0 1 1h.76a1 1 0 0 0 1-1v-.71a.52.52 0 0 0 -.52-.52h-1.72a.52.52 0 0 0 -.52.52z" fill="#fff"/><path d="m73.6 76.91h2a.4.4 0 0 0 0-.79h-2a.4.4 0 0 0 0 .79z" fill="#fff"/><path d="m76.33 74.6c.09-.39.18-.78.3-1.17a1 1 0 0 0 -1-1.32h-.54a1.09 1.09 0 0 0 -1.09.69c-.17.5-.31 1-.43 1.51a.68.68 0 0 0 .66.83h1.44a.67.67 0 0 0 .66-.54z" fill="#fff"/><path d="m91 81.3a3.88 3.88 0 0 1 -3.88 3.88h-5a3.87 3.87 0 0 0 3.88-3.88v-3.37a17.86 17.86 0 0 0 -3.29-10.32c-1.29-1.8-.8-1.12-2.13-3a10.45 10.45 0 0 1 -1.93-6.06v-1.2h5v1.2c0 3.86 1.76 5.81 4.06 9 3.66 5.2 3.29 9.74 3.29 13.75z" fill="#e62943"/><path d="m79.77 70.31c-.73-.3-.69-.36-4.54-4.2l1.06-1.49a10.46 10.46 0 0 0 1.94-6.06v-1.2h3.09a11.37 11.37 0 0 0 1.06 5.77c1.73 3.48-1.19 6.61-2.61 7.18z" fill="#f9d67c"/><path d="m79 67.22-.75-.76a1 1 0 0 1 -.12-1.2 12.43 12.43 0 0 0 1.25-2.5.42.42 0 0 1 .79 0c.59 1.56 1.42 2.45.36 4.28a1 1 0 0 1 -1.53.18z" fill="#fff"/><path d="m86.64 66.11-3.54 3.54a3.05 3.05 0 0 1 -3.33.66 3 3 0 0 0 1-.66l.59-.59a5.17 5.17 0 0 0 1-5.93 11.35 11.35 0 0 1 -1.06-5.77h2.33v1.2c.02 3.58 1.61 5.58 3.01 7.55z" fill="#f9a959"/><path d="m78.22 53.9h5.43v3.45h-5.43z" fill="#3082ec"/><path d="m78.22 53.9h3.45v3.45h-3.45z" fill="#30b9f6"/><rect fill="#f9a959" height="4.18" rx="2.05" width="5.58" x="78.15" y="49.72"/><rect fill="#f9d67c" height="4.18" rx="1.73" width="3.53" x="78.15" y="49.72"/><path d="m79.64 52.29v-1c0-.11.13-.19.28-.19h.74c.15 0 .27.09.27.2v1c0 .1-.12.19-.27.19h-.74c-.16 0-.29-.09-.28-.2z" fill="#fff"/><path d="m75.15 81.3a3.87 3.87 0 0 1 -3.88 3.88h-7.33a3.87 3.87 0 0 1 -3.88-3.88v-3.37a17.86 17.86 0 0 1 3.29-10.32l1.07-1.5 3.58 3.54a3.06 3.06 0 0 0 4.32 0l.53-.53c2.6 4.62 2.3 8.32 2.3 12.18z" fill="#ff3d57"/><path d="m63.94 82.92a1.62 1.62 0 0 1 -1.62-1.62c0-3.69-.22-6.23 1.37-9.75a1.55 1.55 0 0 1 2.51-.46 5.43 5.43 0 0 0 4.92 1.63.94.94 0 0 1 1.08.65 15.28 15.28 0 0 1 .69 4.56v3.37a1.62 1.62 0 0 1 -1.62 1.62z" fill="#ff747f"/><path d="m62.32 78.63v.71a1 1 0 0 0 1 1h.75a1 1 0 0 0 1-1v-.71a.52.52 0 0 0 -.52-.52h-1.71a.52.52 0 0 0 -.52.52z" fill="#fff"/><path d="m62.79 76.91h2a.4.4 0 0 0 0-.79h-2a.4.4 0 0 0 0 .79z" fill="#fff"/><path d="m65.52 74.6q.12-.59.3-1.17a1 1 0 0 0 -1-1.32h-.54a1.09 1.09 0 0 0 -1.09.69c-.17.5-.31 1-.43 1.51a.68.68 0 0 0 .66.83h1.44a.67.67 0 0 0 .66-.54z" fill="#fff"/><path d="m80.2 81.3a3.88 3.88 0 0 1 -3.89 3.88h-5a3.87 3.87 0 0 0 3.88-3.88v-3.37a17.86 17.86 0 0 0 -3.29-10.32c-1.29-1.8-.8-1.12-2.13-3a10.45 10.45 0 0 1 -1.93-6.06v-1.2h5v1.2c0 3.86 1.76 5.81 4.06 9 3.66 5.2 3.3 9.74 3.3 13.75z" fill="#e62943"/><path d="m69 70.31c-.74-.3-.69-.36-4.54-4.2l1.06-1.49a10.46 10.46 0 0 0 1.94-6.06v-1.2h3.09a11.37 11.37 0 0 0 1.06 5.77c1.69 3.48-1.23 6.61-2.61 7.18z" fill="#f9d67c"/><path d="m68.19 67.22-.75-.76a1 1 0 0 1 -.12-1.2 12.43 12.43 0 0 0 1.25-2.5.42.42 0 0 1 .79 0c.59 1.56 1.42 2.45.36 4.28a1 1 0 0 1 -1.53.18z" fill="#fff"/><path d="m75.83 66.11-3.54 3.54a3.05 3.05 0 0 1 -3.33.66 3.05 3.05 0 0 0 1-.66l.58-.59a5.16 5.16 0 0 0 1-5.93 11.25 11.25 0 0 1 -1.06-5.77h2.33v1.2c.03 3.58 1.62 5.58 3.02 7.55z" fill="#f9a959"/><path d="m67.41 53.9h5.43v3.45h-5.43z" fill="#3082ec"/><path d="m67.41 53.9h3.45v3.45h-3.45z" fill="#30b9f6"/><rect fill="#f9a959" height="4.18" rx="2.05" width="5.58" x="67.34" y="49.72"/><rect fill="#f9d67c" height="4.18" rx="1.73" width="3.53" x="67.34" y="49.72"/><path d="m68.83 52.29v-1c0-.11.13-.19.28-.19h.73c.16 0 .28.09.28.2v1c0 .1-.12.19-.28.19h-.74c-.1 0-.28-.09-.27-.2z" fill="#fff"/><g fill="#302d3d"><path d="m94.18 84.18h-3.13a4.77 4.77 0 0 0 1-2.88c0-4.22.34-8.9-3.48-14.27l-1-1.37c-1.8-2.4-2.89-4.21-2.89-7.09 0-5 0-4.8-.07-5 .2-.49.15-.78.15-2.68a2.14 2.14 0 0 0 -2.14-2.14h-3.3a2.14 2.14 0 0 0 -2.14 2.14c0 2-.05 2.2.14 2.67-.11.33-.06.16-.06 3.93 0 3-.33 4.22-1.39 6a4.6 4.6 0 0 0 -.3.47 9.54 9.54 0 0 1 -1.47-3.16c-.35-1.49-.26-2-.26-6.9a.86.86 0 0 0 -.07-.36c.2-.49.15-.78.15-2.68a2.14 2.14 0 0 0 -2.14-2.14h-3.31a2.14 2.14 0 0 0 -2.13 2.14c0 2 0 2.2.14 2.67-.1.29-.07.06-.07 3.83 0 4.87-.86 5.43-3.87 9.67a18.68 18.68 0 0 0 -3.48 10.9v3.37a4.77 4.77 0 0 0 1 2.88h-8.06c.42-.94.3.29.3-21.16a4 4 0 0 0 -1.56-3.14l-2.41-1.82a1.93 1.93 0 0 1 -.76-1.54v-.65a2.09 2.09 0 0 0 .88-1.7v-2.17a2.08 2.08 0 0 0 -2.08-2.08h-6.65a2.08 2.08 0 0 0 -2.08 2.08v2.17a2.08 2.08 0 0 0 .89 1.71v.64a1.94 1.94 0 0 1 -.77 1.54 20.36 20.36 0 0 0 -3 2.36 21 21 0 0 0 -3-2.36 1.93 1.93 0 0 1 -.76-1.54v-.65a2.09 2.09 0 0 0 .88-1.7v-2.17a2.08 2.08 0 0 0 -2.08-2.08h-6.58a2.08 2.08 0 0 0 -2.08 2.08v2.17a2.08 2.08 0 0 0 .86 1.71v.64a1.94 1.94 0 0 1 -.77 1.54l-2.41 1.82c-.9.68-.21.69-1.12 0l-2.41-1.82a1.93 1.93 0 0 1 -.76-1.54v-.64a2.11 2.11 0 0 0 .88-1.71v-2.17a2.08 2.08 0 0 0 -2.07-2.08h-6.59a2.08 2.08 0 0 0 -2.08 2.08v2.17a2.08 2.08 0 0 0 .89 1.71v.64a1.94 1.94 0 0 1 -.77 1.54l-2.41 1.82a4 4 0 0 0 -1.56 3.12c0 21.34-.17 20.33.4 21.36a1 1 0 0 0 -.4.8v4.84a1 1 0 0 0 1 1h9.38v4a1 1 0 0 0 1 1h23.42a1 1 0 0 0 1-1v-4h17.64v4a1 1 0 0 0 1 1h23.43a1 1 0 0 0 1-1v-4h14.49a1 1 0 0 0 1-1v-4.8a1 1 0 0 0 -1-1.02zm-4.18-2.88a2.89 2.89 0 0 1 -2.89 2.88h-6.87a3.79 3.79 0 0 0 .48-.79h2.28a1 1 0 0 0 0-2h-1.81c0-3.69.23-6.23-1.14-10a4 4 0 0 0 3.76-1.08l2.7-2.71c3.87 5.4 3.49 9.11 3.49 13.7zm-10.78-26.4h3.43v1.46h-3.43zm-.07-4a.14.14 0 0 1 .14-.14h3.3a.14.14 0 0 1 .14.14v1.91c0 .19 0 .13-3.44.13a.13.13 0 0 1 -.14-.13zm.08 7.5h3.42a11.73 11.73 0 0 0 2.68 7.6l-2.94 2.93a2 2 0 0 1 -2.91 0 13.88 13.88 0 0 1 -2.72-3.24 11.52 11.52 0 0 0 2.47-7.33zm-10.82-3.5h3.43v1.46h-3.43zm-.07-4a.13.13 0 0 1 .13-.14h3.31a.14.14 0 0 1 .14.14v1.91c0 .19 0 .13-3.45.13a.13.13 0 0 1 -.13-.13zm.08 7.5h3.42a11.17 11.17 0 0 0 1 4.86 15.09 15.09 0 0 0 1.47 2.48 14.27 14.27 0 0 1 -2.73 3.24 2 2 0 0 1 -2.91 0l-2.93-2.98a11.89 11.89 0 0 0 2.68-7.64zm-7.36 22.9c0-5.72-.07-8.71 3.5-13.65l2.7 2.71a4 4 0 0 0 3.74 1.08c1.57-.35 2.08-1.21 4.52-3.62l.94 1c2.92 4.47 2.72 8 2.72 12.62h-.36a1 1 0 0 0 -.44 1.89 2.89 2.89 0 0 1 -2.09.9h-12.35a2.88 2.88 0 0 1 -2.88-2.93zm-21.34-29.38c7 0 6.69 0 6.69.08 0 2.18 0 2.25-.06 2.25-7 0-6.71 0-6.71-.08 0-2.33-.03-2.25.08-2.25zm-3.93 11.08a1.94 1.94 0 0 1 .77-1.54l2.44-1.8a4 4 0 0 0 1.56-3.14v-.27h5v.27a4 4 0 0 0 1.56 3.14l2.41 1.82a1.93 1.93 0 0 1 .73 1.52v19.8a1.38 1.38 0 0 1 -1.38 1.38h-11.7a1.38 1.38 0 0 1 -1.39-1.38zm-12.57-11.08c7 0 6.69 0 6.69.08 0 2.18 0 2.25-.06 2.25-7 0-6.71 0-6.71-.08 0-2.33-.03-2.25.08-2.25zm-3.16 9.56 2.41-1.82a4 4 0 0 0 1.53-3.14v-.27h5v.27a4 4 0 0 0 1.56 3.14l2.44 1.82a1.93 1.93 0 0 1 .76 1.52v19.8a1.38 1.38 0 0 1 -1.38 1.38h-11.7a1.39 1.39 0 0 1 -1.39-1.38v-19.8a1.94 1.94 0 0 1 .77-1.52zm-13.31-9.56c7 0 6.69 0 6.69.08v2.25c-7.1 0-6.72 0-6.72-.08-.05-2.33-.08-2.25.03-2.25zm-3.93 11.08a1.94 1.94 0 0 1 .77-1.54l2.41-1.8a4 4 0 0 0 1.56-3.14v-.27h5v.27a4 4 0 0 0 1.56 3.14l2.41 1.82a1.93 1.93 0 0 1 .76 1.52v19.8a1.38 1.38 0 0 1 -1.38 1.38h-11.7a1.39 1.39 0 0 1 -1.39-1.38zm0 26v-2.8h8.38v2.8zm31.8 5h-21.42v-7.82h21.42zm2-5v-2.8h17.64v2.8zm41.07 5h-21.43v-7.82h21.43zm15.49-5h-13.49v-2.8h13.49z"/><path d="m94.18 35.42h-6.07a4.16 4.16 0 0 0 .63-2.54c-.86-11.6.19 2.69-1.07-14.42a2.46 2.46 0 0 0 1.08-2v-1.81a2.44 2.44 0 0 0 -1.26-2.14l1-2.5a1.26 1.26 0 0 0 .05-.56 5.66 5.66 0 0 0 -5.68-5.45h-8.2a5.5 5.5 0 0 0 -2.81.76 5.44 5.44 0 0 0 -2.8-.76h-8.21a5.67 5.67 0 0 0 -5.66 5.66c0 .24 0 .11 1 2.86a2.47 2.47 0 0 0 -1.18 2.13v1.78a2.46 2.46 0 0 0 1.08 2l-1.08 14.45a4.16 4.16 0 0 0 .63 2.54h-10v-34.42a1 1 0 0 0 -1-1h-40.35a1 1 0 0 0 -1 1v34.42h-1.46a1 1 0 0 0 -1 1v4.8a1 1 0 0 0 1 1h17.23v4a1 1 0 0 0 1 1h23.42a1 1 0 0 0 1-1v-4h8.23v4a1 1 0 0 0 1 1h23.43a1 1 0 0 0 1-1v-4h16.05a1 1 0 0 0 1-1v-4.8a1 1 0 0 0 -1-1zm-21.18 0a2.23 2.23 0 0 1 -2.23-2.42l.71-9.42h7.28a1 1 0 0 0 0-2h-7.14l.21-2.74h13.87l.2 2.74h-3.75a1 1 0 0 0 0 2h3.9c.09.92-.25-3.35.7 9.42a2.23 2.23 0 0 1 -2.23 2.39zm-16-19v-1.77a.44.44 0 0 1 .44-.44h11.37a14.14 14.14 0 0 0 0 2.22 2.12 2.12 0 0 0 0 .44h-11.42a.44.44 0 0 1 -.39-.44zm.69-5.79h11.62l.6 1.57h-11.66zm28.43 0-.61 1.57h-13.45c-.26-.68-.13-.33-.6-1.57zm.25 3.57a.44.44 0 0 1 .43.44v1.78a.44.44 0 0 1 -.43.44h-15.17a.44.44 0 0 1 -.43-.44v-1.77a.44.44 0 0 1 .43-.44zm-11.71-8.2h8.2a3.64 3.64 0 0 1 3.52 2.66h-15.24a3.66 3.66 0 0 1 3.52-2.66zm-13.82 0c9 0 8.59-.07 9.36.19a5.34 5.34 0 0 0 -1.1 2.47h-11.78a3.66 3.66 0 0 1 3.52-2.66zm-3.84 27c.95-12.83.61-8.51.7-9.42h7.3a1 1 0 0 0 0-2h-7.19l.2-2.74h11.81l-.2 2.74h-1.29a1 1 0 0 0 0 2h1.14l-.69 9.27a4.16 4.16 0 0 0 .63 2.54h-10.23a2.22 2.22 0 0 1 -2.18-2.39zm-13.53 2.42h-13.63v-3.55h13.71c0 3.94.04 3.55-.08 3.55zm.08-5.55h-13.71v-1.81h6.36a1 1 0 0 0 0-2h-6.36v-2.73c5.75 1.87 11.7-2.27 11.7-8.06s-5.95-9.93-11.7-8.06v-5.21h4.58v.29a3.15 3.15 0 1 0 6.3 0v-.29h2.83zm-13.71-20.52c4.44-2 9.7 1.14 9.7 5.92s-5.26 7.88-9.7 5.92zm8.88-7.35v.29a1.15 1.15 0 1 1 -2.3 0v-.29zm-15.72 0v.29a1.14 1.14 0 0 1 -2 .71v-1zm-4.3 0a3.36 3.36 0 0 0 .3 1.58 3.15 3.15 0 0 0 6-1.29v-.29h2.83v24.21a1 1 0 0 0 0 1.69v2h-22.55v-27.9zm-13.42 29.87h22.56v3.55h-22.56zm-2.46 8.35v-2.8h16.23v2.8zm39.65 5h-21.42v-7.8h21.42zm2-5c0-3.12 0-2.8.08-2.8h8.15v2.8zm31.66 5h-21.43v-7.8h21.43zm17.05-5h-15.05v-2.8h15.05z"/><path d="m6.28 78.64h7.55a2.46 2.46 0 0 0 2.46-2.46v-11.24a2.46 2.46 0 0 0 -2.46-2.46h-7.55a2.46 2.46 0 0 0 -2.45 2.46v11.24a2.46 2.46 0 0 0 2.45 2.46zm-.45-13.7a.46.46 0 0 1 .45-.46h7.55a.46.46 0 0 1 .46.46v11.24a.45.45 0 0 1 -.46.46h-7.55a.45.45 0 0 1 -.45-.46z"/><path d="m22.75 78.64h7.55a2.46 2.46 0 0 0 2.46-2.46v-11.24a2.46 2.46 0 0 0 -2.46-2.46h-7.55a2.47 2.47 0 0 0 -2.46 2.46v11.24a2.46 2.46 0 0 0 2.46 2.46zm-.46-13.7a.47.47 0 0 1 .46-.46h7.55a.47.47 0 0 1 .46.46v11.24a.46.46 0 0 1 -.46.46h-7.55a.46.46 0 0 1 -.46-.46z"/><path d="m39.25 78.64h7.55a2.46 2.46 0 0 0 2.46-2.46v-11.24a2.46 2.46 0 0 0 -2.46-2.46h-7.55a2.47 2.47 0 0 0 -2.46 2.46v11.24a2.46 2.46 0 0 0 2.46 2.46zm-.46-13.7a.47.47 0 0 1 .46-.46h7.55a.47.47 0 0 1 .46.46v11.24a.46.46 0 0 1 -.46.46h-7.55a.46.46 0 0 1 -.46-.46z"/><path d="m87.61 76.94a1 1 0 0 0 2-.18 16.78 16.78 0 0 0 -1.61-5.93 1 1 0 1 0 -1.79.88 14.83 14.83 0 0 1 1.4 5.23z"/><path d="m76.8 76.94a1 1 0 0 0 1 .91 1 1 0 0 0 1-1.09 16.77 16.77 0 0 0 -1.65-5.93 1 1 0 0 0 -1.34-.46 1 1 0 0 0 -.46 1.34 14.64 14.64 0 0 1 1.45 5.23z"/><path d="m72.66 83.29a1 1 0 0 0 -.43-1.9h-4.23a1 1 0 0 0 0 2c4.54 0 4.35.04 4.66-.1z"/><path d="m27.57 87.72h-6.3a1 1 0 1 0 0 2h6.3a1 1 0 0 0 0-2z"/><path d="m24.67 90.91h-3.4a1 1 0 1 0 0 2h3.4a1 1 0 0 0 0-2z"/><path d="m70.13 87.72h-6.31a1 1 0 1 0 0 2h6.31a1 1 0 0 0 0-2z"/><path d="m67.22 90.91h-3.4a1 1 0 1 0 0 2h3.4a1 1 0 0 0 0-2z"/><path d="m17 23.78a8.71 8.71 0 0 0 8.86-8.39 8.6 8.6 0 0 0 -6.86-8.39 8.78 8.78 0 0 0 -10.89 8.27 8.7 8.7 0 0 0 8.89 8.51zm0-15a6.69 6.69 0 0 1 6.85 6.63 6.57 6.57 0 0 1 -4.85 6.08c-4.35 1.29-8.88-1.81-8.88-6.22a6.69 6.69 0 0 1 6.88-6.51z"/><path d="m21 26.2c-.33-.2.22-.14-8.36-.14a1 1 0 1 0 0 2c8.58 0 8 .05 8.36-.14a1 1 0 0 0 0-1.72z"/><path d="m35.42 39h-6.3a1 1 0 1 0 0 2h6.3a1 1 0 0 0 0-2z"/><path d="m32.52 42.15h-3.4a1 1 0 1 0 0 2h3.4a1 1 0 0 0 0-2z"/><path d="m69.08 39h-6.3a1 1 0 0 0 0 2h6.3a1 1 0 0 0 0-2z"/><path d="m66.17 42.15h-3.39a1 1 0 0 0 0 2h3.39a1 1 0 0 0 0-2z"/></g></g></svg>