<svg height="512pt" viewBox="0 -6 512 512" width="512pt" xmlns="http://www.w3.org/2000/svg"><path d="m27.851562 45.339844h456.296876v416h-456.296876zm0 0" fill="#e7886e"/><path d="m484.148438 431.339844h-456.296876c-11.238281 0-20.351562 9.113281-20.351562 20.351562v29.242188c0 6.089844 4.9375 11.027344 11.027344 11.027344h474.945312c6.089844 0 11.027344-4.9375 11.027344-11.027344v-29.242188c0-11.238281-9.113281-20.351562-20.351562-20.351562zm0 0" fill="#f7e477"/><path d="m37.5 480.933594v-29.242188c0-11.238281 9.113281-20.351562 20.351562-20.351562h-30c-11.238281 0-20.351562 9.113281-20.351562 20.351562v29.242188c0 6.089844 4.9375 11.027344 11.027344 11.027344h30c-6.089844 0-11.027344-4.9375-11.027344-11.027344zm0 0" fill="#f2be63"/><path d="m484.148438 45.339844h-456.296876v78.160156c9.015626 3.867188 18.933594 6.015625 29.347657 6.015625 19.066406 0 36.488281-7.179687 49.699219-18.980469 13.214843 11.800782 30.632812 18.980469 49.703124 18.980469 19.066407 0 36.484376-7.179687 49.699219-18.980469 13.210938 11.800782 30.632813 18.980469 49.699219 18.980469s36.488281-7.179687 49.699219-18.980469c13.214843 11.800782 30.636719 18.980469 49.699219 18.980469 19.066406 0 36.488281-7.179687 49.703124-18.980469 13.210938 11.800782 30.632813 18.980469 49.699219 18.980469 10.414063 0 20.332031-2.152344 29.347657-6.015625zm0 0" fill="#dc6742"/><path d="m439.148438 211.839844v-166.5h-366.296876v166.5l8.871094 21.5-8.871094 21.5v131.5h366.296876v-131.5l-6.757813-23zm0 0" fill="#a4e6ff"/><path d="m220.699219 134.839844h-86.234375c-10.472656 0-18.964844 8.492187-18.964844 18.964844v78.035156h124.167969v-78.035156c0-10.472657-8.492188-18.964844-18.96875-18.964844zm0 0" fill="#f7e477"/><path d="m164.464844 134.839844h-30c-10.472656 0-18.964844 8.492187-18.964844 18.964844v78.035156h30v-78.035156c0-10.472657 8.492188-18.964844 18.964844-18.964844zm0 0" fill="#f2be63"/><path d="m391.371094 159.574219c-4.613282-11.621094-15.855469-19.234375-28.359375-19.234375h-39.023438c-12.503906 0-23.742187 7.613281-28.359375 19.234375-6.15625 15.492187-12.214844 40-8.628906 72.265625h113c3.585938-32.265625-2.472656-56.773438-8.628906-72.265625zm0 0" fill="#2ecdf9"/><path d="m325.628906 159.574219c4.613282-11.621094 15.855469-19.234375 28.359375-19.234375h-30c-12.503906 0-23.746093 7.613281-28.359375 19.234375-6.15625 15.492187-12.214844 40-8.628906 72.265625h30c-3.585938-32.265625 2.472656-56.773438 8.628906-72.265625zm0 0" fill="#00b4fb"/><path d="m72.851562 211.839844h366.296876v43h-366.296876zm0 0" fill="#dc6742"/><path d="m372.757812 299.222656h-104.777343c-15.636719 0-28.316407 12.675782-28.316407 28.3125v58.804688h161.40625v-58.804688c0-15.636718-12.675781-28.3125-28.3125-28.3125zm0 0" fill="#809ce4"/><path d="m297.980469 299.222656h-30c-15.636719 0-28.316407 12.675782-28.316407 28.3125v58.804688h30v-58.804688c.003907-15.636718 12.679688-28.3125 28.316407-28.3125zm0 0" fill="#6382d4"/><path d="m185.152344 290.308594-27.34375 6.425781c-24.785156 5.824219-42.308594 27.9375-42.308594 53.398437v36.207032h90.800781v-79.273438c0-11.097656-10.347656-19.296875-21.148437-16.757812zm0 0" fill="#36d39a"/><path d="m174.277344 292.863281-16.46875 3.871094c-24.785156 5.824219-42.308594 27.9375-42.308594 53.398437v36.207032h30v-36.207032c0-20.519531 11.386719-45.351562 28.777344-57.269531zm0 0" fill="#00b661"/><path d="m72.851562 127.84375c12.886719-2.757812 24.554688-8.832031 34.050782-17.308594 13.210937 11.800782 30.632812 18.980469 49.699218 18.980469 19.066407 0 36.488282-7.179687 49.699219-18.980469 13.214844 11.800782 30.632813 18.980469 49.699219 18.980469s36.488281-7.179687 49.699219-18.980469c13.214843 11.800782 30.636719 18.980469 49.703125 18.980469s36.484375-7.179687 49.699218-18.980469c9.492188 8.476563 21.164063 14.550782 34.046876 17.308594v-82.503906h-366.296876zm0 0" fill="#2ecdf9"/><g fill="#ff9bca"><path d="m305.699219 7.5h-99.398438l-24.898437 25.839844 24.898437 21.472656c0 27.449219 22.25 49.703125 49.699219 49.703125s49.699219-22.253906 49.699219-49.703125l23.96875-23.65625zm0 0"/><path d="m106.898438 7.5h-81.65625c-9.796876 0-17.742188 7.945312-17.742188 17.742188v29.570312c0 27.449219 22.25 49.703125 49.699219 49.703125s49.699219-22.253906 49.699219-49.703125l19.972656-22.140625zm0 0"/><path d="m405.101562 7.5h81.65625c9.796876 0 17.742188 7.945312 17.742188 17.742188v29.570312c0 27.449219-22.25 49.703125-49.699219 49.703125s-49.699219-22.253906-49.699219-49.703125l-19.972656-22.140625zm0 0"/></g><path d="m106.898438 7.5v47.3125c0 27.449219 22.253906 49.703125 49.703124 49.703125 27.449219 0 49.699219-22.253906 49.699219-49.703125v-47.3125zm0 0" fill="#ff71a7"/><path d="m305.699219 7.5v47.3125c0 27.449219 22.25 49.703125 49.699219 49.703125 27.449218 0 49.703124-22.253906 49.703124-49.703125v-47.3125zm0 0" fill="#ff71a7"/><path d="m25.242188 0c-13.917969 0-25.242188 11.324219-25.242188 25.242188v29.570312c0 17.511719 7.917969 33.203125 20.351562 43.703125v65.707031c0 4.140625 3.359376 7.5 7.5 7.5 4.140626 0 7.5-3.359375 7.5-7.5v-56.527344c4.210938 1.746094 8.617188 2.96875 13.152344 3.660157 5.570313.847656 11.269532.875 16.847656.074219v274.910156c0 4.140625 3.359376 7.5 7.5 7.5h366.296876c4.140624 0 7.5-3.359375 7.5-7.5v-274.910156c.757812.109374 1.519531.207031 2.285156.285156 9.382812.960937 19-.40625 27.714844-4.019532v193.191407c0 4.140625 3.359374 7.5 7.5 7.5 4.140624 0 7.5-3.359375 7.5-7.5v-202.371094c12.433593-10.5 20.351562-26.191406 20.351562-43.703125v-29.570312c0-13.917969-11.324219-25.242188-25.242188-25.242188zm406.40625 219.339844v28h-351.296876v-28zm-199.484376-15h-109.164062v-50.535156c0-6.320313 5.144531-11.464844 11.464844-11.464844h86.234375c6.324219 0 11.464843 5.144531 11.464843 11.464844zm61.519532 0c1.035156-18.570313 5.292968-32.882813 8.914062-42 3.5-8.808594 11.898438-14.5 21.390625-14.5h39.023438c9.496093 0 17.890625 5.691406 21.390625 14.5 3.621094 9.117187 7.878906 23.429687 8.914062 42zm114.640625 0c-1.066407-20.960938-5.882813-37.21875-9.980469-47.535156-5.785156-14.558594-19.652344-23.964844-35.332031-23.964844h-39.023438c-15.679687 0-29.546875 9.40625-35.332031 23.964844-4.097656 10.316406-8.914062 26.570312-9.980469 47.535156h-31.511719v-50.535156c0-14.589844-11.871093-26.464844-26.464843-26.464844h-86.234375c-14.59375 0-26.464844 11.875-26.464844 26.464844v50.535156h-27.648438v-97.21875c.417969-.183594.828126-.382813 1.238282-.574219 10.820312-5.089844 19.589844-13.332031 25.328125-23.40625.195312.339844.398437.671875.601562 1.007813.007813.019531.019531.035156.03125.054687 8.34375 13.972656 22.820313 24.035156 38.855469 26.894531 3.355469.597656 6.78125.917969 10.195312.917969 19.792969 0 38.871094-10.894531 49.0625-27.835937.214844-.355469.429688-.710938.636719-1.074219.277344.488281.5625.96875.855469 1.445312 10.234375 16.703125 29.238281 27.464844 48.84375 27.464844 18.589844 0 36.65625-9.542969 47.222656-24.96875.875-1.277344 1.710938-2.59375 2.476563-3.9375.207031.355469 1.632812 2.683594 2.160156 3.46875 10.417969 15.542969 28.714844 25.4375 47.542969 25.4375 18.410156 0 36.542968-9.523437 47.066406-24.742187.296875-.425782 2.492188-3.917969 2.617188-4.132813 5.738281 10.078125 14.507812 18.320313 25.332031 23.410156.410156.191407.816406.390625 1.230469.570313v97.21875zm-10.722657-149.527344c0 22.871094-19.328124 42.203125-42.203124 42.203125-22.863282 0-42.199219-19.195313-42.199219-42.210937v-39.804688h84.402343zm-99.402343 0c0 22.824219-19.394531 42.203125-42.199219 42.203125-19.632812 0-36.179688-13.480469-40.867188-31.667969-.871093-3.367187-1.332031-6.898437-1.332031-10.535156v-39.8125h84.398438zm-99.398438 0c0 23.269531-18.933593 42.203125-42.199219 42.203125-2.148437 0-4.296874-.164063-6.417968-.488281-20.234375-3.101563-35.785156-20.625-35.785156-41.714844v-39.8125h84.402343zm-183.800781 0v-29.570312c0-5.648438 4.59375-10.242188 10.242188-10.242188h74.15625v39.816406c0 19.417969-14.289063 36.882813-33.15625 41.179688-25.914063 5.902344-51.242188-14.78125-51.242188-41.183594zm108 324.027344v-28.707032c0-22.089843 15.019531-41.046874 36.523438-46.097656l27.34375-6.425781c6.007812-1.410156 11.933593 3.269531 11.933593 9.457031v71.773438zm124.164062 0v-51.304688c0-11.476562 9.339844-20.8125 20.816407-20.8125h104.777343c11.476563 0 20.8125 9.335938 20.8125 20.8125v51.304688zm161.40625 0v-51.304688c0-19.746094-16.0625-35.8125-35.8125-35.8125h-104.777343c-19.75 0-35.816407 16.0625-35.816407 35.8125v51.304688h-18.363281s0-71.699219 0-71.773438c0-15.574218-15.214843-27.617187-30.367187-24.058594l-27.339844 6.421876c-28.316406 6.65625-48.09375 31.617187-48.09375 60.703124v28.707032h-27.648438v-116.5h351.296876v116.5zm88.429688-324.027344c0 22.867188-19.371094 42.203125-42.199219 42.203125-22.695312 0-42.199219-19.234375-42.199219-42.203125v-39.8125h74.15625c5.648438 0 10.242188 4.59375 10.242188 10.242188zm0 0"/><path d="m491.648438 424.875v-93.988281c0-4.140625-3.359376-7.5-7.5-7.5-4.140626 0-7.5 3.359375-7.5 7.5v92.953125h-441.296876v-229.617188c0-4.144531-3.359374-7.5-7.5-7.5-4.140624 0-7.5 3.355469-7.5 7.5v230.652344c-11.722656 3.28125-20.351562 14.058594-20.351562 26.816406v29.242188c0 10.214844 8.3125 18.527344 18.527344 18.527344h474.945312c10.214844 0 18.527344-8.3125 18.527344-18.527344v-29.242188c0-12.757812-8.628906-23.53125-20.351562-26.816406zm5.351562 56.058594c0 1.945312-1.582031 3.527344-3.527344 3.527344h-474.945312c-1.945313 0-3.527344-1.582032-3.527344-3.527344v-29.242188c0-7.085937 5.765625-12.851562 12.851562-12.851562h456.296876c7.085937 0 12.851562 5.765625 12.851562 12.851562zm0 0"/></svg>