<svg id="Capa_1" enable-background="new 0 0 512 512" height="512" viewBox="0 0 512 512" width="512" xmlns="http://www.w3.org/2000/svg"><g><g><path clip-rule="evenodd" d="m198.142 141.568c-8.809 6.057-11.182 18.315-5.005 27.058l28.314 40.087c5.606 7.686 9.095 7.686 18.189 7.715h30.23l16.416-25.515-16.502-14.801-22.794.114c-1.201 0-1.344 0-2.059-1.029l-19.705-28.63c-6.063-8.799-18.247-11.056-27.084-4.999z" fill="#fed1a3" fill-rule="evenodd"/></g><g><path clip-rule="evenodd" d="m418.73 338.976-21.421 16.886 5.005 25.715-.343.857c-3.089 8.057-1.573 40.802 15.186 40.802l4.976 7.2 4.748-7.2 21.135-56.859c2.889-7.8 6.32-14.343-1.859-17.344z" fill="#fd8087" fill-rule="evenodd"/></g><g><path clip-rule="evenodd" d="m355.668 256.544c-31.173 6.943-61.718 26.687-53.824 56.917l15.873 32.858c2.202 4.514 4.719 7.8 11.526 10.143l73.072 25.115 16.416-42.602-44.73-14.915c-5.577-1.857-5.977-3.743-7.093-9.543l-2.974-15.343z" fill="#d6dcea" fill-rule="evenodd"/></g><g><path clip-rule="evenodd" d="m355.668 256.544c-26.026-16.915-53.882-21.572-85.713 0l-34.434 33.63c-5.577 5.457-9.552 12.658-9.552 22.087v13.229 57.488l21.736 16.086 22.107-16.086-.172-39.402c0-11.315-1.802-11.115 7.808-16.486l24.395-13.629c13.9-7.972 48.849-23.201 53.825-56.917z" fill="#f8f2f0" fill-rule="evenodd"/></g><g><path clip-rule="evenodd" d="m269.784 176.112.057 23.515.029 16.801.086 40.116h85.713l10.153-51.145c-22.794-4.829 12.784-31.916-6.835-43.402l-18.447-26.544-24.195-13.286-20.82 13.629z" fill="#fd8087" fill-rule="evenodd"/></g><g><path clip-rule="evenodd" d="m225.969 382.978c-10.267 0-36.665 12.143-35.549 40.259l35.835 17.658 43.643-17.658-.086-39.573v-.686z" fill="#fd8087" fill-rule="evenodd"/></g><g><path clip-rule="evenodd" d="m275.79 49.422c-8.809 9.686-14.214 22.544-14.214 36.63 0 22.172 15.329 41.259 33.948 49.745 6.606 3 13.642 4.657 20.534 4.657 9.495 0 17.617-1.772 24.481-5 12.126-5.657 20.391-15.743 25.682-28.201 0 0-9.781-55.488-40.611-57.831-13.956-1.058-37.351 8.314-49.82 0z" fill="#fed1a3" fill-rule="evenodd"/></g><g><path clip-rule="evenodd" d="m266.695 11.506c-9.524 17.572-3.146 29.801 9.095 37.916 12.469 8.315 31.059 12.343 45.016 13.401 30.83 2.343 45.416 44.43 45.416 44.43 13.299-40.202 4.176-72.117-27.999-83.489-18.619-6.601-38.438 4.2-71.528-12.258z" fill="#609ecf" fill-rule="evenodd"/></g><g><path clip-rule="evenodd" d="m279.908 303.489-24.367 13.601c-9.638 5.4-7.836 5.172-7.808 16.486l.172 49.402h21.907l-.172-39.402c0-11.315-1.802-11.115 7.808-16.486l24.395-13.629c13.899-7.972 48.848-23.201 53.824-56.917h-32.804c-9.579 26.83-30.486 39.802-42.955 46.945z" fill="#d6dcea" fill-rule="evenodd"/></g><g fill="#609ecf"><path clip-rule="evenodd" d="m54.944 181.112v185.236l20.792 21.83 20.763-21.83v-161.663l-20.763-24.573z" fill-rule="evenodd"/><path d="m75.74 399.055-28.295-29.706v-195.383l31.63-1.522 24.924 29.497v167.405zm-13.296-35.706 13.288 13.951 13.267-13.948v-155.923l-16.602-19.648-9.953.479z"/></g><g><path clip-rule="evenodd" d="m38.7 131.825c-9.524-5.4-22.165-2.286-28.113 6.915-5.949 9.229-3.003 21.172 6.521 26.572l27.856 15.801 41.527 23.572 35.12 19.915c9.524 5.4 22.165 2.286 28.085-6.943 5.949-9.2 3.003-21.172-6.521-26.572z" fill="#f8f2f0" fill-rule="evenodd"/></g><g><path clip-rule="evenodd" d="m54.944 186.798v27.201l13.184 7.829c9.781 5.543 7.064 4.286 7.607 13.629v130.891h20.763v-155.977l-10.01-5.686z" fill="#1c74bb" fill-rule="evenodd"/></g><g><path clip-rule="evenodd" d="m126.243 181.484c9.524 5.4 12.469 17.344 6.521 26.572-5.92 9.2-18.561 12.315-28.085 6.943l16.931 9.6c9.524 5.4 22.165 2.286 28.085-6.943 5.949-9.2 3.003-21.172-6.521-26.572z" fill="#d6dcea" fill-rule="evenodd"/></g><g><path clip-rule="evenodd" d="m347.489 313.203 8.208 19.658c1.144 5.8 5.634 7.686 11.211 9.543l44.758 14.915 7.064-18.344-44.73-14.915c-5.577-1.857-5.977-3.743-7.093-9.543l-2.974-15.343-8.265-42.63c-1.201 8.172-4.176 15.286-8.179 21.429-12.498 19.258-35.12 29.458-45.645 35.487l6.721 13.915c10.525-4.743 15.186-6.515 27.255-14.772 7.465-5.143 9.724-9.457 11.669.6z" fill="#92bcde" fill-rule="evenodd"/></g><g><path clip-rule="evenodd" d="m326.354 215.314c0 9.572-.543 18.915-1.573 27.973-.515 4.486-1.173 8.915-1.916 13.258h8.408 24.395l10.153-51.145c-1.659-.343-3.032-.829-4.118-1.4l-14.042-4.8c-10.153-3.457-15.615-14.572-12.155-24.687 3.318-9.743 13.671-15.143 23.48-12.515l-18.447-26.544c-6.864 3.229-14.986 5-24.481 5-.629 0-1.258 0-1.888-.029 7.722 21.772 12.184 47.402 12.184 74.889z" fill="#fe636e" fill-rule="evenodd"/></g><g><path clip-rule="evenodd" d="m144.089 423.236-29.972 38.63 29.972 38.63h321.745c21.249 0 38.667-17.372 38.667-38.63 0-21.229-17.417-38.63-38.667-38.63-79.964 0-159.9 0-239.836 0-27.313 0-54.596 0-81.909 0z" fill="#609ecf" fill-rule="evenodd"/></g><g><path clip-rule="evenodd" d="m144.089 484.296v16.201h321.745c21.249 0 38.667-17.372 38.667-38.63 0-8.858-3.032-17.058-8.122-23.572 3.832 21.572-2.774 46.002-38.009 46.002h-314.281z" fill="#1c74bb" fill-rule="evenodd"/></g><g><path clip-rule="evenodd" d="m54.944 366.348h-33.375c-5.291 0-9.638 4.343-9.638 9.629v114.89c0 5.315 4.347 9.629 9.638 9.629h122.52v-38.63-38.63-10.629c0-25.43-20.849-46.259-46.303-46.259h-1.287z" fill="#f8f2f0" fill-rule="evenodd"/></g><g><path clip-rule="evenodd" d="m96.499 366.348h-29.657c8.58 0 16.616 2.372 23.509 6.457 2.174 1.286 4.233 2.743 6.149 4.343 10.153 8.515 16.645 21.258 16.645 35.459v87.889h30.945c0-29.287 0-58.574 0-87.889 0-25.43-20.849-46.259-46.303-46.259z" fill="#d6dcea" fill-rule="evenodd"/></g><g><path clip-rule="evenodd" d="m247.905 383.663.029 15.229.057 24.344h21.907l-.086-39.573v-.685h-21.907z" fill="#fe636e" fill-rule="evenodd"/></g><g><path clip-rule="evenodd" d="m418.73 338.976-7.064 18.344-.114.257 35.206 12.115 1.258-3.314c2.889-7.8 6.32-14.343-1.859-17.344z" fill="#fe636e" fill-rule="evenodd"/></g><g><path clip-rule="evenodd" d="m337.536 68.451c1.745 30.716-6.664 51.145-27.227 71.631 1.287.171 2.574.286 3.861.343.629.029 1.258.029 1.888.029 9.495 0 17.617-1.772 24.481-5 12.126-5.657 20.391-15.743 25.682-28.201 0-.001-9.266-26.802-28.685-38.802z" fill="#ffbc85" fill-rule="evenodd"/></g><g><path clip-rule="evenodd" d="m303.76 22.306c15.472 5.457 25.625 15.715 30.516 29.315 1.83 5.143 2.917 10.772 3.26 16.829 19.419 12 28.685 38.802 28.685 38.802 13.299-40.202 4.176-72.117-27.999-83.489-11.869-4.2-24.195-1.343-40.182-2.972 1.945.344 3.833.858 5.72 1.515z" fill="#1c74bb" fill-rule="evenodd"/></g><g><path clip-rule="evenodd" d="m347.66 199.199c-10.153-3.457-15.615-14.572-12.155-24.687 3.318-9.743 13.671-15.143 23.48-12.515.4.086.829.229 1.23.371l51.193 17.429c7.579 2.6 12.87 9.686 13.184 17.658v17.686 33.144c0 10.743-9.066 19.429-19.734 19.372-10.725-.029-19.276-8.829-19.276-19.544v-32.573c0-1.943.486-3.257-1.201-3.829l-18.561-6.315z" fill="#fed1a3" fill-rule="evenodd"/></g><g><path clip-rule="evenodd" d="m193.137 168.626 28.314 40.087c5.606 7.686 9.095 7.686 18.189 7.715h30.23l-.029-16.001h-20.22c-9.095 0-12.584-.029-18.161-7.715l-28.314-40.087c-2.574-3.629-3.661-7.857-3.432-12.029-.543.314-1.058.629-1.573.971-8.808 6.058-11.181 18.316-5.004 27.059z" fill="#ffbc85" fill-rule="evenodd"/></g><g><path clip-rule="evenodd" d="m335.506 174.512c-3.461 10.115 2.002 21.229 12.155 24.687l14.042 4.8 4.118 1.4 18.561 6.315c1.687.571 1.201 1.886 1.201 3.829v32.573c0 10.715 8.551 19.515 19.276 19.544 7.808.029 14.757-4.629 17.932-11.343-1.001.171-2.002.229-3.032.229-10.725-.029-19.276-8.829-19.276-19.515v-32.601c0-1.914.515-3.229-1.173-3.8l-18.561-6.343-18.189-6.2c-.629-.2-1.23-.457-1.83-.714-8.952-4.086-13.556-14.458-10.324-23.972.229-.657.458-1.257.744-1.857-7.007 1.025-13.213 5.825-15.644 12.968z" fill="#ffbc85" fill-rule="evenodd"/></g><g><path d="m465.834 415.736h-28.112c-.025 0-.042-.025-.034-.048l17.36-46.707c.253-.684.511-1.357.764-2.02 2.067-5.409 4.411-11.54 1.751-17.386-1.576-3.463-4.545-6.014-8.824-7.583l-27.427-10.057c-.033-.012-.066-.019-.099-.031-.038-.013-.073-.031-.111-.043l-44.732-14.916c-.685-.228-1.114-.406-1.369-.527-.009-.004-.013-.01-.016-.019-.222-.745-.5-2.193-.715-3.31l-10.959-56.523c0-.005 0-.009 0-.014l8.191-41.26c.004-.021.026-.034.047-.027l6.509 2.219c.015.005.024.019.024.034v30.597c0 14.872 12.003 27.003 26.736 27.043h.14c7.118 0 14.111-2.898 19.205-7.965 5.113-5.086 7.93-11.802 7.93-18.908v-50.83c0-.099-.002-.197-.006-.297-.437-11.033-7.768-20.861-18.261-24.46l-50.12-17.064c-.007-.002-.014-.007-.018-.013l-12.306-17.708c-.011-.016-.007-.038.009-.049 9.322-6.366 16.618-15.635 21.733-27.68.072-.17.133-.343.192-.516.007-.021.018-.039.025-.06.006-.018.011-.035.017-.053.005-.016.01-.032.015-.047 7.093-21.492 8.146-41.238 3.04-57.107-5.482-17.045-17.825-29.392-35.686-35.705-8.48-3.007-16.757-2.936-25.522-2.863-12.434.105-26.545.224-45.171-9.04-3.619-1.802-8.009-.41-9.933 3.142-8.772 16.185-6.822 31.365 5.135 42.674.013.012.015.031.005.045-7.238 10.36-11.166 22.668-11.166 35.399 0 20.697 12.074 40.876 30.753 52.493.017.01.022.032.011.049l-19.168 30.023c-.007.01-.018.016-.03.017l-16.05.081c-.012 0-.023-.006-.03-.016l-18.16-26.384c-8.422-12.224-25.246-15.332-37.51-6.926-5.993 4.122-10.002 10.356-11.287 17.556-1.266 7.09.3 14.196 4.406 20.008l28.314 40.088c.021.03.044.062.066.093 7.835 10.742 14.693 10.764 24.249 10.795h22.71c.02 0 .036.016.036.036l.063 29.413c0 .01-.004.019-.011.026l-32.157 31.406c-.002.001-.003.003-.005.005-7.835 7.666-11.807 16.9-11.807 27.447v64.281c0 .016-.01.03-.026.034-7.261 1.907-15.974 6.358-23.054 13.724-6.844 7.12-10.958 15.796-12.138 25.405-.002.018-.017.031-.035.031h-31.592c-.02 0-.036-.016-.036-.036v-3.093c0-27.532-20.825-50.283-47.559-53.385-.018-.002-.031-.017-.031-.035v-135.895c0-.027.03-.045.054-.031l13.858 7.862c4.319 2.449 9.096 3.612 13.843 3.612 9.5-.001 18.883-4.661 24.238-13.008 4.009-6.199 5.262-13.502 3.53-20.564-1.733-7.064-6.225-12.962-12.648-16.604l-104.473-59.261c-12.936-7.334-30.031-3.132-38.115 9.376-4.006 6.214-5.257 13.523-3.52 20.581 1.735 7.051 6.225 12.939 12.643 16.578l34.02 19.301c.011.006.018.018.018.031v73.687c0 4.126 3.179 7.739 7.303 7.845 4.232.108 7.697-3.289 7.697-7.497v-65.484c0-.027.03-.045.054-.031l26.483 15.025c.011.006.018.018.018.031v144.07c0 .02-.016.036-.036.036h-26.484c-.02 0-.036-.016-.036-.036v-56.406c0-4.126-3.179-7.739-7.303-7.845-4.232-.108-7.697 3.289-7.697 7.497v56.753c0 .02-.016.036-.036.036h-25.803c-9.485 0-17.174 7.689-17.174 17.174v114.809c0 9.48 7.685 17.164 17.164 17.164h122.494 321.745c25.457 0 46.166-20.694 46.166-46.13s-20.71-46.129-46.166-46.129zm-226.21-206.807c-8.562-.027-8.754-.028-12.081-4.589l-28.282-40.042c-1.774-2.512-2.446-5.607-1.891-8.718.574-3.22 2.357-6.002 5.011-7.826 5.45-3.737 12.928-2.358 16.667 3.066l19.724 28.659c2.595 3.732 5.483 4.247 8.255 4.247l15.237-.076c.02 0 .036.016.036.036l.054 25.207c0 .02-.016.036-.036.036zm-224.295-57.256c-.74-3.009-.186-6.159 1.557-8.862 2.532-3.917 7.094-6.127 11.646-6.127 2.239 0 4.476.535 6.468 1.664l104.475 59.26s0 0 .001.001c2.794 1.584 4.74 4.116 5.479 7.13.737 3.01.185 6.151-1.572 8.869-3.753 5.85-12.031 7.894-18.071 4.47l-104.505-59.29c-2.795-1.585-4.74-4.111-5.478-7.115zm428.308 204.548c-.322 1.428-1.205 3.737-1.834 5.386-.271.71-.548 1.433-.816 2.157l-19.309 51.949c-.005.014-.019.023-.034.023h-4.486c-.766 0-2.359 0-4.285-2.801-5.186-7.543-5.434-23.704-3.913-27.778l.317-.793c.012-.03.023-.061.035-.09l13.752-35.684c.007-.018.027-.027.046-.021l20.437 7.493c.033.06.056.1.09.159zm-72.008-25.045 37.244 12.419c.019.006.029.028.022.047l-3.071 7.97-7.896 20.491c-.007.018-.027.027-.045.021l-66.199-22.754c-4.497-1.548-5.655-3.12-7.214-6.314l-12.762-26.419c-.008-.017-.002-.037.014-.046 11.84-6.426 29.947-16.604 41.389-33.52.018-.026.058-.018.064.013l6.369 32.85c1.184 6.163 2.304 11.985 12.085 15.242zm-17.677-162.343c1.023 0 2.061.133 3.093.408.074.02.125.033.179.046.007.002.013.003.02.005.029.007.056.013.095.021.115.031.232.075.345.115.038.014.076.027.114.04l51.177 17.423c4.624 1.587 7.872 5.889 8.118 10.731v50.663c0 3.085-1.246 6.023-3.508 8.273-2.303 2.29-5.442 3.6-8.643 3.6-.021 0-.042 0-.063 0-6.505-.018-11.797-5.421-11.797-12.044v-32.574c0-.24.015-.466.025-.676.363-6.938-3.805-9.404-6.311-10.253l-36.713-12.512c-.002-.001-.005-.001-.007-.002-3.016-1.027-5.457-3.182-6.874-6.067-1.411-2.873-1.625-6.101-.599-9.102 1.681-4.929 6.34-8.095 11.349-8.095zm-83.431-147.31c.006-.021.03-.032.05-.024 18.362 7.553 32.849 7.434 44.761 7.331 7.728-.063 14.397-.12 20.391 2.004 26.288 9.292 30.347 31.968 28.413 51.109-.003.031-.041.043-.061.02-1.912-2.156-4.242-4.187-7.078-5.953-.003-.002-.005-.005-.008-.007-8.381-10.209-20.136-19.483-35.618-20.66-12.643-.958-30.165-4.656-41.421-12.163-.006-.004-.012-.007-.018-.011-9.036-5.99-12.084-12.831-9.411-21.646zm-1.445 64.528c0-9.656 2.981-19.002 8.489-26.865.021-.005.035-.009.056-.014 16.429 8.514 36.35 10.653 42.617 11.128 21.45 1.629 34.242 28.133 37.843 36.734.004.009.003.019-.001.028-4.915 10.213-11.873 17.472-20.732 21.604-6.048 2.845-13.211 4.287-21.29 4.287-5.662 0-11.69-1.378-17.423-3.981-14.714-6.706-29.559-22.578-29.559-42.921zm29.446 58.986c.009-.014.026-.02.041-.014 5.806 1.923 11.755 2.931 17.495 2.931 7.85 0 15.118-1.124 21.692-3.327.015-.005.031 0 .04.013l7.39 10.635c.013.019.005.045-.017.053-7.628 2.639-13.987 8.633-16.754 16.757-2.32 6.785-1.849 14.087 1.331 20.559 3.185 6.485 8.69 11.335 15.504 13.654l11.915 4.062c.017.006.027.023.024.041l-7.665 38.615c-.003.017-.018.029-.035.029h-72.006c-.02 0-.036-.016-.036-.036l-.151-70.703c0-.007.002-.014.006-.019zm-65.053 167.224c0-6.447 2.386-11.918 7.293-16.721l32.238-31.486c.007-.007.016-.01.025-.01h73.023c.025 0 .043.026.034.049-7.507 20.893-29.147 32.615-42.705 39.961-1.904 1.031-3.703 2.006-5.191 2.859l-24.396 13.63c-10.162 5.681-12.025 8.656-11.727 18.731.036 1.24.078 2.645.078 4.334l.139 31.833c0 .02-.016.036-.036.036h-28.738c-.02 0-.036-.016-.036-.036v-63.18zm-27.265 88.434c6.699-6.971 15.755-10.218 19.765-10.218h36.322c.02 0 .036.016.036.036l.055 25.188c0 .02-.016.036-.036.036h-63.906c-.023 0-.04-.021-.036-.043 1.041-5.658 3.651-10.682 7.8-14.999zm-186.774 90.127v-114.799c0-1.196.979-2.174 2.174-2.174h76.181c21.396 0 38.803 17.387 38.803 38.759v10.629 69.725c0 .02-.016.036-.036.036h-114.947c-1.196-.001-2.175-.98-2.175-2.176zm446.404 2.175h-314.209c-.02 0-.036-.016-.036-.036v-23.559c0-.02.016-.036.036-.036h314.748c4.126 0 7.739-3.179 7.845-7.303.108-4.232-3.289-7.697-7.497-7.697h-315.096c-.02 0-.036-.016-.036-.036v-23.559c0-.02.016-.036.036-.036h38.795 79.478 52.79c4.126 0 7.739-3.179 7.845-7.303.108-4.232-3.289-7.697-7.497-7.697h-45.618c-.02 0-.036-.016-.036-.036l-.07-32.037v-.687c0-.005-.001-.01-.001-.015 0 0 .001-.011.001-.017l-.172-39.369c0-1.878-.047-3.467-.085-4.744-.012-.427-.026-.871-.035-1.295-.021-.923.454-1.781 1.243-2.26 1.032-.627 2.228-1.296 2.844-1.639l17.413-9.729c.018-.01.041-.003.05.016l12.406 25.682c2.589 5.306 6.297 10.668 15.83 13.948l66.689 22.922c.016.005.026.02.024.037-.902 8.087-.119 19.835 3.881 29.174.01.023-.007.049-.032.049h-38.408c-4.126 0-7.739 3.179-7.845 7.303-.108 4.232 3.289 7.697 7.497 7.697h58.547 9.724 38.952c17.185 0 31.166 13.965 31.166 31.13-.001 17.167-13.982 31.132-31.167 31.132z"/><path d="m76.837 444.852h-14.953c-4.126 0-7.739 3.179-7.845 7.303-.108 4.232 3.289 7.697 7.497 7.697h14.954c4.126 0 7.739-3.179 7.845-7.303.108-4.233-3.29-7.697-7.498-7.697z"/><path d="m76.851 409.422h-14.981c-4.126 0-7.739 3.179-7.845 7.303-.108 4.232 3.289 7.697 7.497 7.697h14.981c4.126 0 7.739-3.179 7.845-7.303.109-4.233-3.289-7.697-7.497-7.697z"/></g></g></svg>