<svg id="Capa_1" enable-background="new 0 0 512 512" height="512" viewBox="0 0 512 512" width="512" xmlns="http://www.w3.org/2000/svg"><g><g><path d="m382.989 7.5h-253.978c-22.368 0-40.5 18.133-40.5 40.5v118.937h334.979v-118.937c-.001-22.367-18.133-40.5-40.501-40.5z" fill="#ececec"/><path d="m398.43 128.881h-284.86c-29.606 0-53.606 24-53.606 53.606v285.769h392.071v-285.769c0-29.606-24-53.606-53.605-53.606z" fill="#ff919e"/><path d="m281.05 317.492h-50.1c-13.829 0-25.04 11.211-25.04 25.04v125.724h100.18v-125.724c0-13.83-11.211-25.04-25.04-25.04z" fill="#6a647f"/><g fill="#ffea98"><path d="m143.842 317.492h-21.809c-10.045 0-18.188 8.143-18.188 18.188v43.752c0 10.045 8.143 18.188 18.188 18.188h21.809c10.045 0 18.188-8.143 18.188-18.188v-43.752c0-10.045-8.143-18.188-18.188-18.188z"/><path d="m143.842 186.863h-21.809c-10.045 0-18.188 8.143-18.188 18.188v43.752c0 10.045 8.143 18.188 18.188 18.188h21.809c10.045 0 18.188-8.143 18.188-18.188v-43.752c0-10.045-8.143-18.188-18.188-18.188z"/><path d="m266.904 186.863h-21.809c-10.045 0-18.188 8.143-18.188 18.188v43.752c0 10.045 8.143 18.188 18.188 18.188h21.809c10.045 0 18.188-8.143 18.188-18.188v-43.752c.001-10.045-8.142-18.188-18.188-18.188z"/><path d="m368.158 317.492h21.809c10.045 0 18.188 8.143 18.188 18.188v43.752c0 10.045-8.143 18.188-18.188 18.188h-21.809c-10.045 0-18.189-8.143-18.189-18.188v-43.752c.001-10.045 8.144-18.188 18.189-18.188z"/><path d="m368.158 186.863h21.809c10.045 0 18.188 8.143 18.188 18.188v43.752c0 10.045-8.143 18.188-18.188 18.188h-21.809c-10.045 0-18.189-8.143-18.189-18.188v-43.752c.001-10.045 8.144-18.188 18.189-18.188z"/></g><path d="m448.497 438.053h-384.994c-16.891 0-30.584 13.693-30.584 30.584v18.865c0 9.387 7.61 16.997 16.997 16.997h412.168c9.387 0 16.997-7.61 16.997-16.997v-18.865c0-16.891-13.693-30.584-30.584-30.584z" fill="#d7d6d9"/><path d="m81.442 285.619c0-56.739 14.345-110.125 39.602-156.737h-7.474c-29.606 0-53.606 24-53.606 53.605v285.769h76.709c-34.882-52.275-55.231-115.077-55.231-182.637z" fill="#ff737d"/><path d="m118.773 438.053h-55.27c-16.891 0-30.584 13.693-30.584 30.584v18.865c0 9.387 7.61 16.997 16.997 16.997h114.764c-17.879-20.099-33.333-42.398-45.907-66.446z" fill="#c5c4c9"/><path d="m123.282 216.483c0-9.833-.5-20.25 1.237-29.621h-2.487c-10.045 0-18.188 8.143-18.188 18.188v43.752c0 10.045 8.143 18.188 18.188 18.188h21.809c4.124 0 7.915-1.389 10.966-3.703-18.484-7.502-31.525-25.625-31.525-46.804z" fill="#f9d888"/><path d="m246.345 216.483c0-9.833-.5-20.25 1.237-29.621h-2.487c-10.045 0-18.188 8.143-18.188 18.188v43.752c0 10.045 8.143 18.188 18.188 18.188h21.809c4.124 0 7.915-1.389 10.966-3.703-18.484-7.502-31.525-25.625-31.525-46.804z" fill="#f9d888"/><path d="m369.408 216.483c0-9.833-.5-20.25 1.237-29.621h-2.487c-10.045 0-18.188 8.143-18.188 18.188v43.752c0 10.045 8.143 18.188 18.188 18.188h21.809c4.124 0 7.915-1.389 10.966-3.703-18.484-7.502-31.525-25.625-31.525-46.804z" fill="#f9d888"/><path d="m123.282 347.112c0-9.833-.5-20.25 1.237-29.621h-2.487c-10.045 0-18.188 8.143-18.188 18.188v43.752c0 10.045 8.143 18.188 18.188 18.188h21.809c4.124 0 7.915-1.389 10.966-3.703-18.484-7.502-31.525-25.625-31.525-46.804z" fill="#f9d888"/><path d="m369.408 347.112c0-9.833-.5-20.25 1.237-29.621h-2.487c-10.045 0-18.188 8.143-18.188 18.188v43.752c0 10.045 8.143 18.188 18.188 18.188h21.809c4.124 0 7.915-1.389 10.966-3.703-18.484-7.502-31.525-25.625-31.525-46.804z" fill="#f9d888"/></g><g><path d="m143.842 309.992h-21.809c-14.165 0-25.688 11.524-25.688 25.688v43.752c0 14.165 11.524 25.688 25.688 25.688h21.809c14.165 0 25.688-11.523 25.688-25.688v-43.752c0-14.164-11.524-25.688-25.688-25.688zm10.688 69.44c0 5.894-4.795 10.688-10.688 10.688h-21.809c-5.894 0-10.688-4.795-10.688-10.688v-43.752c0-5.894 4.795-10.688 10.688-10.688h21.809c5.894 0 10.688 4.795 10.688 10.688z"/><path d="m169.53 205.051c0-14.165-11.524-25.688-25.688-25.688h-21.809c-14.165 0-25.688 11.524-25.688 25.688v43.752c0 14.165 11.524 25.688 25.688 25.688h21.809c14.165 0 25.688-11.523 25.688-25.688zm-15 43.753c0 5.894-4.795 10.688-10.688 10.688h-21.809c-5.894 0-10.688-4.794-10.688-10.688v-43.752c0-5.894 4.795-10.688 10.688-10.688h21.809c5.894 0 10.688 4.795 10.688 10.688z"/><path d="m245.095 179.363c-14.165 0-25.688 11.524-25.688 25.688v43.752c0 14.165 11.524 25.688 25.688 25.688h21.809c14.165 0 25.688-11.523 25.688-25.688v-43.752c0-14.165-11.524-25.688-25.688-25.688zm32.498 25.688v43.752c0 5.894-4.795 10.688-10.688 10.688h-21.809c-5.894 0-10.688-4.794-10.688-10.688v-43.752c0-5.894 4.795-10.688 10.688-10.688h21.809c5.893 0 10.688 4.795 10.688 10.688z"/><path d="m389.967 309.992h-21.809c-14.165 0-25.688 11.524-25.688 25.688v43.752c0 14.165 11.524 25.688 25.688 25.688h21.809c14.165 0 25.688-11.523 25.688-25.688v-43.752c.001-14.164-11.523-25.688-25.688-25.688zm10.689 69.44c0 5.894-4.795 10.688-10.688 10.688h-21.809c-5.894 0-10.688-4.795-10.688-10.688v-43.752c0-5.894 4.795-10.688 10.688-10.688h21.809c5.894 0 10.688 4.795 10.688 10.688z"/><path d="m415.656 205.051c0-14.165-11.524-25.688-25.688-25.688h-21.809c-14.165 0-25.688 11.524-25.688 25.688v43.752c0 14.165 11.524 25.688 25.688 25.688h21.809c14.165 0 25.688-11.523 25.688-25.688zm-15 43.753c0 5.894-4.795 10.688-10.688 10.688h-21.809c-5.894 0-10.688-4.794-10.688-10.688v-43.752c0-5.894 4.795-10.688 10.688-10.688h21.809c5.894 0 10.688 4.795 10.688 10.688z"/><path d="m388.108 89.317c-3.777.021-8.511.04-12.37.046v-49.363c0-4.142-3.358-7.5-7.5-7.5s-7.5 3.358-7.5 7.5v56.816c0 3.652 2.631 6.774 6.23 7.392 1.604.275 17.874.127 21.224.108 4.142-.023 7.481-3.399 7.458-7.542-.023-4.141-3.413-7.516-7.542-7.457z"/><path d="m163.2 32.5c-4.142 0-7.5 3.358-7.5 7.5v19.957h-24.351v-19.957c0-4.142-3.358-7.5-7.5-7.5s-7.5 3.358-7.5 7.5v56.864c0 4.143 3.358 7.5 7.5 7.5s7.5-3.357 7.5-7.5v-21.906h24.351v21.907c0 4.143 3.358 7.5 7.5 7.5s7.5-3.357 7.5-7.5v-56.865c0-4.142-3.358-7.5-7.5-7.5z"/><path d="m341.465 48.02c4.142 0 7.5-3.358 7.5-7.5 0-4.143-3.358-7.5-7.5-7.5h-23.741c-4.142 0-7.5 3.357-7.5 7.5v56.345c0 4.143 3.358 7.5 7.5 7.5h23.741c4.142 0 7.5-3.357 7.5-7.5 0-4.142-3.358-7.5-7.5-7.5h-16.241v-13.173h14.491c4.142 0 7.5-3.358 7.5-7.5s-3.358-7.5-7.5-7.5h-14.491v-13.172z"/><path d="m291.663 32.5h-31.404c-4.142 0-7.5 3.358-7.5 7.5s3.358 7.5 7.5 7.5h8.139v49.364c0 4.143 3.358 7.5 7.5 7.5s7.5-3.357 7.5-7.5v-49.364h8.265c4.142 0 7.5-3.358 7.5-7.5s-3.358-7.5-7.5-7.5z"/><path d="m215.28 32.5c-19.813 0-35.932 16.119-35.932 35.933 0 19.813 16.119 35.932 35.932 35.932s35.932-16.119 35.932-35.932-16.119-35.933-35.932-35.933zm0 56.865c-11.542 0-20.932-9.39-20.932-20.932s9.39-20.933 20.932-20.933 20.932 9.39 20.932 20.933c0 11.542-9.39 20.932-20.932 20.932z"/><path d="m382.989 0h-253.978c-26.468 0-48 21.533-48 48v82.816c-17.135 10.836-28.546 29.94-28.546 51.67v152.849c0 4.142 3.358 7.5 7.5 7.5s7.5-3.358 7.5-7.5v-152.848c0-25.51 20.811-46.105 46.106-46.105h284.859c25.403 0 46.106 20.693 46.106 46.105v45.981c0 4.142 3.358 7.5 7.5 7.5s7.5-3.358 7.5-7.5v-45.981c0-21.73-11.411-40.834-28.546-51.67v-82.817c-.001-26.467-21.534-48-48.001-48zm-269.419 121.381c-5.754 0-11.821.867-17.56 2.58v-75.961c0-18.196 14.804-33 33-33h253.978c18.196 0 33 14.804 33 33v75.961c-5.78-1.725-11.831-2.58-17.56-2.58z"/><path d="m52.464 432.189c-15.633 4.744-27.046 19.286-27.046 36.448v18.865c0 13.508 10.99 24.497 24.498 24.497h412.168c13.508 0 24.498-10.99 24.498-24.497v-18.865c0-17.162-11.413-31.704-27.046-36.448v-173.721c0-4.142-3.358-7.5-7.5-7.5s-7.5 3.358-7.5 7.5v172.084h-130.946v-88.021c0-17.942-14.597-32.54-32.54-32.54h-50.1c-17.943 0-32.54 14.598-32.54 32.54v88.021h-130.946v-65.216c0-4.142-3.358-7.5-7.5-7.5s-7.5 3.358-7.5 7.5zm419.117 36.448v18.865c0 5.237-4.261 9.497-9.498 9.497h-412.167c-5.237 0-9.498-4.26-9.498-9.497v-18.865c0-11.821 8.932-21.589 20.4-22.924h.004c.939-.108 1.816-.161 2.681-.161h384.994c.864 0 1.741.052 2.681.161h.007c11.466 1.337 20.396 11.105 20.396 22.924zm-258.171-126.105c0-9.672 7.869-17.54 17.54-17.54h50.101c9.671 0 17.54 7.868 17.54 17.54v88.021h-85.181z"/></g></g></svg>