<svg id="Capa_1" enable-background="new 0 0 512 512" height="512" viewBox="0 0 512 512" width="512" xmlns="http://www.w3.org/2000/svg"><path d="m70.5 193v126c34.794 0 63-28.206 63-63s-28.206-63-63-63z" fill="#1d54bd"/><path d="m103.5 256c0-34.794-14.775-63-33-63-34.794 0-63 28.206-63 63s28.206 63 63 63c18.225 0 33-28.206 33-63z" fill="#487ed2"/><path d="m256 193v126c34.794 0 63-28.206 63-63s-28.206-63-63-63z" fill="#1d54bd"/><path d="m289 256c0-34.794-14.775-63-33-63-34.794 0-63 28.206-63 63s28.206 63 63 63c18.225 0 33-28.206 33-63z" fill="#487ed2"/><path d="m441.5 193v126c34.794 0 63-28.206 63-63s-28.206-63-63-63z" fill="#1d54bd"/><path d="m474.5 256c0-34.794-14.775-63-33-63-34.794 0-63 28.206-63 63s28.206 63 63 63c18.225 0 33-28.206 33-63z" fill="#487ed2"/><path d="m256 185.5c-38.874 0-70.5 31.626-70.5 70.5s31.626 70.5 70.5 70.5 70.5-31.626 70.5-70.5-31.626-70.5-70.5-70.5zm0 126c-30.603 0-55.5-24.897-55.5-55.5s24.897-55.5 55.5-55.5 55.5 24.897 55.5 55.5-24.897 55.5-55.5 55.5z"/><path d="m441.5 185.5c-38.874 0-70.5 31.626-70.5 70.5s31.626 70.5 70.5 70.5 70.5-31.626 70.5-70.5-31.626-70.5-70.5-70.5zm0 126c-30.603 0-55.5-24.897-55.5-55.5s24.897-55.5 55.5-55.5 55.5 24.897 55.5 55.5-24.897 55.5-55.5 55.5z"/><path d="m70.5 185.5c-12.924 0-25.567 3.53-36.561 10.21-3.54 2.151-4.666 6.765-2.515 10.305 2.15 3.54 6.764 4.663 10.304 2.516 8.646-5.254 18.595-8.03 28.772-8.03 30.603 0 55.5 24.897 55.5 55.5s-24.897 55.5-55.5 55.5-55.5-24.898-55.5-55.501c0-10.178 2.777-20.127 8.03-28.772 2.151-3.54 1.025-8.153-2.515-10.304s-8.153-1.024-10.304 2.515c-6.68 10.994-10.211 23.636-10.211 36.561 0 38.874 31.626 70.5 70.5 70.5s70.5-31.626 70.5-70.5-31.626-70.5-70.5-70.5z"/></svg>