<svg id="Layer_1" enable-background="new 0 0 511 511" viewBox="0 0 511 511" xmlns="http://www.w3.org/2000/svg"><g><g><path d="m157.5 7.5h346v496h-346z" fill="#fff"/><path d="m157.5 7.5h25v496h-25z" fill="#e3e9ee"/><path d="m7.5 7.5h150v496h-150z" fill="#dca2e4"/><path d="m157.5 277.5h316v30h-316z" fill="#e3e9ee"/><path d="m199.5 117.5h80v-10c0-22.091-17.909-40-40-40-22.091 0-40 17.909-40 40z" fill="#fee95d"/><path d="m410.5 397.5h-130c-8.284 0-15-6.716-15-15 0-8.284 6.716-15 15-15h130c8.284 0 15 6.716 15 15 0 8.284-6.716 15-15 15z" fill="#ff6a47"/><path d="m410.5 367.5h-130v-85c0-35.898 29.101-65 65-65 35.898 0 65 29.101 65 65z" fill="#ff6a47"/><circle cx="414.5" cy="102.5" fill="#fee95d" r="55"/><path d="m194.5 223.5h40v54h-40z" fill="#fff" transform="matrix(-1 0 0 -1 429 501)"/><path d="m52.5 195.5h60v90h-60z" fill="#fee95d" transform="matrix(0 1 -1 0 323 158)"/><path d="m7.5 7.5h25v496h-25z" fill="#c571d6"/><path d="m20 228h60v25h-60z" fill="#e7c900" transform="matrix(0 1 -1 0 290.5 190.5)"/><path d="m290.5 382.5c0-8.284 6.716-15 15-15h-25c-8.284 0-15 6.716-15 15s6.716 15 15 15h25c-8.284 0-15-6.716-15-15z" fill="#fd3501"/><path d="m358 218.713c-4.046-.788-8.223-1.213-12.5-1.213-35.898 0-65 29.102-65 65v85h25v-85c0-31.622 22.584-57.957 52.5-63.787z" fill="#fd3501"/><path d="m157.5 277.5h25v30h-25z" fill="#e3e9ee"/><g fill="#e7c900"><path d="m384.5 102.5c0-26.074 18.149-47.894 42.5-53.556-4.018-.934-8.198-1.444-12.5-1.444-30.376 0-55 24.624-55 55s24.624 55 55 55c4.302 0 8.482-.51 12.5-1.444-24.351-5.662-42.5-27.482-42.5-53.556z"/><path d="m252 69.503c-3.934-1.294-8.133-2.003-12.5-2.003-22.091 0-40 17.909-40 40v10h25v-10c0-17.725 11.533-32.747 27.5-37.997z"/></g></g><g fill="#fff"><path d="m323 285h15v15h-15z"/><path d="m353 285h15v15h-15z"/></g><g><path d="m511 188v-188h-447.94v15h86.94v481h-135v-481h33.06v-15h-48.06v511h511v-308h-15v293h-331v-181h108v46.29c-8.729 3.096-15 11.433-15 21.21 0 12.406 10.094 22.5 22.5 22.5h57.5v35h-27.5c-15.163 0-27.5 12.337-27.5 27.5v10h15v-10c0-6.893 5.607-12.5 12.5-12.5h27.5v22.5h15v-22.5h27.5c6.893 0 12.5 5.607 12.5 12.5v10h15v-10c0-15.163-12.337-27.5-27.5-27.5h-27.5v-35h57.5c12.406 0 22.5-10.094 22.5-22.5 0-9.777-6.271-18.114-15-21.21v-46.29h33v162.5h15v-162.5h15v-45h-64.101c-5.943-34.037-35.687-60-71.399-60s-65.456 25.963-71.399 60h-32.101v-54h-55v54h-22v-255h67v45.598c-22.64 3.607-40 23.263-40 46.902v17.5h95v-17.5c0-23.639-17.36-43.295-40-46.902v-45.598h249v173zm-93 97h48v15h-48zm-130-2.5c0-31.706 25.794-57.5 57.5-57.5s57.5 25.794 57.5 57.5v77.5h-115zm-7.5 92.5h130c4.136 0 7.5 3.364 7.5 7.5s-3.364 7.5-7.5 7.5h-130c-4.136 0-7.5-3.364-7.5-7.5s3.364-7.5 7.5-7.5zm-78.5-144h25v39h-25zm71 54v15h-108v-15zm-1-177.5v2.5h-65v-2.5c0-17.921 14.579-32.5 32.5-32.5s32.5 14.579 32.5 32.5z"/><path d="m37.5 303h90v15h-90z"/><path d="m37.5 333h90v15h-90z"/><path d="m82.5 143c-20.678 0-37.5 16.822-37.5 37.5v22.5h-15v75h105v-75h-15v-22.5c0-20.678-16.822-37.5-37.5-37.5zm-22.5 37.5c0-12.406 10.094-22.5 22.5-22.5s22.5 10.094 22.5 22.5v22.5h-45zm60 82.5h-75v-45h75z"/><path d="m352 102.5c0 34.463 28.037 62.5 62.5 62.5s62.5-28.037 62.5-62.5-28.037-62.5-62.5-62.5-62.5 28.037-62.5 62.5zm110 0c0 26.191-21.309 47.5-47.5 47.5s-47.5-21.309-47.5-47.5 21.309-47.5 47.5-47.5 47.5 21.309 47.5 47.5z"/><path d="m405 70.617v43.383h29.323v-15h-14.323v-28.383z"/></g></g><g/><g/><g/><g/><g/><g/><g/><g/><g/><g/><g/><g/><g/><g/><g/></svg>