<svg height="512" viewBox="0 0 60 60" width="512" xmlns="http://www.w3.org/2000/svg"><g id="Page-1" fill="none" fill-rule="evenodd"><g id="010---Hallway" fill-rule="nonzero"><g id="Icons" transform="translate(1 1)"><path id="Shape" d="m19 14-19-14v58l19-20z" fill="#f5f5f5"/><path id="Shape" d="m39 14 19-14v58l-19-20z" fill="#f5f5f5"/><path id="Shape" d="m55 2.211v52.631l3 3.158v-58z" fill="#cfd8dc"/><path id="Shape" d="m0 0h58l-19 14h-20z" fill="#f5f5f5"/><path id="Shape" d="m55 0-19 14h3l19-14z" fill="#cfd8dc"/><path id="Shape" d="m0 58h58l-19-20h-20z" fill="#a0522d"/><path id="Shape" d="m39 38h-3l19 20h3z" fill="#783e22"/><path id="Shape" d="m5.518 58 15.199-16h16.566l15.199 16z" fill="#ff9801"/><path id="Shape" d="m52.482 58-15.199-16h-3l15.199 16z" fill="#f57c00"/><path id="Rectangle-path" d="m19 14h20v24h-20z" fill="#9e9e9e"/><path id="Rectangle-path" d="m36 14h3v24h-3z" fill="#707070"/><path id="Shape" d="m25 20h8c.5522847 0 1 .4477153 1 1v17h-10v-17c0-.5522847.4477153-1 1-1z" fill="#ffdc00"/><path id="Shape" d="m33 20h-3c.5522847 0 1 .4477153 1 1v17h3v-17c0-.5522847-.4477153-1-1-1z" fill="#fec108"/><path id="Shape" d="m13 44.32v-24.64c.0003967-.4098038-.249279-.7783727-.63-.93l-8-3.2c-.30818791-.1227404-.65718403-.08466-.93164956.101656-.27446554.186316-.4386717.4966139-.43835044.828344l-.00000047 38.36z" fill="#ffdc00"/><path id="Shape" d="m55.0000005 54.84-.0000005-38.36c.0003213-.3317301-.1638849-.642028-.4383504-.828344-.2744656-.186316-.6234617-.2243964-.9316496-.101656l-8 3.2c-.380721.1516273-.6303967.5201962-.63.93v24.64z" fill="#ffdc00"/><path id="Shape" d="m53.63 15.55-1.665.666c.0229538.0861321.0347172.1748622.035.264v35.2l3.0000005 3.156-.0000005-38.356c.0003213-.3317301-.1638849-.642028-.4383504-.828344-.2744656-.186316-.6234617-.2243964-.9316496-.101656z" fill="#fec108"/><ellipse id="Oval" cx="29" cy="3" fill="#ffdc00" rx="4" ry="3"/></g><g id="Icons_copy" fill="#000"><path id="Shape" d="m13.741 18.821-8-3.2c-.61632165-.2458434-1.31444775-.1700062-1.86360453.2024427s-.87783847.9930129-.87739547 1.6565573v37.963l-2.725 2.868c-.27553606.2898373-.35189964.715962-.19415844 1.0834446.15774121.3674826.51925127.6056509.91915844.6055554h58c.3999072.0000955.7614172-.2380728.9191584-.6055554s.0813777-.7936073-.1941584-1.0834446l-2.725-2.868v-37.963c.000443-.6635444-.3282387-1.2841084-.8773955-1.6565573-.5491567-.3724489-1.2472828-.4482861-1.8636045-.2024427l-8 3.2c-.7629111.3006964-1.2629091 1.0389779-1.259 1.859v22.131l-4-4.211v-23.1l18.593-13.7c.3853738-.34445396.444743-.9258346.1369472-1.34107339-.3077957-.41523879-.8813183-.52748837-1.3229472-.25892661l-18.735 13.8h-19.344l-18.735-13.8c-.44330664-.28441027-1.031225-.17621555-1.34423718.24738019s-.24380524 1.01736716.15823718 1.35761981l18.593 13.7v23.095l-4 4.21v-22.13c.0039091-.8200221-.4960889-1.5583036-1.259-1.859zm-8.741-1.343 8 3.2v11.7l-1.447.723c-.4942949.2468713-.6948713.8477051-.448 1.342s.8477051.6948713 1.342.448l.553-.273v10.3l-8 8.42zm3.847 40.522 13.3-14h15.707l13.3 14zm45.065 0-14.9-15.689c-.1897931-.199649-.4535371-.3121653-.729-.311h-16.566c-.274074-.0000654-.536163.1123617-.725.311l-14.904 15.689h-2.759l17.1-18h19.141l17.1 18zm-19.912-28h-1c-.5522847 0-1 .4477153-1 1s.4477153 1 1 1h1v6h-8v-16h8zm13-9.321 8-3.2v16.9l-.553-.277c-.4942949-.2468713-1.0951287-.0462949-1.342.448s-.0462949 1.0951287.448 1.342l1.447.726v16.72l-8-8.421zm-26-4.679h18v22h-3v-16c0-1.1045695-.8954305-2-2-2h-8c-1.1045695 0-2 .8954305-2 2v16h-3z"/><path id="Shape" d="m30 8c2.757 0 5-1.794 5-4s-2.243-4-5-4-5 1.794-5 4 2.243 4 5 4zm0-6c1.626 0 3 .916 3 2s-1.374 2-3 2-3-.916-3-2 1.374-2 3-2z"/></g></g></g></svg>