<svg enable-background="new 0 0 512 512" height="512" viewBox="0 0 512 512" width="512" xmlns="http://www.w3.org/2000/svg"><g id="_x31_0_Fitting_Room"><g><g fill="#41b3e7"><path d="m89.085 28.689v442.199h-34.496v-442.199c0-9.56 7.712-17.271 17.225-17.271h.046c9.513-.001 17.225 7.711 17.225 17.271z"/><path d="m116.4 485.711c0 4.11-1.662 7.851-4.341 10.529s-6.419 4.341-10.483 4.341h-59.48c-8.174 0-14.824-6.65-14.824-14.87 0-4.064 1.662-7.805 4.341-10.482 2.678-2.679 6.419-4.341 10.483-4.341h59.48c8.174 0 14.824 6.65 14.824 14.823z"/><path d="m457.411 28.689v442.199h-34.496v-442.199c0-9.56 7.712-17.271 17.225-17.271h.046c9.513-.001 17.225 7.711 17.225 17.271z"/><path d="m484.727 485.711c0 4.11-1.662 7.851-4.341 10.529s-6.419 4.341-10.483 4.341h-59.48c-8.174 0-14.824-6.65-14.824-14.87 0-4.064 1.662-7.805 4.341-10.482 2.678-2.679 6.419-4.341 10.483-4.341h59.48c8.174 0 14.824 6.65 14.824 14.823z"/></g><path d="m422.915 93.546v337.284c0 4.527-3.642 8.168-8.169 8.168h-25.026c-4.527 0-8.169-3.642-8.169-8.168v-337.284c0-7.233 2.393-14.308 6.816-20.084l7.336-9.625c3.33-4.266 9.73-4.266 13.059 0l7.336 9.625c4.423 5.776 6.817 12.851 6.817 20.084z" fill="#ad1d58"/><path d="m381.551 93.546v337.284c0 4.527-3.642 8.168-8.169 8.168h-25.026c-4.527 0-8.169-3.642-8.169-8.168v-337.284c0-7.233 2.394-14.308 6.816-20.084l7.336-9.625c3.33-4.266 9.73-4.266 13.059 0l7.336 9.625c4.423 5.776 6.817 12.851 6.817 20.084z" fill="#d81a60"/><path d="m130.449 93.546v337.284c0 4.527-3.642 8.168-8.169 8.168h-25.026c-4.527 0-8.169-3.642-8.169-8.168v-337.284c0-7.233 2.394-14.308 6.816-20.084l7.336-9.625c3.33-4.266 9.73-4.266 13.059 0l7.336 9.625c4.423 5.776 6.817 12.851 6.817 20.084z" fill="#d81a60"/><path d="m171.813 93.546v337.284c0 4.527-3.642 8.168-8.169 8.168h-25.027c-4.527 0-8.169-3.642-8.169-8.168v-337.284c0-7.233 2.393-14.308 6.816-20.084l7.336-9.625c3.33-4.266 9.73-4.266 13.059 0l7.336 9.625c4.424 5.776 6.818 12.851 6.818 20.084z" fill="#ad1d58"/><path d="m213.177 93.546v337.284c0 4.527-3.642 8.168-8.169 8.168h-25.027c-4.527 0-8.169-3.642-8.169-8.168v-337.284c0-7.233 2.393-14.308 6.816-20.084l7.336-9.625c3.33-4.266 9.73-4.266 13.059 0l7.336 9.625c4.425 5.776 6.818 12.851 6.818 20.084z" fill="#d81a60"/><path d="m213.201 96.707h126.974v323.525h-126.974z" fill="#cce0f1"/><path d="m324.564 96.707h15.612v323.525h-15.612z" opacity=".1"/><path d="m213.201 96.707h15.56v323.525h-15.56z" opacity=".1"/><path d="m42.097 505.786h59.479c10.813 0 20.028-8.71 20.028-20.076 0-11.043-8.985-20.025-20.028-20.025h-7.287v-21.838c2.899.662 3.017.229 27.991.357 3.09 0 5.902-1.096 8.168-2.862 2.267 1.766 5.08 2.862 8.17 2.862h25.028c3.089 0 5.901-1.096 8.167-2.861 2.266 1.765 5.077 2.861 8.167 2.861h25.028c7.374 0 13.37-5.999 13.37-13.373v-5.369h116.604v5.369c0 7.374 5.997 13.373 13.37 13.373h25.028c3.09 0 5.902-1.096 8.168-2.862 2.267 1.766 5.08 2.862 8.17 2.862h25.028c1.021 0 2.006-.138 2.963-.357v21.838h-7.287c-11.041 0-20.028 8.972-20.028 20.025 0 11.071 8.985 20.076 20.028 20.076h59.479c10.813 0 20.028-8.71 20.028-20.076 0-11.043-8.985-20.025-20.028-20.025h-7.287v-436.996c0-12.392-10.062-22.475-22.477-22.475-12.364 0-22.426 10.083-22.426 22.475v9.529h-10.276v-10.507c0-2.874-2.328-5.204-5.204-5.204s-5.204 2.33-5.204 5.204v10.507h-30.954v-10.507c0-2.874-2.328-5.204-5.204-5.204s-5.204 2.33-5.204 5.204v10.507h-157.965v-10.507c0-2.874-2.328-5.204-5.204-5.204s-5.204 2.33-5.204 5.204v10.507h-30.959v-10.507c0-2.874-2.328-5.204-5.204-5.204s-5.204 2.33-5.204 5.204v10.507h-30.954v-10.507c0-2.874-2.328-5.204-5.204-5.204s-5.204 2.33-5.204 5.204v10.507h-10.274v-9.529c0-12.392-10.062-22.475-22.477-22.475-12.364 0-22.426 10.083-22.426 22.475v436.996h-7.287c-11.041 0-20.028 8.972-20.028 20.025-.001 11.071 8.983 20.076 20.026 20.076zm80.183-71.99h-25.029c-1.662 0-2.963-1.304-2.963-2.965v-337.284c0-6.073 2.038-12.082 5.748-16.93l4.528-5.939v12.942c0 2.874 2.328 5.204 5.204 5.204s5.204-2.33 5.204-5.204v-12.937l4.528 5.941c3.705 4.835 5.742 10.845 5.742 16.923v337.283c0 1.662-1.301 2.966-2.962 2.966zm41.366 0h-25.028c-1.662 0-2.968-1.304-2.968-2.965v-337.284c0-6.075 2.043-12.085 5.758-16.933l4.518-5.932v12.937c0 2.874 2.328 5.204 5.204 5.204s5.204-2.33 5.204-5.204v-12.942l4.533 5.946c3.705 4.841 5.743 10.85 5.743 16.923v337.284c-.001 1.662-1.302 2.966-2.964 2.966zm44.325-2.966c0 1.662-1.301 2.965-2.963 2.965h-25.028c-1.662 0-2.963-1.304-2.963-2.965v-337.283c0-6.073 2.038-12.082 5.748-16.93l4.528-5.939v12.942c0 2.874 2.328 5.204 5.204 5.204s5.204-2.33 5.204-5.204v-12.937l4.528 5.941c3.705 4.841 5.743 10.85 5.743 16.923v326.711 10.572zm10.408-15.776v-313.168h116.604v313.168zm155.003 18.742h-25.028c-1.662 0-2.963-1.304-2.963-2.965 0-84.162 0-258.478 0-337.284 0-6.073 2.038-12.082 5.748-16.93l4.528-5.939v12.942c0 2.874 2.328 5.204 5.204 5.204s5.204-2.33 5.204-5.204v-12.937l4.528 5.941c3.705 4.841 5.743 10.85 5.743 16.923v337.283c-.001 1.662-1.302 2.966-2.964 2.966zm41.367 0h-25.029c-1.662 0-2.968-1.304-2.968-2.965v-337.284c0-6.075 2.043-12.085 5.758-16.933l4.518-5.932v12.937c0 2.874 2.328 5.204 5.204 5.204s5.204-2.33 5.204-5.204v-12.942l4.533 5.946c3.705 4.841 5.743 10.85 5.743 16.923v337.284c-.001 1.662-1.302 2.966-2.963 2.966zm64.774 51.914c0 5.442-4.366 9.668-9.62 9.668h-59.479c-5.306 0-9.62-4.337-9.62-9.668 0-5.265 4.263-9.617 9.62-9.617 1.18 0 63.528 0 59.479 0 5.305-.001 9.62 4.314 9.62 9.617zm-39.334-469.088c6.627 0 12.019 5.412 12.019 12.067v436.996h-24.088c0-37.135 0-312.867 0-372.138 0-22.446 0-45.061 0-64.858-.001-6.655 5.391-12.067 12.069-12.067zm-22.478 32.003v18.367l-4.848-6.359c-1.45-1.859-3.334-3.212-5.427-4.093v-7.915zm-20.683 0v7.92c-2.098.886-3.993 2.25-5.468 4.137l-7.323 9.615c-1.011 1.32-1.859 2.745-2.686 4.181-.824-1.432-1.669-2.855-2.676-4.171l-7.374-9.676c-1.451-1.858-3.335-3.21-5.427-4.09v-7.916zm-41.362 0v7.919c-2.099.886-3.993 2.25-5.463 4.135l-7.333 9.618c-4.664 6.094-7.292 13.552-7.715 21.181h-116.948c-.424-7.629-3.05-15.086-7.705-21.171l-7.374-9.676c-1.451-1.858-3.335-3.21-5.427-4.09v-7.916zm-168.373 0v7.919c-2.099.886-3.993 2.25-5.463 4.135l-7.333 9.618c-1.01 1.32-1.857 2.745-2.683 4.18-.825-1.432-1.67-2.855-2.678-4.172l-7.374-9.671c-1.45-1.859-3.334-3.212-5.427-4.093v-7.915h30.958zm-41.367 0v7.92c-2.098.886-3.993 2.25-5.468 4.137l-7.323 9.615c-1.01 1.319-1.858 2.745-2.685 4.18-.824-1.432-1.669-2.854-2.677-4.17l-7.374-9.676c-1.451-1.858-3.335-3.21-5.427-4.09v-7.916zm-41.362 0v7.919c-2.099.886-3.993 2.25-5.463 4.135l-4.813 6.312v-18.366zm-44.771-19.936c0-6.655 5.392-12.067 12.07-12.067 6.627 0 12.019 5.412 12.019 12.067v64.858 372.138h-24.089zm-17.696 447.403c1.18 0 63.528 0 59.479 0 5.306 0 9.62 4.315 9.62 9.617 0 5.442-4.366 9.668-9.62 9.668h-59.479c-5.306 0-9.62-4.337-9.62-9.668 0-5.264 4.264-9.617 9.62-9.617z" fill="#25294f"/><path d="m304.649 228.497-63.29 63.29c-2.033 2.033-2.033 5.326 0 7.359 1.016 1.016 2.348 1.525 3.679 1.525s2.663-.508 3.679-1.525l63.29-63.29c2.033-2.033 2.033-5.326 0-7.359-2.032-2.033-5.325-2.033-7.358 0z" fill="#25294f"/><path d="m248.972 264.118c1.331 0 2.663-.508 3.679-1.525l28.342-28.342c2.033-2.033 2.033-5.326 0-7.359s-5.326-2.033-7.359 0l-28.342 28.342c-2.033 2.033-2.033 5.326 0 7.359 1.017 1.017 2.348 1.525 3.68 1.525z" fill="#25294f"/></g></g></svg>