<svg id="Color_1_" enable-background="new 0 0 64 64" height="512" viewBox="0 0 64 64" width="512" xmlns="http://www.w3.org/2000/svg"><g><path d="m9 7v7h-4v-6c0-.552.448-1 1-1z" fill="#ffdbda"/><path d="m63 31v29h-1-5-25v-11h26c.55 0 1-.45 1-1v-4-13c0-.55.45-1 1-1h2c.55 0 1 .45 1 1z" fill="#ebc09e"/><path d="m63 31v29h-31v-2h25c2.209 0 4-1.791 4-4v-24h1c.55 0 1 .45 1 1z" fill="#e09d70"/><path d="m63 14v8h-4v-4h-5v-4h1 3 4z" fill="#ebc09e"/><path d="m61 14h2v8h-2z" fill="#e09d70"/><g fill="#e8e7e6"><path d="m57 60h5v3h-5z"/><path d="m59 44v4c0 .55-.45 1-1 1h-27-10v-5z"/><path d="m60.689 7.243-1.689 6.757h-4l1.811-7.243c.111-.445.511-.757.97-.757h1.938c.651 0 1.128.611.97 1.243z"/></g><path d="m60.69 7.24-1.69 6.76h-4l.5-2h1.719c.459 0 .859-.312.97-.757l1.311-5.243h.22c.65 0 1.13.61.97 1.24z" fill="#cccaca"/><path d="m58.08 34.53c0 .42-.1.85-.33 1.24l-3.5 6.06c-.69 1.2-2.22 1.61-3.42.92-1.19-.69-1.6-2.22-.91-3.42l3.5-6.06c.69-1.19 2.22-1.6 3.41-.91.81.46 1.25 1.3 1.25 2.17z" fill="#e8e7e6"/><path d="m52.08 34.53c0 .42-.1.85-.33 1.24l-3.5 6.06c-.69 1.2-2.22 1.61-3.42.92-1.19-.69-1.6-2.22-.91-3.42l3.5-6.06c.69-1.19 2.22-1.6 3.41-.91.81.46 1.25 1.3 1.25 2.17z" fill="#e8e7e6"/><path d="m52.08 34.53c0 .42-.1.85-.33 1.24l-3.5 6.06c-.69 1.2-2.22 1.61-3.42.92-.8-.46-1.25-1.3-1.25-2.17.08.06.16.12.25.17 1.2.69 2.73.28 3.42-.92l3.5-6.06c.23-.39.33-.82.33-1.24.65.47 1 1.22 1 2z" fill="#cccaca"/><path d="m58.08 34.53c0 .42-.1.85-.33 1.24l-3.5 6.06c-.69 1.2-2.22 1.61-3.42.92-.8-.46-1.25-1.3-1.25-2.17.08.06.16.12.25.17 1.2.69 2.73.28 3.42-.92l3.5-6.06c.23-.39.33-.82.33-1.24.65.47 1 1.22 1 2z" fill="#cccaca"/><path d="m33 14v4h-2-28-2v-4h4 3 3 4 7 4z" fill="#ebc09e"/><path d="m32 49v11h-25-5-1v-11h3 6v6c0 1.1.9 2 2 2h7c1.1 0 2-.9 2-2v-6z" fill="#ebc09e"/><path d="m1 58h31v2h-31z" fill="#e09d70"/><path d="m3 18h28v4h-28z" fill="#ebc09e"/><path d="m3 18h28v2h-28z" fill="#e09d70"/><path d="m29 11v3h-7v-3c0-.552.448-1 1-1h5c.552 0 1 .448 1 1z" fill="#ff7f51"/><path d="m29 11v3h-7v-2h4c.552 0 1-.448 1-1v-1h1c.552 0 1 .448 1 1z" fill="#f26a07"/><path d="m21 49v6c0 1.1-.9 2-2 2h-7c-1.1 0-2-.9-2-2v-6-5c0-1.1.9-2 2-2h7c1.1 0 2 .9 2 2z" fill="#aa9f9f"/><path d="m57 44v2c0 .55-.45 1-1 1h-32c-.552 0-1-.448-1-1v-2h-2v3 2h2 35c.55 0 1-.45 1-1v-4z" fill="#cccaca"/><path d="m21 44v11c0 1.1-.9 2-2 2h-7c-1.1 0-2-.9-2-2v-1h6c1.1 0 2-.9 2-2v-10h1c1.1 0 2 .9 2 2z" fill="#938383"/><path d="m13 8v6h-4v-6c0-.552.448-1 1-1h2c.552 0 1 .448 1 1z" fill="#c95f5f"/><path d="m13 8v6h-4v-2h1c.552 0 1-.448 1-1v-4h1c.552 0 1 .448 1 1z" fill="#c14040"/><path d="m9 8v6h-4v-2h1c.552 0 1-.448 1-1v-4h1c.552 0 1 .448 1 1z" fill="#f7baba"/><path d="m10 44v5h-7v-3c0-1.1.9-2 2-2z" fill="#e8e7e6"/><path d="m3 47h7v2h-7z" fill="#cccaca"/><path d="m2 60h5v3h-5z" fill="#e8e7e6"/><path d="m60 60h2v3h-2z" fill="#cccaca"/><path d="m5 60h2v3h-2z" fill="#cccaca"/><g fill="#472b3c"><path d="m62 29h-2c-1.103 0-2 .897-2 2v1.004c-.201-.192-.418-.369-.665-.511-.809-.467-1.753-.591-2.655-.35-.889.238-1.632.806-2.101 1.596-.302-.508-.718-.942-1.244-1.246-.809-.467-1.754-.591-2.655-.35-.903.242-1.658.821-2.126 1.631l-3.5 6.062c-.796 1.379-.531 3.07.521 4.165h-21.759c-.414-1.161-1.514-2-2.816-2h-7c-1.654 0-3 1.346-3 3v4h-5v-2c0-.551.449-1 1-1h2c.552 0 1-.448 1-1s-.448-1-1-1h-2c-1.654 0-3 1.346-3 3v2h-1c-.552 0-1 .448-1 1v11c0 .552.448 1 1 1v2c0 .552.448 1 1 1h5c.552 0 1-.448 1-1v-2h48v2c0 .552.447 1 1 1h5c.553 0 1-.448 1-1v-2c.553 0 1-.448 1-1v-29.001c0-1.103-.897-2-2-2zm-4 8.34v5.66h-3.396c.192-.201.369-.418.512-.665zm-3.714-3.567c.2-.347.523-.595.911-.699.129-.035.26-.052.391-.052.26 0 .516.068.747.202.347.2.595.523.699.911.104.387.05.791-.15 1.138l-3.5 6.062c-.2.347-.523.595-.911.699-.385.103-.789.051-1.138-.149-.716-.414-.963-1.333-.549-2.049zm-9.5 6.062 3.5-6.062c.2-.347.523-.595.911-.699.129-.035.26-.052.391-.052.26 0 .516.068.747.202.347.2.595.523.699.911.104.387.05.791-.15 1.138l-3.5 6.062c-.2.347-.523.595-.911.699-.386.103-.79.051-1.138-.149-.716-.415-.963-1.334-.549-2.05zm4.788 3.165h-.97c.183-.191.35-.399.489-.632.135.227.295.438.481.632zm-27.574 2h36v3h-36zm-11-1c0-.551.449-1 1-1h7c.551 0 1 .449 1 1v11c0 .551-.449 1-1 1h-7c-.551 0-1-.449-1-1zm-5 18h-3v-1h3zm25-3h-24-5v-9h1 6v5c0 1.654 1.346 3 3 3h7c1.654 0 3-1.346 3-3v-5h9zm30 3h-3v-1h3zm1-3h-5-24v-9h25c1.103 0 2-.897 2-2v-4-13h2z"/><path d="m63 13h-.29l-1.417-4.048.367-1.467c.149-.602.017-1.228-.365-1.716s-.956-.769-1.576-.769h-1.938c-.92 0-1.718.623-1.94 1.515l-1.621 6.485h-.22c-.553 0-1 .448-1 1v4c0 .552.447 1 1 1h4v3c0 .552.447 1 1 1h4c.553 0 1-.448 1-1v-8c0-.552-.447-1-1-1zm-2.591-.516.181.516h-.309zm-2.628-5.484h1.938l-1.501 6h-1.938zm4.219 14h-2v-3c0-.552-.447-1-1-1h-4v-2h4 2.997.003z"/><path d="m1 19h1v3c0 .552.448 1 1 1h28c.552 0 1-.448 1-1v-3h1c.553 0 1-.448 1-1v-4c0-.552-.447-1-1-1h-3v-2c0-1.103-.897-2-2-2h-5c-1.103 0-2 .897-2 2v2h-7v-5c0-1.103-.897-2-2-2h-2c-.366 0-.705.106-1 .278-.295-.172-.634-.278-1-.278h-2c-1.103 0-2 .897-2 2v5h-3c-.552 0-1 .448-1 1v4c0 .552.448 1 1 1zm22-8h5v2h-5zm-13-3h2v5h-2zm-4 0h2v5h-2zm-4 7h3 4 4 9 7 3v2h-11c-.552 0-1 .448-1 1s.448 1 1 1h9v2h-26v-2h14c.552 0 1-.448 1-1s-.448-1-1-1h-16z"/></g></g></svg>