<svg id="Layer_1" enable-background="new 0 0 512 512" height="512" viewBox="0 0 512 512" width="512" xmlns="http://www.w3.org/2000/svg"><g><ellipse cx="67.5" cy="273.5" fill="#97da7b" rx="44.5" ry="85"/><path d="m67.5 188.5c-5.264 0-10.313 1.758-15 4.963 17.195 11.76 29.5 43.149 29.5 80.037s-12.305 68.277-29.5 80.037c4.688 3.206 9.736 4.963 15 4.963 24.577 0 44.5-38.056 44.5-85s-19.923-85-44.5-85z" fill="#80d261"/><path d="m374 184.5h-236c-1.105 0-2-.895-2-2v-122c0-1.105.895-2 2-2h236c1.105 0 2 .895 2 2v122c0 1.105-.895 2-2 2z" fill="#6bd9e7"/><path d="m374 58.5h-30c1.104 0 2 .896 2 2v122c0 1.104-.896 2-2 2h30c1.104 0 2-.896 2-2v-122c0-1.104-.896-2-2-2z" fill="#2ed1e2"/><path d="m489.5 453.5h-467c-8.284 0-15-6.716-15-15 0-8.284 6.716-15 15-15h467c8.284 0 15 6.716 15 15 0 8.284-6.716 15-15 15z" fill="#ae6c6c"/><path d="m489.5 423.5h-30c8.284 0 15 6.716 15 15s-6.716 15-15 15h30c8.284 0 15-6.716 15-15s-6.716-15-15-15z" fill="#9b5e5e"/><g><path d="m368 397.5h-224c-7.732 0-14-6.268-14-14v-16c0-7.732 6.268-14 14-14h224c7.732 0 14 6.268 14 14v16c0 7.732-6.268 14-14 14z" fill="#e94444"/><path d="m368 353.5h-30c7.732 0 14 6.268 14 14v16c0 7.732-6.268 14-14 14h30c7.732 0 14-6.268 14-14v-16c0-7.732-6.268-14-14-14z" fill="#d83131"/><path d="m346 353.5h-180v-56c0-3.314 2.686-6 6-6h168c3.314 0 6 2.686 6 6z" fill="#dd7f66"/><path d="m346 353.5h-180v-56c0-3.314 2.686-6 6-6h168c3.314 0 6 2.686 6 6z" fill="#ee6161"/><path d="m346 353.5h-30v-62h24c3.314 0 6 2.686 6 6z" fill="#e94444"/><g fill="#cbc4cc"><path d="m168.5 397.5h30v26h-30z"/><path d="m313.5 397.5h30v26h-30z"/></g></g><circle cx="207.88" cy="118.5" fill="#eaf9fa" r="24"/><path d="m323.542 142.5h-52.845c-3.807 0-5.945-4.9-3.6-8.253l26.422-37.785c1.829-2.616 5.37-2.616 7.2 0l26.422 37.785c2.346 3.353.208 8.253-3.599 8.253z" fill="#eaf9fa"/><path d="m477.259 219.5h-60.518c-2.478 0-4.36-2.231-3.943-4.673l11.272-66c.328-1.921 1.994-3.327 3.943-3.327h37.973c1.949 0 3.615 1.405 3.943 3.327l11.272 66c.418 2.442-1.464 4.673-3.942 4.673z" fill="#ffd15b"/><path d="m481.202 214.827-11.272-66c-.328-1.922-1.993-3.327-3.943-3.327h-30c1.949 0 3.615 1.405 3.943 3.327l11.272 66c.417 2.443-1.465 4.673-3.943 4.673h30c2.478 0 4.36-2.23 3.943-4.673z" fill="#ffc344"/><path d="m36.741 349.5h60.518c2.478 0 4.36 2.231 3.943 4.673l-11.272 66c-.328 1.921-1.994 3.327-3.943 3.327h-37.974c-1.949 0-3.615-1.405-3.943-3.327l-11.272-66c-.417-2.442 1.465-4.673 3.943-4.673z" fill="#918291"/><path d="m97.259 349.5h-30c2.478 0 4.36 2.23 3.943 4.673l-11.272 66c-.328 1.921-1.994 3.327-3.943 3.327h30c1.949 0 3.615-1.405 3.943-3.327l11.272-66c.417-2.443-1.465-4.673-3.943-4.673z" fill="#7a6d79"/><path d="m479 423.5h-64v-16.596c0-5.194 4.21-9.404 9.404-9.404h45.192c5.194 0 9.404 4.21 9.404 9.404z" fill="#cbc4cc"/><path d="m469.596 397.5h-30c5.194 0 9.404 4.21 9.404 9.404v16.596h30v-16.596c0-5.194-4.21-9.404-9.404-9.404z" fill="#b5adb6"/><g><path d="m489.5 416h-3v-9.096c0-9.321-7.583-16.904-16.904-16.904h-15.096v-163h22.759c3.396 0 6.6-1.489 8.79-4.084 2.189-2.595 3.118-6.004 2.546-9.352l-11.272-66c-.946-5.542-5.714-9.564-11.336-9.564h-37.973c-5.622 0-10.39 4.022-11.336 9.564l-11.273 66c-.571 3.348.357 6.756 2.547 9.352 2.19 2.595 5.395 4.084 8.79 4.084h22.758v163h-15.096c-9.321 0-16.904 7.583-16.904 16.904v9.096h-56.5v-11h17c11.855 0 21.5-9.645 21.5-21.5v-16c0-11.855-9.645-21.5-21.5-21.5h-14.5v-48.5c0-7.444-6.056-13.5-13.5-13.5h-168c-7.444 0-13.5 6.056-13.5 13.5v48.5h-14.5c-11.855 0-21.5 9.645-21.5 21.5v16c0 11.855 9.645 21.5 21.5 21.5h17v11h-62.749l10.345-60.564c.571-3.348-.357-6.756-2.547-9.352-1.088-1.289-2.427-2.304-3.915-3 10.894-17.243 17.366-42.573 17.366-69.584 0-51.869-22.841-92.5-52-92.5-10.21 0-19.996 4.975-28.3 14.386-2.74 3.106-2.444 7.845.662 10.586 3.105 2.74 7.846 2.444 10.586-.662 3.747-4.247 9.747-9.31 17.052-9.31 8.829 0 17.877 7.608 24.822 20.875 7.853 15 12.178 35.11 12.178 56.625 0 28.201-7.897 54.801-20.226 68.5h-33.544c-12.338-13.701-20.23-40.239-20.23-68.5 0-14.168 1.935-28.071 5.596-40.206 1.196-3.966-1.049-8.15-5.015-9.347-3.968-1.197-8.15 1.049-9.347 5.015-4.078 13.521-6.234 28.922-6.234 44.538 0 26.891 6.39 52.032 17.167 69.26-1.807.685-3.437 1.809-4.716 3.324-2.189 2.595-3.118 6.004-2.546 9.352l10.344 60.564h-13.249c-12.406 0-22.5 10.093-22.5 22.5s10.094 22.5 22.5 22.5h344.141c4.143 0 7.5-3.358 7.5-7.5s-3.357-7.5-7.5-7.5h-344.141c-4.136 0-7.5-3.364-7.5-7.5s3.364-7.5 7.5-7.5h467c4.136 0 7.5 3.364 7.5 7.5s-3.364 7.5-7.5 7.5h-87.167c-4.143 0-7.5 3.358-7.5 7.5s3.357 7.5 7.5 7.5h87.167c12.406 0 22.5-10.093 22.5-22.5s-10.094-22.5-22.5-22.5zm-58.534-263h32.068l10.076 59h-52.22zm-257.466 146h165v47h-165zm-36 84.5v-16c0-3.584 2.916-6.5 6.5-6.5h224c3.584 0 6.5 2.916 6.5 6.5v16c0 3.584-2.916 6.5-6.5 6.5h-224c-3.584 0-6.5-2.916-6.5-6.5zm168.5 21.5v11h-100v-11zm-255.034 11-10.076-59h52.22l-10.076 59zm125.034 0v-11h15v11zm145 0v-11h15v11zm101.5 0v-9.096c0-1.05.854-1.904 1.904-1.904h45.191c1.05 0 1.904.854 1.904 1.904v9.096z"/><path d="m138 192h236c5.238 0 9.5-4.262 9.5-9.5v-122c0-5.238-4.262-9.5-9.5-9.5h-41.77c-4.143 0-7.5 3.358-7.5 7.5s3.357 7.5 7.5 7.5h36.27v111h-225v-111h153.62c4.143 0 7.5-3.358 7.5-7.5s-3.357-7.5-7.5-7.5h-159.12c-5.238 0-9.5 4.262-9.5 9.5v122c0 5.238 4.262 9.5 9.5 9.5z"/><path d="m176.38 118.5c0 17.369 14.131 31.5 31.5 31.5s31.5-14.131 31.5-31.5-14.131-31.5-31.5-31.5-31.5 14.131-31.5 31.5zm48 0c0 9.098-7.402 16.5-16.5 16.5s-16.5-7.402-16.5-16.5 7.402-16.5 16.5-16.5 16.5 7.402 16.5 16.5z"/><path d="m297.12 87c-3.841 0-7.484 1.93-9.747 5.164l-26.422 37.785c-2.784 3.981-3.109 9.15-.85 13.488 2.109 4.048 6.169 6.563 10.596 6.563h52.845c4.427 0 8.486-2.515 10.596-6.563 2.26-4.338 1.935-9.507-.85-13.489l-26.422-37.785c-2.261-3.232-5.903-5.163-9.746-5.163.001 0 .001 0 0 0zm21.397 48h-42.794l21.397-30.599z"/></g></g></svg>