<svg id="Layer_3" enable-background="new 0 0 64 64" height="512" viewBox="0 0 64 64" width="512" xmlns="http://www.w3.org/2000/svg"><path d="m46 55h4v7h-4z" fill="#8892a0"/><path d="m63 51h-21v4h21" fill="#c18e59"/><path d="m62 10h-30v-8h30" fill="#8892a0"/><path d="m34 10h4v52h-4z" fill="#4d5d7a"/><path d="m18 14c2.209 0 4-1.791 4-4s-1.791-4-4-4c-.75 0-1.443.219-2.043.578-.217-2.561-2.34-4.578-4.957-4.578-2.761 0-5 2.239-5 5 0 .43.071.841.173 1.239-.36-.154-.756-.239-1.173-.239-1.657 0-3 1.343-3 3s1.343 3 3 3z" fill="#a1cdfb"/><path d="m1 61h62v2h-62z"/><path d="m38 63h-4c-.553 0-1-.447-1-1v-52c0-.553.447-1 1-1h4c.553 0 1 .447 1 1v52c0 .553-.447 1-1 1zm-3-2h2v-50h-2z"/><path d="m63 11h-31c-.553 0-1-.447-1-1v-8c0-.553.447-1 1-1h31v2h-30v6h30z"/><path d="m18 15h-13c-2.206 0-4-1.794-4-4s1.794-4 4-4c0-3.309 2.691-6 6-6 2.674 0 4.931 1.725 5.697 4.18.426-.119.865-.18 1.303-.18 2.757 0 5 2.243 5 5s-2.243 5-5 5zm-13-6c-1.103 0-2 .897-2 2s.897 2 2 2h13c1.654 0 3-1.346 3-3s-1.346-3-3-3c-.532 0-1.046.146-1.529.436-.295.177-.662.19-.97.032-.307-.157-.512-.461-.54-.806-.177-2.088-1.88-3.662-3.961-3.662-2.206 0-4 1.794-4 4 0 .298.045.613.143.99.095.368-.028.759-.316 1.007s-.692.311-1.044.163c-.25-.106-.513-.16-.783-.16z"/><path d="m50 63h-4c-.553 0-1-.447-1-1v-7c0-.553.447-1 1-1h4c.553 0 1 .447 1 1v7c0 .553-.447 1-1 1zm-3-2h2v-5h-2z"/><path d="m63 56h-21c-.553 0-1-.447-1-1v-4c0-.553.447-1 1-1h21v2h-20v2h20z"/><path d="m10 44h16v4h-16z" fill="#c18e59"/><path d="m24 48-1 10h-10l-1-10" fill="#976947"/><path d="m26 49h-16c-.553 0-1-.447-1-1v-4c0-.553.447-1 1-1h16c.553 0 1 .447 1 1v4c0 .553-.447 1-1 1zm-15-2h14v-2h-14z"/><path d="m23 59h-10c-.514 0-.944-.39-.995-.9l-1-10 1.99-.199.91 9.1h8.189l.91-9.1 1.99.199-1 10c-.05.51-.48.9-.994.9z"/><g fill="#78b75b"><path d="m14.372 38.343 2.628.657-.657-2.628c-.224-.898-.689-1.718-1.343-2.372-.654-.654-1.474-1.119-2.372-1.343l-2.628-.657.657 2.628c.224.898.689 1.718 1.343 2.372.654.654 1.474 1.119 2.372 1.343z"/><path d="m21.628 38.343-2.628.657.657-2.628c.224-.898.689-1.718 1.343-2.372.654-.654 1.474-1.119 2.372-1.343l2.628-.657-.657 2.628c-.224.898-.689 1.718-1.343 2.372-.654.654-1.474 1.119-2.372 1.343z"/><path d="m17.342 37.683.658 1.317.658-1.317c.883-1.764 1.342-3.71 1.342-5.683 0-1.973-.459-3.919-1.342-5.683l-.658-1.317-.658 1.317c-.883 1.764-1.342 3.71-1.342 5.683 0 1.973.459 3.919 1.342 5.683z"/></g><path d="m18 40c-.379 0-.725-.214-.895-.553l-.658-1.316c-.946-1.893-1.447-4.013-1.447-6.131s.501-4.238 1.447-6.131l.658-1.316c.34-.678 1.449-.678 1.789 0l.658 1.316c.947 1.893 1.448 4.013 1.448 6.131s-.501 4.238-1.447 6.131l-.658 1.316c-.17.339-.516.553-.895.553zm0-12.734c-.655 1.485-1 3.11-1 4.734s.345 3.249 1 4.734c.655-1.485 1-3.11 1-4.734s-.345-3.249-1-4.734z"/><path d="m17 40c-.081 0-.162-.01-.242-.03l-2.628-.657h-.001c-1.073-.269-2.055-.823-2.836-1.605-.782-.781-1.337-1.763-1.605-2.836l-.658-2.63c-.086-.341.015-.701.263-.949s.611-.35.949-.263l2.628.657c1.074.269 2.056.823 2.837 1.605.782.781 1.337 1.763 1.605 2.836l.657 2.629c.086.341-.015.701-.263.949-.188.19-.444.294-.706.294zm-2.385-2.627 1.01.252-.252-1.011c-.182-.722-.555-1.382-1.08-1.907s-1.186-.898-1.908-1.08l-1.01-.252.252 1.011c.182.722.555 1.382 1.08 1.907s1.186.898 1.908 1.08z"/><path d="m19 40c-.262 0-.518-.104-.707-.293-.248-.248-.349-.608-.263-.949l.657-2.628c.269-1.074.823-2.056 1.605-2.837.781-.782 1.763-1.337 2.836-1.605l2.629-.657c.34-.087.701.015.949.263s.349.608.263.949l-.657 2.628c-.269 1.074-.823 2.056-1.605 2.837-.781.782-1.763 1.337-2.836 1.605h-.001l-2.628.657c-.08.02-.161.03-.242.03zm5.625-6.625-1.011.252c-.722.182-1.382.555-1.907 1.08s-.898 1.186-1.08 1.908l-.252 1.01 1.01-.252c.723-.182 1.383-.555 1.908-1.08s.898-1.186 1.08-1.908z"/><path d="m17 39h2v5h-2z"/><path d="m13.764 39h4.472v2h-4.472z" transform="matrix(.894 -.447 .447 .894 -16.199 11.378)"/><path d="m19 37.764h2v4.472h-2z" transform="matrix(.447 -.894 .894 .447 -24.721 40)"/></svg>