<svg id="Capa_1" enable-background="new 0 0 512 512" height="512" viewBox="0 0 512 512" width="512" xmlns="http://www.w3.org/2000/svg"><g><g><g><path d="m153.128 325.094h31.38v40.406h-31.38z" fill="#a8d3d8"/></g></g><g><path d="m153.128 325.094h16.872v40.406h-16.872z" fill="#8ebac5"/></g><g><path d="m139.697 102.179h11.782c2.761 0 5 2.239 5 5v17.182c4.06-.402 8.176-.611 12.34-.611s8.28.209 12.34.611v-17.182c0-2.761 2.239-5 5-5h11.373c6.794 0 12.622-5.315 12.747-12.109.126-6.921-5.446-12.571-12.338-12.571h-57.834c-6.794 0-12.623 5.315-12.747 12.109-.127 6.921 5.445 12.571 12.337 12.571z" fill="#8ebac5"/></g><g><path d="m293.85 240.484c-3.894-65.675-58.379-117.734-125.031-117.734s-121.137 52.06-125.032 117.734z" fill="#a8d3d8"/></g><g><path d="m268.789 240.484c-3.855-52.056-47.633-92.734-99.971-92.734-52.337 0-96.115 40.679-99.971 92.734z" fill="#8ebac5"/></g><g><path d="m185.424 149.137c-5.409-.911-10.957-1.387-16.606-1.387-52.337 0-96.115 40.679-99.971 92.734h33.211c3.441-46.438 38.651-83.819 83.366-91.347z" fill="#7ca1b1"/></g><g><g><path d="m272.058 240.484c.609-2.08.942-4.274.942-6.544 0-12.892-10.548-23.441-23.441-23.441h-29.518c-12.892 0-23.441 10.548-23.441 23.441 0 2.27.333 4.464.942 6.544z" fill="#fe9738"/></g><g><path d="m221.982 233.941c0-12.892 10.548-23.441 23.441-23.441h-25.381c-12.892 0-23.441 10.548-23.441 23.441 0 2.27.333 4.464.942 6.544h25.381c-.609-2.08-.942-4.275-.942-6.544z" fill="#fe860a"/></g><g><path d="m140.095 240.484c.609-2.08.942-4.274.942-6.544 0-12.892-10.548-23.441-23.441-23.441h-29.518c-12.893 0-23.441 10.548-23.441 23.441 0 2.27.333 4.464.942 6.544z" fill="#fe9738"/></g><g><path d="m90.018 233.941c0-12.892 10.548-23.441 23.441-23.441h-25.381c-12.892 0-23.441 10.548-23.441 23.441 0 2.27.333 4.464.942 6.544h25.381c-.609-2.08-.942-4.275-.942-6.544z" fill="#fe860a"/></g><g><path d="m206.076 240.484c.609-2.08.942-4.274.942-6.544 0-12.892-10.548-23.441-23.441-23.441h-29.518c-12.892 0-23.441 10.548-23.441 23.441 0 2.27.333 4.464.942 6.544z" fill="#fe9738"/></g><g><path d="m156 233.941c0-12.892 10.548-23.441 23.441-23.441h-25.381c-12.892 0-23.441 10.548-23.441 23.441 0 2.27.333 4.464.942 6.544h25.381c-.609-2.08-.942-4.275-.942-6.544z" fill="#fe860a"/></g></g><g fill="#d4f2f6"><path d="m101.037 282.574h135.562v43.519h-135.562z"/><path d="m69.657 282.574h-26.101v14.457c0 15.051 11.442 27.429 26.101 28.913z"/><path d="m267.98 282.574v43.37c14.66-1.483 26.101-13.862 26.101-28.913v-14.457z"/></g><path d="m305.28 239.484h-272.923c-5.523 0-10 4.477-10 10v24.09c0 5.523 4.477 10 10 10h37.3v-7.822c0-8.665 7.025-15.69 15.69-15.69s15.69 7.025 15.69 15.69v7.822h135.563v-7.822c0-8.665 7.025-15.69 15.69-15.69s15.69 7.025 15.69 15.69v7.822h37.3c5.523 0 10-4.477 10-10v-24.09c0-5.523-4.478-10-10-10z" fill="#d4f2f6"/><g fill="#a6e7f0"><path d="m69.657 275.753c0-4.551 1.949-8.637 5.045-11.503h-14.624c-5.523 0-10-4.477-10-10v-14.766h-17.72c-5.523 0-10 4.477-10 10v24.09c0 5.523 4.477 10 10 10h37.3v-7.821z"/><path d="m95.993 264.25c3.095 2.866 5.045 6.952 5.045 11.503v7.822h135.562v-7.822c0-4.551 1.949-8.637 5.045-11.503z"/><path d="m262.935 264.25c3.095 2.866 5.045 6.952 5.045 11.503v7.822h37.3c5.523 0 10-4.477 10-10v-9.324h-52.345z"/></g><g><g><path d="m69.657 365.5v-89.747c0-8.665 7.025-15.69 15.69-15.69 8.665 0 15.69 7.025 15.69 15.69v89.747z" fill="#a8d3d8"/></g><g><path d="m93.829 262.565c-2.447-1.577-5.354-2.503-8.481-2.503-8.665 0-15.69 7.025-15.69 15.69v89.748h16.962v-89.747c0-5.538 2.876-10.395 7.209-13.188z" fill="#8ebac5"/></g><g><path d="m236.6 365.5v-89.747c0-8.665 7.025-15.69 15.69-15.69 8.665 0 15.69 7.025 15.69 15.69v89.747z" fill="#a8d3d8"/></g><g><path d="m260.49 262.394c-2.388-1.469-5.19-2.332-8.2-2.332-8.665 0-15.69 7.025-15.69 15.69v89.748h16.4v-89.747c0-5.656 3.002-10.597 7.49-13.359z" fill="#8ebac5"/></g></g><g><g><path d="m464 215.5h-120c-1.657 0-3 1.343-3 3v8c0 8.564 2.7 16.493 7.283 23h111.433c4.583-6.507 7.283-14.436 7.283-23v-8c.001-1.657-1.342-3-2.999-3z" fill="#a6e7f0"/></g><g><path d="m464 248.5h-120c-1.657 0-3 1.343-3 3v8c0 8.564 2.7 16.493 7.283 23h111.433c4.583-6.507 7.283-14.436 7.283-23v-8c.001-1.657-1.342-3-2.999-3z" fill="#d4f2f6"/></g><g><path d="m464 281.5h-120c-1.657 0-3 1.343-3 3v8c0 8.564 2.7 16.493 7.283 23h111.433c4.583-6.507 7.283-14.436 7.283-23v-8c.001-1.657-1.342-3-2.999-3z" fill="#a6e7f0"/></g><g><g><path d="m427 365.5h-46c-22.091 0-40-17.909-40-40v-8c0-1.657 1.343-3 3-3h120c1.657 0 3 1.343 3 3v8c0 22.091-17.909 40-40 40z" fill="#d4f2f6"/></g></g></g><g><path d="m488 451.593v-76.093c0-5.523-4.477-10-10-10h-444c-5.523 0-10 4.477-10 10v76.093z" fill="#bb5d4c"/></g><g><path d="m499.5 485.5h-487c-2.761 0-5-2.239-5-5v-24.907c0-2.761 2.239-5 5-5h487c2.761 0 5 2.239 5 5v24.907c0 2.761-2.239 5-5 5z" fill="#ea9b58"/></g><g><path d="m53 469.157c-2.761 0-5-2.239-5-5v-13.563h-35.5c-2.761 0-5 2.239-5 5v24.906c0 2.761 2.239 5 5 5h487c2.761 0 5-2.239 5-5v-11.343z" fill="#d88a55"/></g><g><g><g><path d="m302.345 389.593c-6.606-19.251-24.853-33.093-46.345-33.093s-39.739 13.842-46.345 33.093z" fill="#fe646f"/></g></g><g><path d="m268.673 358.165c-4.043-1.08-8.288-1.665-12.673-1.665-21.492 0-39.739 13.842-46.345 33.093h25.345c5.259-15.323 17.897-27.212 33.673-31.428z" fill="#fb2b3a"/></g><g><g><path d="m156.658 389.593c1.41-2.901 2.146-6.189 1.935-9.679-.619-10.213-9.322-18.367-19.554-18.321-2.8.013-5.455.621-7.855 1.7-2.19.985-4.822.378-6.223-1.572-3.538-4.922-9.308-8.129-15.832-8.129s-12.295 3.207-15.832 8.129c-1.401 1.95-4.033 2.556-6.223 1.572-2.399-1.079-5.054-1.687-7.853-1.7-10.232-.047-18.936 8.106-19.556 18.32-.212 3.49.525 6.779 1.935 9.68z" fill="#a2e62e"/></g><g><g><path d="m84.302 377.666c.321-5.297 2.412-10.141 5.66-13.975-.958.135-1.961.019-2.888-.397-2.4-1.079-5.055-1.687-7.855-1.7-10.232-.047-18.935 8.108-19.554 18.321-.212 3.49.525 6.778 1.935 9.679h25.087c-1.737-3.576-2.645-7.627-2.385-11.928z" fill="#97d729"/></g></g><g><path d="m140.509 450.593h-62.759c-6.841 0-12.815-4.628-14.524-11.252l-12.129-46.999c-.49-1.899.944-3.75 2.905-3.75h110.255c1.961 0 3.395 1.851 2.905 3.75l-12.129 46.999c-1.71 6.624-7.684 11.252-14.524 11.252z" fill="#8ebac5"/></g><g><path d="m88.967 439.341-12.129-46.999c-.49-1.899.944-3.75 2.905-3.75h-25.742c-1.961 0-3.395 1.851-2.905 3.75l12.129 46.999c1.709 6.624 7.684 11.252 14.524 11.252h25.742c-6.84 0-12.814-4.628-14.524-11.252z" fill="#7ca1b1"/></g></g><g><g><path d="m287.38 450.593h-62.76c-6.841 0-12.815-4.628-14.524-11.252l-12.129-46.999c-.49-1.899.944-3.75 2.905-3.75h110.255c1.961 0 3.395 1.851 2.905 3.75l-12.129 46.999c-1.709 6.624-7.683 11.252-14.523 11.252z" fill="#8ebac5"/></g></g><g><path d="m235.225 439.341-12.129-46.999c-.49-1.899.944-3.75 2.905-3.75h-25.129c-1.961 0-3.395 1.851-2.905 3.75l12.129 46.999c1.709 6.624 7.683 11.252 14.524 11.252h25.129c-6.84 0-12.814-4.628-14.524-11.252z" fill="#7ca1b1"/></g><g><g><path d="m450.4 389.593c1.41-2.901 2.146-6.19 1.935-9.681-.62-10.213-9.324-18.367-19.556-18.319-2.799.013-5.454.621-7.852 1.7-2.19.985-4.822.378-6.223-1.572-3.538-4.922-9.308-8.129-15.832-8.129s-12.295 3.207-15.832 8.129c-1.401 1.949-4.033 2.556-6.223 1.572-2.4-1.079-5.056-1.687-7.855-1.7-10.232-.047-18.935 8.108-19.554 18.321-.211 3.49.525 6.778 1.935 9.679z" fill="#fe9738"/></g><g><g><path d="m378.044 377.666c.321-5.297 2.412-10.141 5.66-13.975-.958.135-1.961.019-2.888-.397-2.4-1.079-5.055-1.687-7.855-1.7-10.232-.047-18.935 8.108-19.554 18.321-.212 3.49.525 6.778 1.935 9.679h25.087c-1.738-3.576-2.646-7.627-2.385-11.928z" fill="#fe860a"/></g></g><g><path d="m434.25 450.593h-62.759c-6.841 0-12.815-4.628-14.524-11.252l-12.129-46.999c-.49-1.899.944-3.75 2.905-3.75h110.255c1.961 0 3.395 1.851 2.905 3.75l-12.129 46.999c-1.709 6.624-7.683 11.252-14.524 11.252z" fill="#8ebac5"/></g><g><path d="m382.225 439.341-12.129-46.999c-.49-1.899.944-3.75 2.905-3.75h-25.258c-1.961 0-3.395 1.851-2.905 3.75l12.129 46.999c1.709 6.624 7.683 11.252 14.524 11.252h25.258c-6.84 0-12.814-4.628-14.524-11.252z" fill="#7ca1b1"/></g></g></g><g><path d="m268 107h52c6.341 0 11.5 5.159 11.5 11.5s-5.159 11.5-11.5 11.5h-33c-4.143 0-7.5 3.358-7.5 7.5s3.357 7.5 7.5 7.5h33c14.612 0 26.5-11.888 26.5-26.5s-11.888-26.5-26.5-26.5h-52c-7.444 0-13.5-6.056-13.5-13.5s6.056-13.5 13.5-13.5h29c4.143 0 7.5-3.358 7.5-7.5s-3.357-7.5-7.5-7.5h-29c-15.715 0-28.5 12.785-28.5 28.5s12.785 28.5 28.5 28.5z"/><path d="m327 65h48.5c12.683 0 23-10.318 23-23s-10.317-23-23-23h-19.5c-4.143 0-7.5 3.358-7.5 7.5s3.357 7.5 7.5 7.5h19.5c4.411 0 8 3.589 8 8s-3.589 8-8 8h-48.5c-4.143 0-7.5 3.358-7.5 7.5s3.357 7.5 7.5 7.5z"/><path d="m499.5 443.093h-4v-67.593c0-9.649-7.851-17.5-17.5-17.5h-16.458c8.016-8.499 12.958-19.921 12.958-32.5v-8c0-3-1.271-5.703-3.296-7.619 2.167-5.493 3.296-11.362 3.296-17.381v-8c0-3-1.271-5.703-3.296-7.619 2.167-5.493 3.296-11.362 3.296-17.381v-8c0-3-1.271-5.703-3.296-7.619 2.167-5.493 3.296-11.362 3.296-17.381v-8c0-5.79-4.71-10.5-10.5-10.5h-120c-5.79 0-10.5 4.71-10.5 10.5v8c0 6.019 1.129 11.889 3.296 17.381-2.024 1.915-3.296 4.618-3.296 7.619v8c0 6.019 1.129 11.889 3.296 17.381-2.024 1.915-3.296 4.618-3.296 7.619v8c0 6.019 1.129 11.889 3.296 17.381-2.024 1.915-3.296 4.618-3.296 7.619v8c0 12.571 4.92 24.001 12.926 32.5h-59.849c-3.471-2.236-7.193-4.089-11.097-5.526v-20.426c15.077-4.51 26.102-18.492 26.102-35.016v-5.958h3.698c9.649 0 17.5-7.851 17.5-17.5v-24.09c0-9.649-7.851-17.5-17.5-17.5h-4.693c-2.612-21.62-10.491-42.283-23.06-60.182-2.378-3.388-7.057-4.209-10.447-1.828-3.391 2.38-4.209 7.058-1.828 10.448 10.795 15.373 17.698 33.045 20.226 51.562h-5.045c-.534-8.512-4.526-16.098-10.581-21.374-15.335-41.153-55.206-70.36-101.032-70.36-45.825 0-85.695 29.206-101.031 70.359-6.056 5.276-10.048 12.863-10.582 21.375h-5.052c7.849-57.724 57.455-101.734 116.663-101.734 26.839 0 53.099 9.274 73.94 26.115 3.221 2.603 7.943 2.101 10.548-1.12 2.603-3.222 2.102-7.944-1.12-10.547-18.326-14.807-40.364-24.426-63.528-27.945v-7.073h8.873c10.967 0 20.049-8.735 20.245-19.471.099-5.371-1.919-10.438-5.679-14.268-3.761-3.831-8.788-5.941-14.157-5.941h-57.835c-10.967 0-20.049 8.735-20.245 19.471-.099 5.371 1.919 10.438 5.679 14.268 3.762 3.831 8.79 5.941 14.158 5.941h9.281v7.06c-58.381 8.793-104.782 55.766-111.942 115.245h-4.679c-9.649 0-17.5 7.851-17.5 17.5v24.09c0 9.649 7.851 17.5 17.5 17.5h3.698v5.958c0 16.524 11.025 30.506 26.102 35.016v25.951h-28.157c-9.649 0-17.5 7.851-17.5 17.5v17.75c0 4.142 3.357 7.5 7.5 7.5s7.5-3.358 7.5-7.5v-17.75c0-1.378 1.121-2.5 2.5-2.5h19.367c-.645 2.055-1.053 4.218-1.189 6.458-.037.604-.034 1.209-.029 1.813-2.543.45-4.832 1.803-6.45 3.891-2.003 2.586-2.684 5.887-1.865 9.054l12.128 46.998c.165.641.367 1.264.584 1.878h-25.046v-14.842c0-4.142-3.357-7.5-7.5-7.5s-7.5 3.358-7.5 7.5v14.843h-4c-6.893 0-12.5 5.607-12.5 12.5v24.907c0 6.893 5.607 12.5 12.5 12.5h487c6.893 0 12.5-5.607 12.5-12.5v-24.907c0-6.892-5.607-12.5-12.5-12.5zm-348.021-348.414h-11.781c-1.31 0-2.537-.515-3.454-1.45-.917-.934-1.409-2.171-1.385-3.484.047-2.572 2.449-4.745 5.247-4.745h57.835c1.31 0 2.536.515 3.453 1.449s1.409 2.171 1.385 3.485c-.047 2.572-2.449 4.745-5.247 4.745h-11.373c-6.893 0-12.5 5.607-12.5 12.5v8.166c-1.611-.059-3.224-.095-4.84-.095-1.621 0-3.233.038-4.84.096v-8.167c0-6.892-5.608-12.5-12.5-12.5zm326.521 278.321c1.379 0 2.5 1.122 2.5 2.5v67.593h-25.048c.218-.614.419-1.237.584-1.878l12.129-46.998c.818-3.167.138-6.467-1.865-9.054-1.618-2.089-3.908-3.442-6.45-3.892.006-.605.008-1.209-.029-1.814-.136-2.243-.554-4.402-1.201-6.458h19.38zm-129.5-150h111v3.5c0 5.089-1.185 10.019-3.43 14.5h-104.14c-2.245-4.481-3.43-9.411-3.43-14.5zm0 33h111v3.5c0 5.089-1.185 10.019-3.43 14.5h-104.14c-2.245-4.481-3.43-9.411-3.43-14.5zm0 33h111v3.5c0 5.089-1.185 10.019-3.43 14.5h-104.14c-2.245-4.481-3.43-9.411-3.43-14.5zm0 33h111v3.5c0 13.18-7.891 24.545-19.193 29.639-2.367-.678-4.861-1.046-7.437-1.046-.042 0-.085 0-.127 0-3.167.015-6.249.573-9.186 1.661-5.104-6.083-12.696-9.661-20.687-9.661-7.989 0-15.58 3.577-20.687 9.661-2.939-1.088-6.022-1.646-9.189-1.661-.042 0-.083 0-.125 0-2.056 0-4.059.238-5.988.676-10.869-5.264-18.382-16.405-18.382-29.27v-3.499zm48.5 59.093h-36.105c0-.242-.017-.482-.002-.725.378-6.228 5.747-11.275 11.981-11.275h.053c1.675.007 3.294.357 4.814 1.041 5.471 2.458 11.942.761 15.387-4.035 2.254-3.135 5.896-5.006 9.743-5.006s7.489 1.871 9.742 5.006c3.446 4.796 9.918 6.492 15.39 4.035 1.518-.683 3.136-1.033 4.811-1.041h.053c6.234 0 11.604 5.046 11.982 11.274.015.244-.002.484-.002.726h-12.847c-4.143 0-7.5 3.358-7.5 7.5s3.357 7.5 7.5 7.5h20.189l-10.677 41.375c-.855 3.312-3.842 5.625-7.263 5.625h-62.759c-3.421 0-6.407-2.314-7.263-5.626l-10.676-41.374h43.449c4.143 0 7.5-3.358 7.5-7.5s-3.357-7.5-7.5-7.5zm-49.883-8.093c-.647 2.056-1.061 4.219-1.197 6.462-.037.603-.034 1.207-.028 1.81-2.542.45-4.831 1.803-6.449 3.891-2.003 2.586-2.684 5.887-1.865 9.054l12.128 46.999c.166.641.367 1.263.584 1.877h-41.709c.218-.614.419-1.237.584-1.878l12.129-46.998c.818-3.167.138-6.468-1.865-9.054-2.004-2.586-5.029-4.07-8.301-4.07h-4.174c-1.365-2.851-2.96-5.552-4.747-8.093zm-156.411 21.217 12.128 46.998c.165.641.367 1.264.584 1.878h-41.708c.218-.614.419-1.237.584-1.878l12.128-46.998c.818-3.167.138-6.468-1.865-9.054-1.618-2.089-3.907-3.442-6.449-3.891.006-.604.008-1.207-.028-1.811-.136-2.242-.544-4.405-1.189-6.461h44.903c-1.788 2.541-3.382 5.242-4.747 8.093h-4.174c-3.271 0-6.297 1.483-8.301 4.07s-2.684 5.887-1.866 9.054zm-111.52-25.124c1.675.008 3.294.358 4.813 1.041 5.471 2.46 11.941.761 15.388-4.036 2.253-3.134 5.895-5.005 9.742-5.005s7.489 1.872 9.741 5.004c3.447 4.797 9.918 6.497 15.391 4.036 1.519-.683 3.138-1.033 4.812-1.04h.052c6.235 0 11.604 5.047 11.982 11.274.015.243.018.485.018.726h-83.991c0-.242.003-.483.018-.727.378-6.244 5.78-11.32 12.034-11.273zm-2.029-14.926v-78.415c0-4.516 3.674-8.19 8.19-8.19s8.189 3.674 8.189 8.19v75.323c-1.876 1.328-3.595 2.892-5.095 4.679-2.938-1.088-6.02-1.646-9.187-1.661-.043 0-.085 0-.128 0-.661 0-1.318.027-1.969.074zm31.38-20.573h37.091v21.308c-2.085-.519-4.259-.809-6.498-.809-.042 0-.084 0-.125 0-3.168.015-6.251.572-9.189 1.661-5.104-6.083-12.697-9.661-20.687-9.661-.198 0-.394.012-.592.017zm0-15v-27.52h120.563v27.52zm120.563 15v22.235c-1.253.679-2.48 1.401-3.677 2.172h-33.414v-24.406h37.091zm-68.472 0h16.381v24.406h-16.381zm144.69 62.499-10.677 41.375c-.855 3.312-3.841 5.625-7.262 5.625h-62.76c-3.421 0-6.406-2.313-7.262-5.626l-10.677-41.374zm-15.775-15h-67.085c7.669-10.536 20.032-17.093 33.542-17.093s25.872 6.556 33.543 17.093zm-45.443-30.822v-74.519c0-4.516 3.674-8.19 8.19-8.19s8.189 3.674 8.189 8.19v73.43c-1.481-.117-2.974-.182-4.479-.182-4.06 0-8.043.44-11.9 1.271zm42.481-53.239c0 8.092-4.489 15.137-11.102 18.818v-24.775h11.102zm-21.218-65.048h-50.926c-.255-4.08-1.288-7.953-2.979-11.456 2.478-1.597 5.421-2.529 8.583-2.529h29.518c8.125.001 14.834 6.118 15.804 13.985zm-96.545-76.734c34.501 0 65.057 19.24 81.014 47.757-.092-.001-.182-.007-.274-.007h-29.518c-6.812 0-13.11 2.222-18.227 5.967-5.118-3.747-11.421-5.967-18.236-5.967h-29.517c-6.815 0-13.118 2.219-18.236 5.967-5.117-3.745-11.415-5.967-18.228-5.967h-29.518c-.092 0-.182.006-.273.007 15.958-28.517 46.514-47.757 81.013-47.757zm30.564 76.734h-61.125c.97-7.867 7.678-13.984 15.803-13.984h29.519c8.124 0 14.832 6.117 15.803 13.984zm-111.304-13.984h29.518c3.162 0 6.106.932 8.584 2.529-1.692 3.503-2.724 7.375-2.979 11.455h-50.927c.97-7.867 7.678-13.984 15.804-13.984zm-55.721 58.074c-1.379 0-2.5-1.122-2.5-2.5v-24.09c0-1.378 1.121-2.5 2.5-2.5h272.922c1.379 0 2.5 1.122 2.5 2.5v24.09c0 1.378-1.121 2.5-2.5 2.5h-29.8v-.322c0-12.787-10.402-23.19-23.189-23.19s-23.19 10.403-23.19 23.19v.322h-120.563v-.322c0-12.787-10.403-23.19-23.19-23.19s-23.189 10.403-23.189 23.19v.322zm18.699 20.958v-5.958h11.102v24.775c-6.613-3.68-11.102-10.726-11.102-18.817zm107.391 99.061-10.676 41.374c-.855 3.312-3.842 5.626-7.263 5.626h-62.758c-3.421 0-6.407-2.313-7.263-5.626l-10.677-41.374zm338.553 81.907h-482v-19.907h482z"/></g></g></svg>