<svg width="21" height="24" viewBox="0 0 21 24" fill="none" xmlns="http://www.w3.org/2000/svg">
    <path fill-rule="evenodd" clip-rule="evenodd" d="M5.38646 0.666748H16.1016C17.4075 0.666748 18.0599 0.666748 18.5872 0.850404C19.0843 1.02661 19.5342 1.31508 19.9018 1.6934C20.2693 2.07172 20.5447 2.52969 20.7065 3.03174C20.8845 3.57482 20.8845 4.24635 20.8845 5.59053V21.3692C20.8845 22.3359 19.7747 22.8497 19.0728 22.2075C18.8758 22.0255 18.6176 21.9244 18.3494 21.9244C18.0813 21.9244 17.823 22.0255 17.6261 22.2075L17.0819 22.7055C16.7368 23.0245 16.2842 23.2017 15.8143 23.2017C15.3444 23.2017 14.8917 23.0245 14.5467 22.7055C14.2017 22.3864 13.7491 22.2092 13.2792 22.2092C12.8092 22.2092 12.3566 22.3864 12.0116 22.7055C11.6666 23.0245 11.214 23.2017 10.744 23.2017C10.2741 23.2017 9.82148 23.0245 9.47647 22.7055C9.13146 22.3864 8.67882 22.2092 8.2089 22.2092C7.73899 22.2092 7.28635 22.3864 6.94134 22.7055C6.59633 23.0245 6.14369 23.2017 5.67377 23.2017C5.20386 23.2017 4.75122 23.0245 4.40621 22.7055L3.862 22.2075C3.66507 22.0255 3.40678 21.9244 3.13864 21.9244C2.87051 21.9244 2.61222 22.0255 2.41529 22.2075C1.71334 22.8497 0.603516 22.3359 0.603516 21.3692V5.59053C0.603516 4.24635 0.603516 3.5737 0.781538 3.03287C1.11956 2.00417 1.90263 1.19744 2.90091 0.850404C3.42821 0.666748 4.08059 0.666748 5.38646 0.666748ZM5.11041 6.01869C4.88629 6.01869 4.67135 6.10772 4.51288 6.26619C4.3544 6.42467 4.26537 6.63961 4.26537 6.86373C4.26537 7.08785 4.3544 7.30279 4.51288 7.46127C4.67135 7.61974 4.88629 7.70877 5.11041 7.70877H5.67377C5.89789 7.70877 6.11283 7.61974 6.27131 7.46127C6.42979 7.30279 6.51882 7.08785 6.51882 6.86373C6.51882 6.63961 6.42979 6.42467 6.27131 6.26619C6.11283 6.10772 5.89789 6.01869 5.67377 6.01869H5.11041ZM9.05395 6.01869C8.82983 6.01869 8.61489 6.10772 8.45641 6.26619C8.29793 6.42467 8.2089 6.63961 8.2089 6.86373C8.2089 7.08785 8.29793 7.30279 8.45641 7.46127C8.61489 7.61974 8.82983 7.70877 9.05395 7.70877H16.3777C16.6018 7.70877 16.8167 7.61974 16.9752 7.46127C17.1337 7.30279 17.2227 7.08785 17.2227 6.86373C17.2227 6.63961 17.1337 6.42467 16.9752 6.26619C16.8167 6.10772 16.6018 6.01869 16.3777 6.01869H9.05395ZM5.11041 9.96222C4.88629 9.96222 4.67135 10.0513 4.51288 10.2097C4.3544 10.3682 4.26537 10.5831 4.26537 10.8073C4.26537 11.0314 4.3544 11.2463 4.51288 11.4048C4.67135 11.5633 4.88629 11.6523 5.11041 11.6523H5.67377C5.89789 11.6523 6.11283 11.5633 6.27131 11.4048C6.42979 11.2463 6.51882 11.0314 6.51882 10.8073C6.51882 10.5831 6.42979 10.3682 6.27131 10.2097C6.11283 10.0513 5.89789 9.96222 5.67377 9.96222H5.11041ZM9.05395 9.96222C8.82983 9.96222 8.61489 10.0513 8.45641 10.2097C8.29793 10.3682 8.2089 10.5831 8.2089 10.8073C8.2089 11.0314 8.29793 11.2463 8.45641 11.4048C8.61489 11.5633 8.82983 11.6523 9.05395 11.6523H16.3777C16.6018 11.6523 16.8167 11.5633 16.9752 11.4048C17.1337 11.2463 17.2227 11.0314 17.2227 10.8073C17.2227 10.5831 17.1337 10.3682 16.9752 10.2097C16.8167 10.0513 16.6018 9.96222 16.3777 9.96222H9.05395ZM5.11041 13.9058C4.88629 13.9058 4.67135 13.9948 4.51288 14.1533C4.3544 14.3117 4.26537 14.5267 4.26537 14.7508C4.26537 14.9749 4.3544 15.1899 4.51288 15.3483C4.67135 15.5068 4.88629 15.5958 5.11041 15.5958H5.67377C5.89789 15.5958 6.11283 15.5068 6.27131 15.3483C6.42979 15.1899 6.51882 14.9749 6.51882 14.7508C6.51882 14.5267 6.42979 14.3117 6.27131 14.1533C6.11283 13.9948 5.89789 13.9058 5.67377 13.9058H5.11041ZM9.05395 13.9058C8.82983 13.9058 8.61489 13.9948 8.45641 14.1533C8.29793 14.3117 8.2089 14.5267 8.2089 14.7508C8.2089 14.9749 8.29793 15.1899 8.45641 15.3483C8.61489 15.5068 8.82983 15.5958 9.05395 15.5958H16.3777C16.6018 15.5958 16.8167 15.5068 16.9752 15.3483C17.1337 15.1899 17.2227 14.9749 17.2227 14.7508C17.2227 14.5267 17.1337 14.3117 16.9752 14.1533C16.8167 13.9948 16.6018 13.9058 16.3777 13.9058H9.05395Z" fill="#637381"/>
    </svg>
    