<svg width="23" height="19" viewBox="0 0 23 19" fill="none" xmlns="http://www.w3.org/2000/svg">
    <path fill-rule="evenodd" clip-rule="evenodd" d="M9.45032 0.931152H13.9572C18.2061 0.931152 20.3311 0.931152 21.6505 2.25167C22.971 3.57107 22.971 5.69607 22.971 9.94495C22.971 14.1938 22.971 16.3188 21.6505 17.6382C20.3311 18.9587 18.2061 18.9587 13.9572 18.9587H9.45032C5.20144 18.9587 3.07644 18.9587 1.75704 17.6382C0.436523 16.3188 0.436523 14.1938 0.436523 9.94495C0.436523 5.69607 0.436523 3.57107 1.75704 2.25167C3.07644 0.931152 5.20144 0.931152 9.45032 0.931152ZM13.1122 6.56477C13.1122 6.34065 13.2012 6.12571 13.3597 5.96724C13.5182 5.80876 13.7331 5.71973 13.9572 5.71973H19.5908C19.815 5.71973 20.0299 5.80876 20.1884 5.96724C20.3468 6.12571 20.4359 6.34065 20.4359 6.56477C20.4359 6.78889 20.3468 7.00383 20.1884 7.16231C20.0299 7.32078 19.815 7.40982 19.5908 7.40982H13.9572C13.7331 7.40982 13.5182 7.32078 13.3597 7.16231C13.2012 7.00383 13.1122 6.78889 13.1122 6.56477ZM14.2389 9.94495C14.2389 9.72083 14.3279 9.50589 14.4864 9.34741C14.6449 9.18893 14.8598 9.0999 15.0839 9.0999H19.5908C19.815 9.0999 20.0299 9.18893 20.1884 9.34741C20.3468 9.50589 20.4359 9.72083 20.4359 9.94495C20.4359 10.1691 20.3468 10.384 20.1884 10.5425C20.0299 10.701 19.815 10.79 19.5908 10.79H15.0839C14.8598 10.79 14.6449 10.701 14.4864 10.5425C14.3279 10.384 14.2389 10.1691 14.2389 9.94495ZM15.3656 13.3251C15.3656 13.101 15.4546 12.8861 15.6131 12.7276C15.7716 12.5691 15.9865 12.4801 16.2107 12.4801H19.5908C19.815 12.4801 20.0299 12.5691 20.1884 12.7276C20.3468 12.8861 20.4359 13.101 20.4359 13.3251C20.4359 13.5492 20.3468 13.7642 20.1884 13.9227C20.0299 14.0811 19.815 14.1702 19.5908 14.1702H16.2107C15.9865 14.1702 15.7716 14.0811 15.6131 13.9227C15.4546 13.7642 15.3656 13.5492 15.3656 13.3251ZM10.577 6.56477C10.577 7.16242 10.3396 7.7356 9.91702 8.1582C9.49442 8.5808 8.92124 8.81822 8.32359 8.81822C7.72594 8.81822 7.15277 8.5808 6.73016 8.1582C6.30756 7.7356 6.07014 7.16242 6.07014 6.56477C6.07014 5.96712 6.30756 5.39395 6.73016 4.97134C7.15277 4.54874 7.72594 4.31132 8.32359 4.31132C8.92124 4.31132 9.49442 4.54874 9.91702 4.97134C10.3396 5.39395 10.577 5.96712 10.577 6.56477ZM8.32359 15.5786C12.8305 15.5786 12.8305 14.5701 12.8305 13.3251C12.8305 12.0801 10.8137 11.0717 8.32359 11.0717C5.83353 11.0717 3.8167 12.0801 3.8167 13.3251C3.8167 14.5701 3.8167 15.5786 8.32359 15.5786Z" fill="#212B36"/>
    </svg>
    